<?xml version="1.0" encoding="utf-8" standalone="no"?>
<!DOCTYPE svg PUBLIC "-//W3C//DTD SVG 1.1//EN"
  "http://www.w3.org/Graphics/SVG/1.1/DTD/svg11.dtd">
<svg xmlns:xlink="http://www.w3.org/1999/xlink" width="490.136871pt" height="344.279942pt" viewBox="0 0 490.136871 344.279942" xmlns="http://www.w3.org/2000/svg" version="1.1">
 <metadata>
  <rdf:RDF xmlns:dc="http://purl.org/dc/elements/1.1/" xmlns:cc="http://creativecommons.org/ns#" xmlns:rdf="http://www.w3.org/1999/02/22-rdf-syntax-ns#">
   <cc:Work>
    <dc:type rdf:resource="http://purl.org/dc/dcmitype/StillImage"/>
    <dc:date>2022-09-21T14:18:47.635974</dc:date>
    <dc:format>image/svg+xml</dc:format>
    <dc:creator>
     <cc:Agent>
      <dc:title>Matplotlib v3.5.2, https://matplotlib.org/</dc:title>
     </cc:Agent>
    </dc:creator>
   </cc:Work>
  </rdf:RDF>
 </metadata>
 <defs>
  <style type="text/css">*{stroke-linejoin: round; stroke-linecap: butt}</style>
 </defs>
 <g id="figure_1">
  <g id="patch_1">
   <path d="M 0 344.279942 
L 490.136871 344.279942 
L 490.136871 0 
L 0 0 
z
" style="fill: #ffffff"/>
  </g>
  <g id="axes_1">
   <g id="patch_2">
    <path d="M 47.381679 326.082538 
L 400.894371 326.082538 
L 400.894371 30.685 
L 47.381679 30.685 
z
" style="fill: #ffffff"/>
   </g>
   <g id="matplotlib.axis_1">
    <g id="xtick_1">
     <g id="line2d_1">
      <defs>
       <path id="m0a9c2b3e30" d="M 0 0 
L 0 3.5 
" style="stroke: #000000; stroke-width: 0.8"/>
      </defs>
      <g>
       <use xlink:href="#m0a9c2b3e30" x="54.18" y="320.401817" style="stroke: #000000; stroke-width: 0.8"/>
      </g>
     </g>
    </g>
    <g id="xtick_2">
     <g id="line2d_2">
      <g>
       <use xlink:href="#m0a9c2b3e30" x="151.303299" y="320.401817" style="stroke: #000000; stroke-width: 0.8"/>
      </g>
     </g>
     <g id="text_1">
      <!-- 0.5 -->
      <g transform="translate(143.351737 335.000254)scale(0.1 -0.1)">
       <defs>
        <path id="DejaVuSans-30" d="M 2034 4250 
Q 1547 4250 1301 3770 
Q 1056 3291 1056 2328 
Q 1056 1369 1301 889 
Q 1547 409 2034 409 
Q 2525 409 2770 889 
Q 3016 1369 3016 2328 
Q 3016 3291 2770 3770 
Q 2525 4250 2034 4250 
z
M 2034 4750 
Q 2819 4750 3233 4129 
Q 3647 3509 3647 2328 
Q 3647 1150 3233 529 
Q 2819 -91 2034 -91 
Q 1250 -91 836 529 
Q 422 1150 422 2328 
Q 422 3509 836 4129 
Q 1250 4750 2034 4750 
z
" transform="scale(0.015625)"/>
        <path id="DejaVuSans-2e" d="M 684 794 
L 1344 794 
L 1344 0 
L 684 0 
L 684 794 
z
" transform="scale(0.015625)"/>
        <path id="DejaVuSans-35" d="M 691 4666 
L 3169 4666 
L 3169 4134 
L 1269 4134 
L 1269 2991 
Q 1406 3038 1543 3061 
Q 1681 3084 1819 3084 
Q 2600 3084 3056 2656 
Q 3513 2228 3513 1497 
Q 3513 744 3044 326 
Q 2575 -91 1722 -91 
Q 1428 -91 1123 -41 
Q 819 9 494 109 
L 494 744 
Q 775 591 1075 516 
Q 1375 441 1709 441 
Q 2250 441 2565 725 
Q 2881 1009 2881 1497 
Q 2881 1984 2565 2268 
Q 2250 2553 1709 2553 
Q 1456 2553 1204 2497 
Q 953 2441 691 2322 
L 691 4666 
z
" transform="scale(0.015625)"/>
       </defs>
       <use xlink:href="#DejaVuSans-30"/>
       <use xlink:href="#DejaVuSans-2e" x="63.623047"/>
       <use xlink:href="#DejaVuSans-35" x="95.410156"/>
      </g>
     </g>
    </g>
    <g id="xtick_3">
     <g id="line2d_3">
      <g>
       <use xlink:href="#m0a9c2b3e30" x="248.426598" y="320.401817" style="stroke: #000000; stroke-width: 0.8"/>
      </g>
     </g>
     <g id="text_2">
      <!-- 1.0 -->
      <g transform="translate(240.475036 335.000254)scale(0.1 -0.1)">
       <defs>
        <path id="DejaVuSans-31" d="M 794 531 
L 1825 531 
L 1825 4091 
L 703 3866 
L 703 4441 
L 1819 4666 
L 2450 4666 
L 2450 531 
L 3481 531 
L 3481 0 
L 794 0 
L 794 531 
z
" transform="scale(0.015625)"/>
       </defs>
       <use xlink:href="#DejaVuSans-31"/>
       <use xlink:href="#DejaVuSans-2e" x="63.623047"/>
       <use xlink:href="#DejaVuSans-30" x="95.410156"/>
      </g>
     </g>
    </g>
    <g id="xtick_4">
     <g id="line2d_4">
      <g>
       <use xlink:href="#m0a9c2b3e30" x="345.549897" y="320.401817" style="stroke: #000000; stroke-width: 0.8"/>
      </g>
     </g>
     <g id="text_3">
      <!-- 1.5 -->
      <g transform="translate(337.598335 335.000254)scale(0.1 -0.1)">
       <use xlink:href="#DejaVuSans-31"/>
       <use xlink:href="#DejaVuSans-2e" x="63.623047"/>
       <use xlink:href="#DejaVuSans-35" x="95.410156"/>
      </g>
     </g>
    </g>
    <g id="xtick_5">
     <g id="line2d_5">
      <defs>
       <path id="m8b605b8c65" d="M 0 0 
L 0 2 
" style="stroke: #000000; stroke-width: 0.6"/>
      </defs>
      <g>
       <use xlink:href="#m8b605b8c65" x="73.60466" y="320.401817" style="stroke: #000000; stroke-width: 0.6"/>
      </g>
     </g>
    </g>
    <g id="xtick_6">
     <g id="line2d_6">
      <g>
       <use xlink:href="#m8b605b8c65" x="93.02932" y="320.401817" style="stroke: #000000; stroke-width: 0.6"/>
      </g>
     </g>
    </g>
    <g id="xtick_7">
     <g id="line2d_7">
      <g>
       <use xlink:href="#m8b605b8c65" x="112.453979" y="320.401817" style="stroke: #000000; stroke-width: 0.6"/>
      </g>
     </g>
    </g>
    <g id="xtick_8">
     <g id="line2d_8">
      <g>
       <use xlink:href="#m8b605b8c65" x="131.878639" y="320.401817" style="stroke: #000000; stroke-width: 0.6"/>
      </g>
     </g>
    </g>
    <g id="xtick_9">
     <g id="line2d_9">
      <g>
       <use xlink:href="#m8b605b8c65" x="170.727959" y="320.401817" style="stroke: #000000; stroke-width: 0.6"/>
      </g>
     </g>
    </g>
    <g id="xtick_10">
     <g id="line2d_10">
      <g>
       <use xlink:href="#m8b605b8c65" x="190.152619" y="320.401817" style="stroke: #000000; stroke-width: 0.6"/>
      </g>
     </g>
    </g>
    <g id="xtick_11">
     <g id="line2d_11">
      <g>
       <use xlink:href="#m8b605b8c65" x="209.577279" y="320.401817" style="stroke: #000000; stroke-width: 0.6"/>
      </g>
     </g>
    </g>
    <g id="xtick_12">
     <g id="line2d_12">
      <g>
       <use xlink:href="#m8b605b8c65" x="229.001938" y="320.401817" style="stroke: #000000; stroke-width: 0.6"/>
      </g>
     </g>
    </g>
    <g id="xtick_13">
     <g id="line2d_13">
      <g>
       <use xlink:href="#m8b605b8c65" x="267.851258" y="320.401817" style="stroke: #000000; stroke-width: 0.6"/>
      </g>
     </g>
    </g>
    <g id="xtick_14">
     <g id="line2d_14">
      <g>
       <use xlink:href="#m8b605b8c65" x="287.275918" y="320.401817" style="stroke: #000000; stroke-width: 0.6"/>
      </g>
     </g>
    </g>
    <g id="xtick_15">
     <g id="line2d_15">
      <g>
       <use xlink:href="#m8b605b8c65" x="306.700578" y="320.401817" style="stroke: #000000; stroke-width: 0.6"/>
      </g>
     </g>
    </g>
    <g id="xtick_16">
     <g id="line2d_16">
      <g>
       <use xlink:href="#m8b605b8c65" x="326.125237" y="320.401817" style="stroke: #000000; stroke-width: 0.6"/>
      </g>
     </g>
    </g>
    <g id="xtick_17">
     <g id="line2d_17">
      <g>
       <use xlink:href="#m8b605b8c65" x="364.974557" y="320.401817" style="stroke: #000000; stroke-width: 0.6"/>
      </g>
     </g>
    </g>
    <g id="xtick_18">
     <g id="line2d_18">
      <g>
       <use xlink:href="#m8b605b8c65" x="384.399217" y="320.401817" style="stroke: #000000; stroke-width: 0.6"/>
      </g>
     </g>
    </g>
    <g id="text_4">
     <!-- Time in h -->
     <g transform="translate(408.894371 320.401817)scale(0.16 -0.16)">
      <defs>
       <path id="DejaVuSans-54" d="M -19 4666 
L 3928 4666 
L 3928 4134 
L 2272 4134 
L 2272 0 
L 1638 0 
L 1638 4134 
L -19 4134 
L -19 4666 
z
" transform="scale(0.015625)"/>
       <path id="DejaVuSans-69" d="M 603 3500 
L 1178 3500 
L 1178 0 
L 603 0 
L 603 3500 
z
M 603 4863 
L 1178 4863 
L 1178 4134 
L 603 4134 
L 603 4863 
z
" transform="scale(0.015625)"/>
       <path id="DejaVuSans-6d" d="M 3328 2828 
Q 3544 3216 3844 3400 
Q 4144 3584 4550 3584 
Q 5097 3584 5394 3201 
Q 5691 2819 5691 2113 
L 5691 0 
L 5113 0 
L 5113 2094 
Q 5113 2597 4934 2840 
Q 4756 3084 4391 3084 
Q 3944 3084 3684 2787 
Q 3425 2491 3425 1978 
L 3425 0 
L 2847 0 
L 2847 2094 
Q 2847 2600 2669 2842 
Q 2491 3084 2119 3084 
Q 1678 3084 1418 2786 
Q 1159 2488 1159 1978 
L 1159 0 
L 581 0 
L 581 3500 
L 1159 3500 
L 1159 2956 
Q 1356 3278 1631 3431 
Q 1906 3584 2284 3584 
Q 2666 3584 2933 3390 
Q 3200 3197 3328 2828 
z
" transform="scale(0.015625)"/>
       <path id="DejaVuSans-65" d="M 3597 1894 
L 3597 1613 
L 953 1613 
Q 991 1019 1311 708 
Q 1631 397 2203 397 
Q 2534 397 2845 478 
Q 3156 559 3463 722 
L 3463 178 
Q 3153 47 2828 -22 
Q 2503 -91 2169 -91 
Q 1331 -91 842 396 
Q 353 884 353 1716 
Q 353 2575 817 3079 
Q 1281 3584 2069 3584 
Q 2775 3584 3186 3129 
Q 3597 2675 3597 1894 
z
M 3022 2063 
Q 3016 2534 2758 2815 
Q 2500 3097 2075 3097 
Q 1594 3097 1305 2825 
Q 1016 2553 972 2059 
L 3022 2063 
z
" transform="scale(0.015625)"/>
       <path id="DejaVuSans-20" transform="scale(0.015625)"/>
       <path id="DejaVuSans-6e" d="M 3513 2113 
L 3513 0 
L 2938 0 
L 2938 2094 
Q 2938 2591 2744 2837 
Q 2550 3084 2163 3084 
Q 1697 3084 1428 2787 
Q 1159 2491 1159 1978 
L 1159 0 
L 581 0 
L 581 3500 
L 1159 3500 
L 1159 2956 
Q 1366 3272 1645 3428 
Q 1925 3584 2291 3584 
Q 2894 3584 3203 3211 
Q 3513 2838 3513 2113 
z
" transform="scale(0.015625)"/>
       <path id="DejaVuSans-68" d="M 3513 2113 
L 3513 0 
L 2938 0 
L 2938 2094 
Q 2938 2591 2744 2837 
Q 2550 3084 2163 3084 
Q 1697 3084 1428 2787 
Q 1159 2491 1159 1978 
L 1159 0 
L 581 0 
L 581 4863 
L 1159 4863 
L 1159 2956 
Q 1366 3272 1645 3428 
Q 1925 3584 2291 3584 
Q 2894 3584 3203 3211 
Q 3513 2838 3513 2113 
z
" transform="scale(0.015625)"/>
      </defs>
      <use xlink:href="#DejaVuSans-54"/>
      <use xlink:href="#DejaVuSans-69" x="57.958984"/>
      <use xlink:href="#DejaVuSans-6d" x="85.742188"/>
      <use xlink:href="#DejaVuSans-65" x="183.154297"/>
      <use xlink:href="#DejaVuSans-20" x="244.677734"/>
      <use xlink:href="#DejaVuSans-69" x="276.464844"/>
      <use xlink:href="#DejaVuSans-6e" x="304.248047"/>
      <use xlink:href="#DejaVuSans-20" x="367.626953"/>
      <use xlink:href="#DejaVuSans-68" x="399.414062"/>
     </g>
    </g>
   </g>
   <g id="matplotlib.axis_2">
    <g id="ytick_1">
     <g id="line2d_19">
      <defs>
       <path id="mca80a070cb" d="M 0 0 
L -3.5 0 
" style="stroke: #000000; stroke-width: 0.8"/>
      </defs>
      <g>
       <use xlink:href="#mca80a070cb" x="54.18" y="320.401817" style="stroke: #000000; stroke-width: 0.8"/>
      </g>
     </g>
    </g>
    <g id="ytick_2">
     <g id="line2d_20">
      <g>
       <use xlink:href="#mca80a070cb" x="54.18" y="284.020891" style="stroke: #000000; stroke-width: 0.8"/>
      </g>
     </g>
     <g id="text_5">
      <!-- 0.2 -->
      <g transform="translate(31.276875 287.820109)scale(0.1 -0.1)">
       <defs>
        <path id="DejaVuSans-32" d="M 1228 531 
L 3431 531 
L 3431 0 
L 469 0 
L 469 531 
Q 828 903 1448 1529 
Q 2069 2156 2228 2338 
Q 2531 2678 2651 2914 
Q 2772 3150 2772 3378 
Q 2772 3750 2511 3984 
Q 2250 4219 1831 4219 
Q 1534 4219 1204 4116 
Q 875 4013 500 3803 
L 500 4441 
Q 881 4594 1212 4672 
Q 1544 4750 1819 4750 
Q 2544 4750 2975 4387 
Q 3406 4025 3406 3419 
Q 3406 3131 3298 2873 
Q 3191 2616 2906 2266 
Q 2828 2175 2409 1742 
Q 1991 1309 1228 531 
z
" transform="scale(0.015625)"/>
       </defs>
       <use xlink:href="#DejaVuSans-30"/>
       <use xlink:href="#DejaVuSans-2e" x="63.623047"/>
       <use xlink:href="#DejaVuSans-32" x="95.410156"/>
      </g>
     </g>
    </g>
    <g id="ytick_3">
     <g id="line2d_21">
      <g>
       <use xlink:href="#mca80a070cb" x="54.18" y="247.639965" style="stroke: #000000; stroke-width: 0.8"/>
      </g>
     </g>
     <g id="text_6">
      <!-- 0.4 -->
      <g transform="translate(31.276875 251.439184)scale(0.1 -0.1)">
       <defs>
        <path id="DejaVuSans-34" d="M 2419 4116 
L 825 1625 
L 2419 1625 
L 2419 4116 
z
M 2253 4666 
L 3047 4666 
L 3047 1625 
L 3713 1625 
L 3713 1100 
L 3047 1100 
L 3047 0 
L 2419 0 
L 2419 1100 
L 313 1100 
L 313 1709 
L 2253 4666 
z
" transform="scale(0.015625)"/>
       </defs>
       <use xlink:href="#DejaVuSans-30"/>
       <use xlink:href="#DejaVuSans-2e" x="63.623047"/>
       <use xlink:href="#DejaVuSans-34" x="95.410156"/>
      </g>
     </g>
    </g>
    <g id="ytick_4">
     <g id="line2d_22">
      <g>
       <use xlink:href="#mca80a070cb" x="54.18" y="211.259039" style="stroke: #000000; stroke-width: 0.8"/>
      </g>
     </g>
     <g id="text_7">
      <!-- 0.6 -->
      <g transform="translate(31.276875 215.058258)scale(0.1 -0.1)">
       <defs>
        <path id="DejaVuSans-36" d="M 2113 2584 
Q 1688 2584 1439 2293 
Q 1191 2003 1191 1497 
Q 1191 994 1439 701 
Q 1688 409 2113 409 
Q 2538 409 2786 701 
Q 3034 994 3034 1497 
Q 3034 2003 2786 2293 
Q 2538 2584 2113 2584 
z
M 3366 4563 
L 3366 3988 
Q 3128 4100 2886 4159 
Q 2644 4219 2406 4219 
Q 1781 4219 1451 3797 
Q 1122 3375 1075 2522 
Q 1259 2794 1537 2939 
Q 1816 3084 2150 3084 
Q 2853 3084 3261 2657 
Q 3669 2231 3669 1497 
Q 3669 778 3244 343 
Q 2819 -91 2113 -91 
Q 1303 -91 875 529 
Q 447 1150 447 2328 
Q 447 3434 972 4092 
Q 1497 4750 2381 4750 
Q 2619 4750 2861 4703 
Q 3103 4656 3366 4563 
z
" transform="scale(0.015625)"/>
       </defs>
       <use xlink:href="#DejaVuSans-30"/>
       <use xlink:href="#DejaVuSans-2e" x="63.623047"/>
       <use xlink:href="#DejaVuSans-36" x="95.410156"/>
      </g>
     </g>
    </g>
    <g id="ytick_5">
     <g id="line2d_23">
      <g>
       <use xlink:href="#mca80a070cb" x="54.18" y="174.878113" style="stroke: #000000; stroke-width: 0.8"/>
      </g>
     </g>
     <g id="text_8">
      <!-- 0.8 -->
      <g transform="translate(31.276875 178.677332)scale(0.1 -0.1)">
       <defs>
        <path id="DejaVuSans-38" d="M 2034 2216 
Q 1584 2216 1326 1975 
Q 1069 1734 1069 1313 
Q 1069 891 1326 650 
Q 1584 409 2034 409 
Q 2484 409 2743 651 
Q 3003 894 3003 1313 
Q 3003 1734 2745 1975 
Q 2488 2216 2034 2216 
z
M 1403 2484 
Q 997 2584 770 2862 
Q 544 3141 544 3541 
Q 544 4100 942 4425 
Q 1341 4750 2034 4750 
Q 2731 4750 3128 4425 
Q 3525 4100 3525 3541 
Q 3525 3141 3298 2862 
Q 3072 2584 2669 2484 
Q 3125 2378 3379 2068 
Q 3634 1759 3634 1313 
Q 3634 634 3220 271 
Q 2806 -91 2034 -91 
Q 1263 -91 848 271 
Q 434 634 434 1313 
Q 434 1759 690 2068 
Q 947 2378 1403 2484 
z
M 1172 3481 
Q 1172 3119 1398 2916 
Q 1625 2713 2034 2713 
Q 2441 2713 2670 2916 
Q 2900 3119 2900 3481 
Q 2900 3844 2670 4047 
Q 2441 4250 2034 4250 
Q 1625 4250 1398 4047 
Q 1172 3844 1172 3481 
z
" transform="scale(0.015625)"/>
       </defs>
       <use xlink:href="#DejaVuSans-30"/>
       <use xlink:href="#DejaVuSans-2e" x="63.623047"/>
       <use xlink:href="#DejaVuSans-38" x="95.410156"/>
      </g>
     </g>
    </g>
    <g id="ytick_6">
     <g id="line2d_24">
      <g>
       <use xlink:href="#mca80a070cb" x="54.18" y="138.497187" style="stroke: #000000; stroke-width: 0.8"/>
      </g>
     </g>
     <g id="text_9">
      <!-- 1.0 -->
      <g transform="translate(31.276875 142.296406)scale(0.1 -0.1)">
       <use xlink:href="#DejaVuSans-31"/>
       <use xlink:href="#DejaVuSans-2e" x="63.623047"/>
       <use xlink:href="#DejaVuSans-30" x="95.410156"/>
      </g>
     </g>
    </g>
    <g id="ytick_7">
     <g id="line2d_25">
      <g>
       <use xlink:href="#mca80a070cb" x="54.18" y="102.116261" style="stroke: #000000; stroke-width: 0.8"/>
      </g>
     </g>
     <g id="text_10">
      <!-- 1.2 -->
      <g transform="translate(31.276875 105.91548)scale(0.1 -0.1)">
       <use xlink:href="#DejaVuSans-31"/>
       <use xlink:href="#DejaVuSans-2e" x="63.623047"/>
       <use xlink:href="#DejaVuSans-32" x="95.410156"/>
      </g>
     </g>
    </g>
    <g id="ytick_8">
     <g id="line2d_26">
      <g>
       <use xlink:href="#mca80a070cb" x="54.18" y="65.735335" style="stroke: #000000; stroke-width: 0.8"/>
      </g>
     </g>
     <g id="text_11">
      <!-- 1.4 -->
      <g transform="translate(31.276875 69.534554)scale(0.1 -0.1)">
       <use xlink:href="#DejaVuSans-31"/>
       <use xlink:href="#DejaVuSans-2e" x="63.623047"/>
       <use xlink:href="#DejaVuSans-34" x="95.410156"/>
      </g>
     </g>
    </g>
    <g id="ytick_9">
     <g id="line2d_27">
      <defs>
       <path id="m25610ea3c9" d="M 0 0 
L -2 0 
" style="stroke: #000000; stroke-width: 0.6"/>
      </defs>
      <g>
       <use xlink:href="#m25610ea3c9" x="54.18" y="311.306585" style="stroke: #000000; stroke-width: 0.6"/>
      </g>
     </g>
    </g>
    <g id="ytick_10">
     <g id="line2d_28">
      <g>
       <use xlink:href="#m25610ea3c9" x="54.18" y="302.211354" style="stroke: #000000; stroke-width: 0.6"/>
      </g>
     </g>
    </g>
    <g id="ytick_11">
     <g id="line2d_29">
      <g>
       <use xlink:href="#m25610ea3c9" x="54.18" y="293.116122" style="stroke: #000000; stroke-width: 0.6"/>
      </g>
     </g>
    </g>
    <g id="ytick_12">
     <g id="line2d_30">
      <g>
       <use xlink:href="#m25610ea3c9" x="54.18" y="274.925659" style="stroke: #000000; stroke-width: 0.6"/>
      </g>
     </g>
    </g>
    <g id="ytick_13">
     <g id="line2d_31">
      <g>
       <use xlink:href="#m25610ea3c9" x="54.18" y="265.830428" style="stroke: #000000; stroke-width: 0.6"/>
      </g>
     </g>
    </g>
    <g id="ytick_14">
     <g id="line2d_32">
      <g>
       <use xlink:href="#m25610ea3c9" x="54.18" y="256.735196" style="stroke: #000000; stroke-width: 0.6"/>
      </g>
     </g>
    </g>
    <g id="ytick_15">
     <g id="line2d_33">
      <g>
       <use xlink:href="#m25610ea3c9" x="54.18" y="238.544733" style="stroke: #000000; stroke-width: 0.6"/>
      </g>
     </g>
    </g>
    <g id="ytick_16">
     <g id="line2d_34">
      <g>
       <use xlink:href="#m25610ea3c9" x="54.18" y="229.449502" style="stroke: #000000; stroke-width: 0.6"/>
      </g>
     </g>
    </g>
    <g id="ytick_17">
     <g id="line2d_35">
      <g>
       <use xlink:href="#m25610ea3c9" x="54.18" y="220.35427" style="stroke: #000000; stroke-width: 0.6"/>
      </g>
     </g>
    </g>
    <g id="ytick_18">
     <g id="line2d_36">
      <g>
       <use xlink:href="#m25610ea3c9" x="54.18" y="202.163807" style="stroke: #000000; stroke-width: 0.6"/>
      </g>
     </g>
    </g>
    <g id="ytick_19">
     <g id="line2d_37">
      <g>
       <use xlink:href="#m25610ea3c9" x="54.18" y="193.068576" style="stroke: #000000; stroke-width: 0.6"/>
      </g>
     </g>
    </g>
    <g id="ytick_20">
     <g id="line2d_38">
      <g>
       <use xlink:href="#m25610ea3c9" x="54.18" y="183.973345" style="stroke: #000000; stroke-width: 0.6"/>
      </g>
     </g>
    </g>
    <g id="ytick_21">
     <g id="line2d_39">
      <g>
       <use xlink:href="#m25610ea3c9" x="54.18" y="165.782882" style="stroke: #000000; stroke-width: 0.6"/>
      </g>
     </g>
    </g>
    <g id="ytick_22">
     <g id="line2d_40">
      <g>
       <use xlink:href="#m25610ea3c9" x="54.18" y="156.68765" style="stroke: #000000; stroke-width: 0.6"/>
      </g>
     </g>
    </g>
    <g id="ytick_23">
     <g id="line2d_41">
      <g>
       <use xlink:href="#m25610ea3c9" x="54.18" y="147.592419" style="stroke: #000000; stroke-width: 0.6"/>
      </g>
     </g>
    </g>
    <g id="ytick_24">
     <g id="line2d_42">
      <g>
       <use xlink:href="#m25610ea3c9" x="54.18" y="129.401956" style="stroke: #000000; stroke-width: 0.6"/>
      </g>
     </g>
    </g>
    <g id="ytick_25">
     <g id="line2d_43">
      <g>
       <use xlink:href="#m25610ea3c9" x="54.18" y="120.306724" style="stroke: #000000; stroke-width: 0.6"/>
      </g>
     </g>
    </g>
    <g id="ytick_26">
     <g id="line2d_44">
      <g>
       <use xlink:href="#m25610ea3c9" x="54.18" y="111.211493" style="stroke: #000000; stroke-width: 0.6"/>
      </g>
     </g>
    </g>
    <g id="ytick_27">
     <g id="line2d_45">
      <g>
       <use xlink:href="#m25610ea3c9" x="54.18" y="93.02103" style="stroke: #000000; stroke-width: 0.6"/>
      </g>
     </g>
    </g>
    <g id="ytick_28">
     <g id="line2d_46">
      <g>
       <use xlink:href="#m25610ea3c9" x="54.18" y="83.925798" style="stroke: #000000; stroke-width: 0.6"/>
      </g>
     </g>
    </g>
    <g id="ytick_29">
     <g id="line2d_47">
      <g>
       <use xlink:href="#m25610ea3c9" x="54.18" y="74.830567" style="stroke: #000000; stroke-width: 0.6"/>
      </g>
     </g>
    </g>
    <g id="ytick_30">
     <g id="line2d_48">
      <g>
       <use xlink:href="#m25610ea3c9" x="54.18" y="56.640104" style="stroke: #000000; stroke-width: 0.6"/>
      </g>
     </g>
    </g>
    <g id="ytick_31">
     <g id="line2d_49">
      <g>
       <use xlink:href="#m25610ea3c9" x="54.18" y="47.544872" style="stroke: #000000; stroke-width: 0.6"/>
      </g>
     </g>
    </g>
    <g id="ytick_32">
     <g id="line2d_50">
      <g>
       <use xlink:href="#m25610ea3c9" x="54.18" y="38.449641" style="stroke: #000000; stroke-width: 0.6"/>
      </g>
     </g>
    </g>
    <g id="text_12">
     <!-- Slots in 1e7 -->
     <g transform="translate(7.2 19.3575)scale(0.16 -0.16)">
      <defs>
       <path id="DejaVuSans-53" d="M 3425 4513 
L 3425 3897 
Q 3066 4069 2747 4153 
Q 2428 4238 2131 4238 
Q 1616 4238 1336 4038 
Q 1056 3838 1056 3469 
Q 1056 3159 1242 3001 
Q 1428 2844 1947 2747 
L 2328 2669 
Q 3034 2534 3370 2195 
Q 3706 1856 3706 1288 
Q 3706 609 3251 259 
Q 2797 -91 1919 -91 
Q 1588 -91 1214 -16 
Q 841 59 441 206 
L 441 856 
Q 825 641 1194 531 
Q 1563 422 1919 422 
Q 2459 422 2753 634 
Q 3047 847 3047 1241 
Q 3047 1584 2836 1778 
Q 2625 1972 2144 2069 
L 1759 2144 
Q 1053 2284 737 2584 
Q 422 2884 422 3419 
Q 422 4038 858 4394 
Q 1294 4750 2059 4750 
Q 2388 4750 2728 4690 
Q 3069 4631 3425 4513 
z
" transform="scale(0.015625)"/>
       <path id="DejaVuSans-6c" d="M 603 4863 
L 1178 4863 
L 1178 0 
L 603 0 
L 603 4863 
z
" transform="scale(0.015625)"/>
       <path id="DejaVuSans-6f" d="M 1959 3097 
Q 1497 3097 1228 2736 
Q 959 2375 959 1747 
Q 959 1119 1226 758 
Q 1494 397 1959 397 
Q 2419 397 2687 759 
Q 2956 1122 2956 1747 
Q 2956 2369 2687 2733 
Q 2419 3097 1959 3097 
z
M 1959 3584 
Q 2709 3584 3137 3096 
Q 3566 2609 3566 1747 
Q 3566 888 3137 398 
Q 2709 -91 1959 -91 
Q 1206 -91 779 398 
Q 353 888 353 1747 
Q 353 2609 779 3096 
Q 1206 3584 1959 3584 
z
" transform="scale(0.015625)"/>
       <path id="DejaVuSans-74" d="M 1172 4494 
L 1172 3500 
L 2356 3500 
L 2356 3053 
L 1172 3053 
L 1172 1153 
Q 1172 725 1289 603 
Q 1406 481 1766 481 
L 2356 481 
L 2356 0 
L 1766 0 
Q 1100 0 847 248 
Q 594 497 594 1153 
L 594 3053 
L 172 3053 
L 172 3500 
L 594 3500 
L 594 4494 
L 1172 4494 
z
" transform="scale(0.015625)"/>
       <path id="DejaVuSans-73" d="M 2834 3397 
L 2834 2853 
Q 2591 2978 2328 3040 
Q 2066 3103 1784 3103 
Q 1356 3103 1142 2972 
Q 928 2841 928 2578 
Q 928 2378 1081 2264 
Q 1234 2150 1697 2047 
L 1894 2003 
Q 2506 1872 2764 1633 
Q 3022 1394 3022 966 
Q 3022 478 2636 193 
Q 2250 -91 1575 -91 
Q 1294 -91 989 -36 
Q 684 19 347 128 
L 347 722 
Q 666 556 975 473 
Q 1284 391 1588 391 
Q 1994 391 2212 530 
Q 2431 669 2431 922 
Q 2431 1156 2273 1281 
Q 2116 1406 1581 1522 
L 1381 1569 
Q 847 1681 609 1914 
Q 372 2147 372 2553 
Q 372 3047 722 3315 
Q 1072 3584 1716 3584 
Q 2034 3584 2315 3537 
Q 2597 3491 2834 3397 
z
" transform="scale(0.015625)"/>
       <path id="DejaVuSans-37" d="M 525 4666 
L 3525 4666 
L 3525 4397 
L 1831 0 
L 1172 0 
L 2766 4134 
L 525 4134 
L 525 4666 
z
" transform="scale(0.015625)"/>
      </defs>
      <use xlink:href="#DejaVuSans-53"/>
      <use xlink:href="#DejaVuSans-6c" x="63.476562"/>
      <use xlink:href="#DejaVuSans-6f" x="91.259766"/>
      <use xlink:href="#DejaVuSans-74" x="152.441406"/>
      <use xlink:href="#DejaVuSans-73" x="191.650391"/>
      <use xlink:href="#DejaVuSans-20" x="243.75"/>
      <use xlink:href="#DejaVuSans-69" x="275.537109"/>
      <use xlink:href="#DejaVuSans-6e" x="303.320312"/>
      <use xlink:href="#DejaVuSans-20" x="366.699219"/>
      <use xlink:href="#DejaVuSans-31" x="398.486328"/>
      <use xlink:href="#DejaVuSans-65" x="462.109375"/>
      <use xlink:href="#DejaVuSans-37" x="523.632812"/>
     </g>
    </g>
   </g>
   <g id="line2d_51">
    <path d="M 54.18 238.675705 
L 394.09605 238.675705 
" clip-path="url(#pc395a1a3ae)" style="fill: none; stroke-dasharray: 3.7,1.6; stroke-dashoffset: 0; stroke: #0000ff"/>
   </g>
   <g id="line2d_52">
    <path d="M 54.18 320.401817 
L 54.366498 320.295002 
L 56.844945 319.007263 
L 64.805607 314.233012 
L 65.757626 313.839243 
L 67.275706 313.205433 
L 73.033882 310.458164 
L 74.504588 309.754357 
L 74.807856 309.635009 
L 75.801297 309.090496 
L 78.535027 307.610356 
L 79.917836 307.128418 
L 80.57214 306.852032 
L 83.340391 305.354757 
L 84.73145 304.687985 
L 86.243137 304.083025 
L 86.676134 304.01401 
L 87.759992 303.81166 
L 91.192249 302.371757 
L 93.914501 301.362587 
L 95.088323 301.161691 
L 98.945931 299.430541 
L 100.199123 298.870857 
L 100.755073 298.712364 
L 102.020908 298.485365 
L 107.358891 296.09663 
L 108.366535 295.906612 
L 113.269184 293.601844 
L 114.703592 293.351798 
L 116.708444 292.403056 
L 119.283852 291.342279 
L 120.451819 291.142784 
L 124.48216 289.326921 
L 126.022261 289.030308 
L 128.185801 288.043348 
L 131.696943 286.599625 
L 132.996701 286.379302 
L 134.250579 285.908679 
L 135.862723 285.110609 
L 137.288396 284.287617 
L 138.550114 283.82809 
L 143.391802 281.027814 
L 145.082973 280.264797 
L 146.428702 279.494612 
L 147.173633 279.118106 
L 149.896873 277.85094 
L 151.592802 277.244798 
L 154.746245 275.825105 
L 156.561058 274.99089 
L 157.727541 274.532854 
L 159.931102 273.36208 
L 160.674796 273.03205 
L 162.532004 272.161054 
L 164.30383 271.488335 
L 167.169518 270.086814 
L 172.938345 267.549918 
L 174.427925 266.758723 
L 175.032787 266.578074 
L 175.949453 266.247317 
L 177.725148 265.28757 
L 178.459524 264.96478 
L 180.279593 264.247275 
L 181.576885 263.967306 
L 185.352095 262.33091 
L 186.661414 262.089213 
L 188.864602 261.054831 
L 189.858044 260.606109 
L 190.785221 260.269603 
L 192.170798 260.0529 
L 196.169618 258.429802 
L 197.424699 258.130514 
L 200.287316 256.856963 
L 200.762859 256.737124 
L 202.017649 256.457955 
L 205.480289 254.926955 
L 206.908552 254.626776 
L 209.689726 253.36383 
L 210.510828 253.162953 
L 211.986929 252.834815 
L 215.270058 251.528813 
L 216.785387 251.231453 
L 219.569054 250.07936 
L 221.30803 249.748676 
L 223.079996 249.077957 
L 224.343883 248.576574 
L 225.122041 248.348338 
L 226.525542 248.129179 
L 230.165378 246.615951 
L 231.128027 246.498622 
L 232.251867 246.199153 
L 235.189448 245.139395 
L 236.763164 244.860498 
L 240.223338 243.758957 
L 241.133966 243.553368 
L 245.069591 242.503033 
L 246.115215 242.259972 
L 249.860332 241.050415 
L 251.096043 240.865454 
L 254.81355 239.77379 
L 256.026502 239.583081 
L 258.584578 238.712122 
L 258.670948 238.68249 
L 259.16987 238.598766 
L 259.951713 237.895683 
L 260.437901 237.702719 
L 260.827609 237.375174 
L 262.168822 234.599207 
L 262.826552 233.655413 
L 263.388696 232.623548 
L 264.868111 229.48095 
L 266.17096 228.723193 
L 267.166614 227.023622 
L 268.911375 223.58836 
L 269.776862 222.088742 
L 270.641281 220.360585 
L 271.813689 219.439736 
L 272.560745 218.0615 
L 273.947779 215.162185 
L 275.031918 213.022259 
L 276.113866 211.067517 
L 276.417015 210.654004 
L 277.330082 210.01523 
L 277.503102 209.707253 
L 278.931203 207.13599 
L 279.450348 206.275393 
L 281.278587 202.566679 
L 282.703839 201.751404 
L 283.525453 200.348602 
L 286.558382 194.481197 
L 286.730597 194.380472 
L 287.562372 193.119054 
L 288.097176 192.970014 
L 289.143523 192.379023 
L 289.489951 191.852626 
L 290.565678 190.582685 
L 290.72461 190.473128 
L 291.589358 188.580234 
L 292.454451 186.633631 
L 292.765138 186.194785 
L 293.760134 184.268765 
L 294.020338 183.87111 
L 294.583675 183.509858 
L 295.413242 182.688745 
L 296.192349 181.061783 
L 297.551072 178.578615 
L 298.675749 176.10846 
L 299.77423 174.627483 
L 300.947323 174.088357 
L 301.984961 171.8092 
L 302.763798 170.298276 
L 304.032099 167.910366 
L 305.595994 164.799074 
L 306.460948 163.257957 
L 306.678369 163.058028 
L 307.666706 162.540933 
L 308.013528 162.202837 
L 308.964592 160.062193 
L 309.657707 159.06056 
L 310.572981 157.340443 
L 311.835238 154.60438 
L 312.746897 153.610131 
L 313.831316 153.134647 
L 316.187312 148.171057 
L 316.835734 146.89482 
L 318.436304 143.57384 
L 319.329822 143.076512 
L 319.762636 142.686093 
L 320.292433 141.588335 
L 322.076135 137.90556 
L 322.639051 137.039521 
L 324.281853 133.26072 
L 324.732694 132.823829 
L 325.916115 132.131136 
L 326.957196 130.335751 
L 327.519701 129.257562 
L 327.823109 128.665879 
L 328.299094 127.78199 
L 329.351048 126.269693 
L 331.051148 122.558084 
L 331.452461 122.140836 
L 332.282828 121.683535 
L 332.716877 121.363226 
L 333.257821 120.319697 
L 335.091628 116.677196 
L 335.394858 116.253343 
L 336.130443 115.045435 
L 337.836667 111.858145 
L 338.182124 111.714374 
L 338.895548 111.396935 
L 339.459937 110.885072 
L 340.031718 109.979389 
L 341.813073 106.502664 
L 342.602389 105.573553 
L 343.683862 103.734726 
L 343.900717 103.466654 
L 345.117267 102.615606 
L 345.768257 101.308346 
L 345.941525 101.134629 
L 347.63787 98.420498 
L 348.849111 95.886392 
L 349.89937 94.42011 
L 350.37031 94.263116 
L 351.238128 93.530272 
L 352.621795 90.633492 
L 352.931835 90.275964 
L 353.798746 89.074154 
L 353.988299 88.928812 
L 354.464003 87.913498 
L 355.942436 85.070303 
L 356.737142 84.068372 
L 358.238932 83.141426 
L 360.451396 79.007558 
L 361.653054 77.021608 
L 362.388827 75.651177 
L 363.281817 74.21906 
L 363.713152 73.912221 
L 364.668371 73.416068 
L 365.426116 72.2755 
L 367.249293 69.08346 
L 369.690287 66.179902 
L 370.296838 65.415886 
L 371.592771 64.562019 
L 372.383198 63.460093 
L 373.68929 61.900656 
L 376.084076 58.057596 
L 376.260279 57.885152 
L 376.653175 57.552524 
L 377.607811 57.132455 
L 379.308564 54.612377 
L 380.303743 53.037478 
L 380.640648 52.7166 
L 382.127082 50.796307 
L 382.948713 49.702199 
L 384.016028 49.053776 
L 384.802392 47.864485 
L 386.397351 45.978653 
L 387.348717 44.207487 
L 387.781115 43.401032 
L 388.484865 42.363267 
L 389.81097 41.12185 
L 390.455222 40.980281 
L 390.921489 40.761006 
L 392.608138 38.096526 
L 393.127181 37.351572 
L 393.474434 36.942327 
L 394.09605 36.365722 
L 394.09605 36.365722 
" clip-path="url(#pc395a1a3ae)" style="fill: none; stroke: #ff0000; stroke-linecap: square"/>
   </g>
   <g id="line2d_53">
    <path d="M 54.18 238.675705 
L 394.084719 238.675705 
" clip-path="url(#pc395a1a3ae)" style="fill: none; stroke-dasharray: 3.7,1.6; stroke-dashoffset: 0; stroke: #0000ff"/>
   </g>
   <g id="line2d_54">
    <path d="M 54.18 320.401817 
L 54.320241 320.299295 
L 55.443245 319.684985 
L 57.211391 318.987799 
L 59.242827 318.095466 
L 66.087915 315.099933 
L 68.734747 314.161669 
L 70.124047 313.820598 
L 73.496259 312.646022 
L 76.100815 311.69708 
L 77.746472 311.303274 
L 83.81009 309.142848 
L 85.115217 308.76083 
L 88.938546 307.3779 
L 90.118648 307.153193 
L 91.030452 306.854105 
L 93.112198 306.149316 
L 94.245298 305.764515 
L 96.502756 305.218601 
L 97.626414 304.955167 
L 108.076044 301.383451 
L 108.945077 301.16773 
L 110.301813 300.754698 
L 112.334804 300.092219 
L 114.47402 299.43256 
L 116.733216 298.843098 
L 119.887365 297.678418 
L 120.536429 297.569766 
L 121.578034 297.340566 
L 125.325266 296.428187 
L 126.363298 296.276024 
L 128.398118 295.668171 
L 132.394726 294.633807 
L 134.869228 293.725375 
L 135.898821 293.54891 
L 136.720403 293.292042 
L 140.35425 292.063404 
L 141.92366 291.715075 
L 143.09154 291.334475 
L 144.694145 290.760257 
L 145.472049 290.55496 
L 147.506123 290.021997 
L 160.997791 285.677896 
L 163.381083 285.108135 
L 165.370125 284.448712 
L 166.899709 284.167251 
L 167.765062 283.950148 
L 175.018111 281.689437 
L 176.704328 281.165588 
L 178.045061 280.806836 
L 181.373978 279.662274 
L 182.6776 279.327606 
L 185.812416 278.289494 
L 186.952886 278.125944 
L 187.952474 277.844719 
L 190.595523 276.989331 
L 193.290494 276.307752 
L 196.242179 275.459622 
L 197.201882 275.239918 
L 200.883972 273.967131 
L 202.186471 273.694147 
L 206.035742 272.592678 
L 207.564797 272.258883 
L 211.867419 271.017657 
L 212.948687 270.72308 
L 216.116542 269.714128 
L 218.240704 269.394722 
L 223.790685 267.749194 
L 225.30999 267.204954 
L 227.153909 266.866175 
L 229.800459 266.195419 
L 231.214699 265.938133 
L 232.65569 265.414103 
L 234.479455 264.879558 
L 236.092695 264.542434 
L 239.421536 263.489133 
L 240.719114 263.16618 
L 244.538315 261.938815 
L 245.965418 261.565947 
L 248.301385 260.68702 
L 249.772128 260.332087 
L 250.962784 260.012936 
L 254.449754 258.971605 
L 255.230976 258.725015 
L 256.787155 258.157072 
L 258.538186 257.689322 
L 260.094468 257.265212 
L 262.904687 256.199742 
L 265.544288 255.501501 
L 267.846537 254.689606 
L 269.279656 254.456477 
L 270.879622 253.902341 
L 272.9976 253.24843 
L 274.615054 252.872361 
L 277.485069 251.987085 
L 279.25785 251.572634 
L 280.901144 250.998979 
L 283.935168 250.243657 
L 286.52843 249.416245 
L 288.561863 248.979274 
L 289.512651 248.698377 
L 291.458446 248.128852 
L 293.240028 247.798749 
L 294.62492 247.395048 
L 299.177855 246.089537 
L 301.837468 245.443321 
L 302.75115 245.151782 
L 305.445162 244.289463 
L 307.7594 243.792009 
L 309.142619 243.362914 
L 312.775672 242.517349 
L 314.95602 241.921393 
L 316.569719 241.591709 
L 318.688269 240.906237 
L 319.995651 240.537371 
L 321.034417 240.396413 
L 322.353902 240.174562 
L 325.992394 239.198571 
L 327.216321 239.037004 
L 328.693302 238.680944 
L 329.204343 238.572747 
L 329.766838 237.781825 
L 331.30246 235.622617 
L 332.456975 234.333641 
L 332.629779 233.949095 
L 333.06514 233.108332 
L 334.337201 232.47021 
L 335.824116 231.69275 
L 336.580852 231.292923 
L 336.981367 231.026979 
L 337.286442 230.839253 
L 337.374107 230.74248 
L 338.19605 228.738982 
L 339.104569 226.418243 
L 339.71078 225.542918 
L 339.972716 225.26897 
L 340.497047 225.02449 
L 342.289344 224.090228 
L 343.028328 223.574346 
L 343.766687 222.856914 
L 346.455065 217.339019 
L 347.896639 216.637595 
L 348.423565 216.393479 
L 349.341639 215.984557 
L 350.12741 215.498872 
L 350.574744 215.024847 
L 351.61412 212.767647 
L 352.868257 209.584316 
L 354.004669 209.028488 
L 354.313414 208.86923 
L 354.750479 208.608488 
L 356.017393 207.945155 
L 357.017386 206.869225 
L 358.843638 203.142745 
L 359.50814 202.092865 
L 359.767745 201.664479 
L 360.729487 201.262015 
L 363.437095 199.541197 
L 363.654614 199.230868 
L 364.563278 197.356577 
L 365.269602 195.70703 
L 366.097092 193.847419 
L 366.983213 193.45516 
L 369.142625 192.443952 
L 370.140152 191.465232 
L 371.715529 187.876454 
L 372.494922 186.0215 
L 373.374206 185.605029 
L 374.247987 185.107192 
L 376.195271 183.667254 
L 376.97454 182.197773 
L 379.226975 178.582292 
L 379.531052 178.125074 
L 380.232811 177.872336 
L 381.924445 177.043961 
L 383.188964 176.188026 
L 383.6225 175.803407 
L 386.17803 170.193687 
L 388.074913 169.325074 
L 390.046894 168.069568 
L 390.263252 167.775847 
L 391.952285 164.03245 
L 393.339034 162.201452 
L 394.084719 161.862073 
L 394.084719 161.862073 
" clip-path="url(#pc395a1a3ae)" style="fill: none; stroke: #0000ff; stroke-linecap: square"/>
   </g>
   <g id="patch_3">
    <path d="M 54.18 326.082538 
L 54.18 30.685 
" style="fill: none; stroke: #000000; stroke-width: 0.8; stroke-linejoin: miter; stroke-linecap: square"/>
   </g>
   <g id="patch_4">
    <path d="M 47.381679 320.401817 
L 400.894371 320.401817 
" style="fill: none; stroke: #000000; stroke-width: 0.8; stroke-linejoin: miter; stroke-linecap: square"/>
   </g>
  </g>
 </g>
 <defs>
  <clipPath id="pc395a1a3ae">
   <rect x="47.381679" y="30.685" width="353.512692" height="295.397538"/>
  </clipPath>
 </defs>
</svg>
