<?xml version="1.0" encoding="utf-8" standalone="no"?>
<!DOCTYPE svg PUBLIC "-//W3C//DTD SVG 1.1//EN"
  "http://www.w3.org/Graphics/SVG/1.1/DTD/svg11.dtd">
<svg xmlns:xlink="http://www.w3.org/1999/xlink" width="748.743531pt" height="334.08pt" viewBox="0 0 748.743531 334.08" xmlns="http://www.w3.org/2000/svg" version="1.1">
 <metadata>
  <rdf:RDF xmlns:dc="http://purl.org/dc/elements/1.1/" xmlns:cc="http://creativecommons.org/ns#" xmlns:rdf="http://www.w3.org/1999/02/22-rdf-syntax-ns#">
   <cc:Work>
    <dc:type rdf:resource="http://purl.org/dc/dcmitype/StillImage"/>
    <dc:date>1980-01-01T00:00:00+00:00</dc:date>
    <dc:format>image/svg+xml</dc:format>
    <dc:creator>
     <cc:Agent>
      <dc:title>Matplotlib v3.5.3, https://matplotlib.org/</dc:title>
     </cc:Agent>
    </dc:creator>
   </cc:Work>
  </rdf:RDF>
 </metadata>
 <defs>
  <style type="text/css">*{stroke-linejoin: round; stroke-linecap: butt}</style>
 </defs>
 <g id="figure_1">
  <g id="patch_1">
   <path d="M 0 334.08 
L 748.743531 334.08 
L 748.743531 0 
L 0 0 
z
" style="fill: #ffffff"/>
  </g>
  <g id="axes_1">
   <g id="patch_2">
    <path d="M 49.807187 291.120312 
L 131.577882 291.120312 
L 131.577882 18.558281 
L 49.807187 18.558281 
z
" style="fill: #eaeaf2"/>
   </g>
   <g id="matplotlib.axis_1">
    <g id="xtick_1">
     <g id="line2d_1">
      <path d="M 53.468455 291.120312 
L 53.468455 18.558281 
" clip-path="url(#p89cd620f2e)" style="fill: none; stroke: #ffffff; stroke-linecap: round"/>
     </g>
     <g id="text_1">
      <!-- 1.10 -->
      <g style="fill: #262626" transform="translate(41.222361 308.978594)scale(0.11 -0.11)">
       <defs>
        <path id="DejaVuSans-31" d="M 794 531 
L 1825 531 
L 1825 4091 
L 703 3866 
L 703 4441 
L 1819 4666 
L 2450 4666 
L 2450 531 
L 3481 531 
L 3481 0 
L 794 0 
L 794 531 
z
" transform="scale(0.015625)"/>
        <path id="DejaVuSans-2e" d="M 684 794 
L 1344 794 
L 1344 0 
L 684 0 
L 684 794 
z
" transform="scale(0.015625)"/>
        <path id="DejaVuSans-30" d="M 2034 4250 
Q 1547 4250 1301 3770 
Q 1056 3291 1056 2328 
Q 1056 1369 1301 889 
Q 1547 409 2034 409 
Q 2525 409 2770 889 
Q 3016 1369 3016 2328 
Q 3016 3291 2770 3770 
Q 2525 4250 2034 4250 
z
M 2034 4750 
Q 2819 4750 3233 4129 
Q 3647 3509 3647 2328 
Q 3647 1150 3233 529 
Q 2819 -91 2034 -91 
Q 1250 -91 836 529 
Q 422 1150 422 2328 
Q 422 3509 836 4129 
Q 1250 4750 2034 4750 
z
" transform="scale(0.015625)"/>
       </defs>
       <use xlink:href="#DejaVuSans-31"/>
       <use xlink:href="#DejaVuSans-2e" x="63.623047"/>
       <use xlink:href="#DejaVuSans-31" x="95.410156"/>
       <use xlink:href="#DejaVuSans-30" x="159.033203"/>
      </g>
     </g>
    </g>
    <g id="xtick_2">
     <g id="line2d_2">
      <path d="M 98.132899 291.120312 
L 98.132899 18.558281 
" clip-path="url(#p89cd620f2e)" style="fill: none; stroke: #ffffff; stroke-linecap: round"/>
     </g>
     <g id="text_2">
      <!-- 1.15 -->
      <g style="fill: #262626" transform="translate(85.886806 308.978594)scale(0.11 -0.11)">
       <defs>
        <path id="DejaVuSans-35" d="M 691 4666 
L 3169 4666 
L 3169 4134 
L 1269 4134 
L 1269 2991 
Q 1406 3038 1543 3061 
Q 1681 3084 1819 3084 
Q 2600 3084 3056 2656 
Q 3513 2228 3513 1497 
Q 3513 744 3044 326 
Q 2575 -91 1722 -91 
Q 1428 -91 1123 -41 
Q 819 9 494 109 
L 494 744 
Q 775 591 1075 516 
Q 1375 441 1709 441 
Q 2250 441 2565 725 
Q 2881 1009 2881 1497 
Q 2881 1984 2565 2268 
Q 2250 2553 1709 2553 
Q 1456 2553 1204 2497 
Q 953 2441 691 2322 
L 691 4666 
z
" transform="scale(0.015625)"/>
       </defs>
       <use xlink:href="#DejaVuSans-31"/>
       <use xlink:href="#DejaVuSans-2e" x="63.623047"/>
       <use xlink:href="#DejaVuSans-31" x="95.410156"/>
       <use xlink:href="#DejaVuSans-35" x="159.033203"/>
      </g>
     </g>
    </g>
    <g id="text_3">
     <!-- Time in h -->
     <g style="fill: #262626" transform="translate(62.926597 324.384375)scale(0.12 -0.12)">
      <defs>
       <path id="DejaVuSans-54" d="M -19 4666 
L 3928 4666 
L 3928 4134 
L 2272 4134 
L 2272 0 
L 1638 0 
L 1638 4134 
L -19 4134 
L -19 4666 
z
" transform="scale(0.015625)"/>
       <path id="DejaVuSans-69" d="M 603 3500 
L 1178 3500 
L 1178 0 
L 603 0 
L 603 3500 
z
M 603 4863 
L 1178 4863 
L 1178 4134 
L 603 4134 
L 603 4863 
z
" transform="scale(0.015625)"/>
       <path id="DejaVuSans-6d" d="M 3328 2828 
Q 3544 3216 3844 3400 
Q 4144 3584 4550 3584 
Q 5097 3584 5394 3201 
Q 5691 2819 5691 2113 
L 5691 0 
L 5113 0 
L 5113 2094 
Q 5113 2597 4934 2840 
Q 4756 3084 4391 3084 
Q 3944 3084 3684 2787 
Q 3425 2491 3425 1978 
L 3425 0 
L 2847 0 
L 2847 2094 
Q 2847 2600 2669 2842 
Q 2491 3084 2119 3084 
Q 1678 3084 1418 2786 
Q 1159 2488 1159 1978 
L 1159 0 
L 581 0 
L 581 3500 
L 1159 3500 
L 1159 2956 
Q 1356 3278 1631 3431 
Q 1906 3584 2284 3584 
Q 2666 3584 2933 3390 
Q 3200 3197 3328 2828 
z
" transform="scale(0.015625)"/>
       <path id="DejaVuSans-65" d="M 3597 1894 
L 3597 1613 
L 953 1613 
Q 991 1019 1311 708 
Q 1631 397 2203 397 
Q 2534 397 2845 478 
Q 3156 559 3463 722 
L 3463 178 
Q 3153 47 2828 -22 
Q 2503 -91 2169 -91 
Q 1331 -91 842 396 
Q 353 884 353 1716 
Q 353 2575 817 3079 
Q 1281 3584 2069 3584 
Q 2775 3584 3186 3129 
Q 3597 2675 3597 1894 
z
M 3022 2063 
Q 3016 2534 2758 2815 
Q 2500 3097 2075 3097 
Q 1594 3097 1305 2825 
Q 1016 2553 972 2059 
L 3022 2063 
z
" transform="scale(0.015625)"/>
       <path id="DejaVuSans-20" transform="scale(0.015625)"/>
       <path id="DejaVuSans-6e" d="M 3513 2113 
L 3513 0 
L 2938 0 
L 2938 2094 
Q 2938 2591 2744 2837 
Q 2550 3084 2163 3084 
Q 1697 3084 1428 2787 
Q 1159 2491 1159 1978 
L 1159 0 
L 581 0 
L 581 3500 
L 1159 3500 
L 1159 2956 
Q 1366 3272 1645 3428 
Q 1925 3584 2291 3584 
Q 2894 3584 3203 3211 
Q 3513 2838 3513 2113 
z
" transform="scale(0.015625)"/>
       <path id="DejaVuSans-68" d="M 3513 2113 
L 3513 0 
L 2938 0 
L 2938 2094 
Q 2938 2591 2744 2837 
Q 2550 3084 2163 3084 
Q 1697 3084 1428 2787 
Q 1159 2491 1159 1978 
L 1159 0 
L 581 0 
L 581 4863 
L 1159 4863 
L 1159 2956 
Q 1366 3272 1645 3428 
Q 1925 3584 2291 3584 
Q 2894 3584 3203 3211 
Q 3513 2838 3513 2113 
z
" transform="scale(0.015625)"/>
      </defs>
      <use xlink:href="#DejaVuSans-54"/>
      <use xlink:href="#DejaVuSans-69" x="57.958984"/>
      <use xlink:href="#DejaVuSans-6d" x="85.742188"/>
      <use xlink:href="#DejaVuSans-65" x="183.154297"/>
      <use xlink:href="#DejaVuSans-20" x="244.677734"/>
      <use xlink:href="#DejaVuSans-69" x="276.464844"/>
      <use xlink:href="#DejaVuSans-6e" x="304.248047"/>
      <use xlink:href="#DejaVuSans-20" x="367.626953"/>
      <use xlink:href="#DejaVuSans-68" x="399.414062"/>
     </g>
    </g>
   </g>
   <g id="matplotlib.axis_2">
    <g id="ytick_1">
     <g id="line2d_3">
      <path d="M 49.807187 274.983959 
L 131.577882 274.983959 
" clip-path="url(#p89cd620f2e)" style="fill: none; stroke: #ffffff; stroke-linecap: round"/>
     </g>
     <g id="text_4">
      <!-- 0.8 -->
      <g style="fill: #262626" transform="translate(22.81375 279.163099)scale(0.11 -0.11)">
       <defs>
        <path id="DejaVuSans-38" d="M 2034 2216 
Q 1584 2216 1326 1975 
Q 1069 1734 1069 1313 
Q 1069 891 1326 650 
Q 1584 409 2034 409 
Q 2484 409 2743 651 
Q 3003 894 3003 1313 
Q 3003 1734 2745 1975 
Q 2488 2216 2034 2216 
z
M 1403 2484 
Q 997 2584 770 2862 
Q 544 3141 544 3541 
Q 544 4100 942 4425 
Q 1341 4750 2034 4750 
Q 2731 4750 3128 4425 
Q 3525 4100 3525 3541 
Q 3525 3141 3298 2862 
Q 3072 2584 2669 2484 
Q 3125 2378 3379 2068 
Q 3634 1759 3634 1313 
Q 3634 634 3220 271 
Q 2806 -91 2034 -91 
Q 1263 -91 848 271 
Q 434 634 434 1313 
Q 434 1759 690 2068 
Q 947 2378 1403 2484 
z
M 1172 3481 
Q 1172 3119 1398 2916 
Q 1625 2713 2034 2713 
Q 2441 2713 2670 2916 
Q 2900 3119 2900 3481 
Q 2900 3844 2670 4047 
Q 2441 4250 2034 4250 
Q 1625 4250 1398 4047 
Q 1172 3844 1172 3481 
z
" transform="scale(0.015625)"/>
       </defs>
       <use xlink:href="#DejaVuSans-30"/>
       <use xlink:href="#DejaVuSans-2e" x="63.623047"/>
       <use xlink:href="#DejaVuSans-38" x="95.410156"/>
      </g>
     </g>
    </g>
    <g id="ytick_2">
     <g id="line2d_4">
      <path d="M 49.807187 232.411666 
L 131.577882 232.411666 
" clip-path="url(#p89cd620f2e)" style="fill: none; stroke: #ffffff; stroke-linecap: round"/>
     </g>
     <g id="text_5">
      <!-- 1.0 -->
      <g style="fill: #262626" transform="translate(22.81375 236.590806)scale(0.11 -0.11)">
       <use xlink:href="#DejaVuSans-31"/>
       <use xlink:href="#DejaVuSans-2e" x="63.623047"/>
       <use xlink:href="#DejaVuSans-30" x="95.410156"/>
      </g>
     </g>
    </g>
    <g id="ytick_3">
     <g id="line2d_5">
      <path d="M 49.807187 189.839373 
L 131.577882 189.839373 
" clip-path="url(#p89cd620f2e)" style="fill: none; stroke: #ffffff; stroke-linecap: round"/>
     </g>
     <g id="text_6">
      <!-- 1.2 -->
      <g style="fill: #262626" transform="translate(22.81375 194.018514)scale(0.11 -0.11)">
       <defs>
        <path id="DejaVuSans-32" d="M 1228 531 
L 3431 531 
L 3431 0 
L 469 0 
L 469 531 
Q 828 903 1448 1529 
Q 2069 2156 2228 2338 
Q 2531 2678 2651 2914 
Q 2772 3150 2772 3378 
Q 2772 3750 2511 3984 
Q 2250 4219 1831 4219 
Q 1534 4219 1204 4116 
Q 875 4013 500 3803 
L 500 4441 
Q 881 4594 1212 4672 
Q 1544 4750 1819 4750 
Q 2544 4750 2975 4387 
Q 3406 4025 3406 3419 
Q 3406 3131 3298 2873 
Q 3191 2616 2906 2266 
Q 2828 2175 2409 1742 
Q 1991 1309 1228 531 
z
" transform="scale(0.015625)"/>
       </defs>
       <use xlink:href="#DejaVuSans-31"/>
       <use xlink:href="#DejaVuSans-2e" x="63.623047"/>
       <use xlink:href="#DejaVuSans-32" x="95.410156"/>
      </g>
     </g>
    </g>
    <g id="ytick_4">
     <g id="line2d_6">
      <path d="M 49.807187 147.26708 
L 131.577882 147.26708 
" clip-path="url(#p89cd620f2e)" style="fill: none; stroke: #ffffff; stroke-linecap: round"/>
     </g>
     <g id="text_7">
      <!-- 1.4 -->
      <g style="fill: #262626" transform="translate(22.81375 151.446221)scale(0.11 -0.11)">
       <defs>
        <path id="DejaVuSans-34" d="M 2419 4116 
L 825 1625 
L 2419 1625 
L 2419 4116 
z
M 2253 4666 
L 3047 4666 
L 3047 1625 
L 3713 1625 
L 3713 1100 
L 3047 1100 
L 3047 0 
L 2419 0 
L 2419 1100 
L 313 1100 
L 313 1709 
L 2253 4666 
z
" transform="scale(0.015625)"/>
       </defs>
       <use xlink:href="#DejaVuSans-31"/>
       <use xlink:href="#DejaVuSans-2e" x="63.623047"/>
       <use xlink:href="#DejaVuSans-34" x="95.410156"/>
      </g>
     </g>
    </g>
    <g id="ytick_5">
     <g id="line2d_7">
      <path d="M 49.807187 104.694787 
L 131.577882 104.694787 
" clip-path="url(#p89cd620f2e)" style="fill: none; stroke: #ffffff; stroke-linecap: round"/>
     </g>
     <g id="text_8">
      <!-- 1.6 -->
      <g style="fill: #262626" transform="translate(22.81375 108.873928)scale(0.11 -0.11)">
       <defs>
        <path id="DejaVuSans-36" d="M 2113 2584 
Q 1688 2584 1439 2293 
Q 1191 2003 1191 1497 
Q 1191 994 1439 701 
Q 1688 409 2113 409 
Q 2538 409 2786 701 
Q 3034 994 3034 1497 
Q 3034 2003 2786 2293 
Q 2538 2584 2113 2584 
z
M 3366 4563 
L 3366 3988 
Q 3128 4100 2886 4159 
Q 2644 4219 2406 4219 
Q 1781 4219 1451 3797 
Q 1122 3375 1075 2522 
Q 1259 2794 1537 2939 
Q 1816 3084 2150 3084 
Q 2853 3084 3261 2657 
Q 3669 2231 3669 1497 
Q 3669 778 3244 343 
Q 2819 -91 2113 -91 
Q 1303 -91 875 529 
Q 447 1150 447 2328 
Q 447 3434 972 4092 
Q 1497 4750 2381 4750 
Q 2619 4750 2861 4703 
Q 3103 4656 3366 4563 
z
" transform="scale(0.015625)"/>
       </defs>
       <use xlink:href="#DejaVuSans-31"/>
       <use xlink:href="#DejaVuSans-2e" x="63.623047"/>
       <use xlink:href="#DejaVuSans-36" x="95.410156"/>
      </g>
     </g>
    </g>
    <g id="ytick_6">
     <g id="line2d_8">
      <path d="M 49.807187 62.122495 
L 131.577882 62.122495 
" clip-path="url(#p89cd620f2e)" style="fill: none; stroke: #ffffff; stroke-linecap: round"/>
     </g>
     <g id="text_9">
      <!-- 1.8 -->
      <g style="fill: #262626" transform="translate(22.81375 66.301635)scale(0.11 -0.11)">
       <use xlink:href="#DejaVuSans-31"/>
       <use xlink:href="#DejaVuSans-2e" x="63.623047"/>
       <use xlink:href="#DejaVuSans-38" x="95.410156"/>
      </g>
     </g>
    </g>
    <g id="ytick_7">
     <g id="line2d_9">
      <path d="M 49.807187 19.550202 
L 131.577882 19.550202 
" clip-path="url(#p89cd620f2e)" style="fill: none; stroke: #ffffff; stroke-linecap: round"/>
     </g>
     <g id="text_10">
      <!-- 2.0 -->
      <g style="fill: #262626" transform="translate(22.81375 23.729342)scale(0.11 -0.11)">
       <use xlink:href="#DejaVuSans-32"/>
       <use xlink:href="#DejaVuSans-2e" x="63.623047"/>
       <use xlink:href="#DejaVuSans-30" x="95.410156"/>
      </g>
     </g>
    </g>
    <g id="text_11">
     <!-- Slot -->
     <g style="fill: #262626" transform="translate(16.318125 166.338672)rotate(-90)scale(0.12 -0.12)">
      <defs>
       <path id="DejaVuSans-53" d="M 3425 4513 
L 3425 3897 
Q 3066 4069 2747 4153 
Q 2428 4238 2131 4238 
Q 1616 4238 1336 4038 
Q 1056 3838 1056 3469 
Q 1056 3159 1242 3001 
Q 1428 2844 1947 2747 
L 2328 2669 
Q 3034 2534 3370 2195 
Q 3706 1856 3706 1288 
Q 3706 609 3251 259 
Q 2797 -91 1919 -91 
Q 1588 -91 1214 -16 
Q 841 59 441 206 
L 441 856 
Q 825 641 1194 531 
Q 1563 422 1919 422 
Q 2459 422 2753 634 
Q 3047 847 3047 1241 
Q 3047 1584 2836 1778 
Q 2625 1972 2144 2069 
L 1759 2144 
Q 1053 2284 737 2584 
Q 422 2884 422 3419 
Q 422 4038 858 4394 
Q 1294 4750 2059 4750 
Q 2388 4750 2728 4690 
Q 3069 4631 3425 4513 
z
" transform="scale(0.015625)"/>
       <path id="DejaVuSans-6c" d="M 603 4863 
L 1178 4863 
L 1178 0 
L 603 0 
L 603 4863 
z
" transform="scale(0.015625)"/>
       <path id="DejaVuSans-6f" d="M 1959 3097 
Q 1497 3097 1228 2736 
Q 959 2375 959 1747 
Q 959 1119 1226 758 
Q 1494 397 1959 397 
Q 2419 397 2687 759 
Q 2956 1122 2956 1747 
Q 2956 2369 2687 2733 
Q 2419 3097 1959 3097 
z
M 1959 3584 
Q 2709 3584 3137 3096 
Q 3566 2609 3566 1747 
Q 3566 888 3137 398 
Q 2709 -91 1959 -91 
Q 1206 -91 779 398 
Q 353 888 353 1747 
Q 353 2609 779 3096 
Q 1206 3584 1959 3584 
z
" transform="scale(0.015625)"/>
       <path id="DejaVuSans-74" d="M 1172 4494 
L 1172 3500 
L 2356 3500 
L 2356 3053 
L 1172 3053 
L 1172 1153 
Q 1172 725 1289 603 
Q 1406 481 1766 481 
L 2356 481 
L 2356 0 
L 1766 0 
Q 1100 0 847 248 
Q 594 497 594 1153 
L 594 3053 
L 172 3053 
L 172 3500 
L 594 3500 
L 594 4494 
L 1172 4494 
z
" transform="scale(0.015625)"/>
      </defs>
      <use xlink:href="#DejaVuSans-53"/>
      <use xlink:href="#DejaVuSans-6c" x="63.476562"/>
      <use xlink:href="#DejaVuSans-6f" x="91.259766"/>
      <use xlink:href="#DejaVuSans-74" x="152.441406"/>
     </g>
    </g>
    <g id="text_12">
     <!-- 1e7 -->
     <g style="fill: #262626" transform="translate(49.807187 15.558281)scale(0.11 -0.11)">
      <defs>
       <path id="DejaVuSans-37" d="M 525 4666 
L 3525 4666 
L 3525 4397 
L 1831 0 
L 1172 0 
L 2766 4134 
L 525 4134 
L 525 4666 
z
" transform="scale(0.015625)"/>
      </defs>
      <use xlink:href="#DejaVuSans-31"/>
      <use xlink:href="#DejaVuSans-65" x="63.623047"/>
      <use xlink:href="#DejaVuSans-37" x="125.146484"/>
     </g>
    </g>
   </g>
   <g id="line2d_10">
    <path d="M 53.543417 90.795956 
L 54.242415 89.736608 
L 54.61643 89.407929 
L 55.629321 87.855062 
L 57.616367 84.598068 
L 59.220938 82.964867 
L 63.300166 82.942794 
L 64.418018 81.056969 
L 65.66624 78.972438 
L 68.031024 75.504946 
L 69.277832 74.195571 
L 69.653212 73.781215 
L 71.449517 73.760972 
L 73.873555 73.742347 
L 75.615469 70.811457 
L 77.54661 67.823776 
L 78.043726 67.094406 
L 79.669387 65.622001 
L 80.864608 64.57336 
L 85.026714 64.54539 
L 85.399017 63.996101 
L 87.04041 61.312259 
L 88.159924 59.449146 
L 88.908302 58.208781 
L 89.788737 57.293966 
L 90.910386 56.359824 
L 92.217788 55.378277 
L 97.334597 55.252668 
L 98.334559 53.697268 
L 99.825682 51.325374 
L 100.323144 50.637214 
L 102.316171 49.151611 
L 105.400847 46.681567 
L 106.026968 46.182555 
L 110.965069 46.155607 
L 114.721597 40.431805 
L 118.47867 37.051671 
L 118.908466 36.986408 
L 123.691607 36.877125 
L 126.317429 32.554015 
L 127.315159 31.339023 
L 127.822125 30.947464 
L 127.822125 30.947464 
" clip-path="url(#p89cd620f2e)" style="fill: none; stroke: #4c72b0; stroke-width: 1.5; stroke-linecap: round"/>
   </g>
   <g id="line2d_11">
    <path d="M 53.58493 91.286367 
L 54.242539 90.693527 
L 54.639929 90.470512 
L 58.687818 86.218689 
L 59.286991 85.620868 
L 62.766649 83.303168 
L 65.548053 80.65647 
L 67.00136 79.28643 
L 67.995292 78.300413 
L 70.384071 76.045231 
L 70.981284 75.712018 
L 73.572269 73.855866 
L 74.007673 73.643898 
L 80.168041 67.915647 
L 81.364304 66.945318 
L 81.762264 66.736905 
L 84.548258 64.860447 
L 86.043599 63.649839 
L 87.434351 62.274052 
L 88.626842 61.13122 
L 92.205704 58.094326 
L 93.99655 57.155117 
L 100.242575 53.449369 
L 101.833671 52.265178 
L 105.414767 49.426905 
L 106.209968 48.767801 
L 111.189954 46.011819 
L 114.616784 43.293898 
L 117.003131 41.12203 
L 118.992684 39.50622 
L 119.589301 39.240845 
L 120.783554 38.564329 
L 123.191191 37.094244 
L 123.803913 36.848751 
L 125.593096 35.446696 
L 127.781704 33.732842 
L 127.781704 33.732842 
" clip-path="url(#p89cd620f2e)" style="fill: none; stroke-dasharray: 6,2.25; stroke-dashoffset: 0; stroke: #4c72b0; stroke-width: 1.5"/>
   </g>
   <g id="patch_3">
    <path d="M 49.807187 291.120312 
L 49.807187 18.558281 
" style="fill: none; stroke: #ffffff; stroke-width: 1.25; stroke-linejoin: miter; stroke-linecap: square"/>
   </g>
   <g id="patch_4">
    <path d="M 131.577882 291.120312 
L 131.577882 18.558281 
" style="fill: none; stroke: #ffffff; stroke-width: 1.25; stroke-linejoin: miter; stroke-linecap: square"/>
   </g>
   <g id="patch_5">
    <path d="M 49.807188 291.120312 
L 131.577882 291.120312 
" style="fill: none; stroke: #ffffff; stroke-width: 1.25; stroke-linejoin: miter; stroke-linecap: square"/>
   </g>
   <g id="patch_6">
    <path d="M 49.807188 18.558281 
L 131.577882 18.558281 
" style="fill: none; stroke: #ffffff; stroke-width: 1.25; stroke-linejoin: miter; stroke-linecap: square"/>
   </g>
  </g>
  <g id="axes_2">
   <g id="patch_7">
    <path d="M 153.307893 291.120312 
L 235.078588 291.120312 
L 235.078588 18.558281 
L 153.307893 18.558281 
z
" style="fill: #eaeaf2"/>
   </g>
   <g id="matplotlib.axis_3">
    <g id="xtick_3">
     <g id="line2d_12">
      <path d="M 156.969161 291.120312 
L 156.969161 18.558281 
" clip-path="url(#pcf0f80dea7)" style="fill: none; stroke: #ffffff; stroke-linecap: round"/>
     </g>
     <g id="text_13">
      <!-- 1.10 -->
      <g style="fill: #262626" transform="translate(144.723067 308.978594)scale(0.11 -0.11)">
       <use xlink:href="#DejaVuSans-31"/>
       <use xlink:href="#DejaVuSans-2e" x="63.623047"/>
       <use xlink:href="#DejaVuSans-31" x="95.410156"/>
       <use xlink:href="#DejaVuSans-30" x="159.033203"/>
      </g>
     </g>
    </g>
    <g id="xtick_4">
     <g id="line2d_13">
      <path d="M 201.633605 291.120312 
L 201.633605 18.558281 
" clip-path="url(#pcf0f80dea7)" style="fill: none; stroke: #ffffff; stroke-linecap: round"/>
     </g>
     <g id="text_14">
      <!-- 1.15 -->
      <g style="fill: #262626" transform="translate(189.387512 308.978594)scale(0.11 -0.11)">
       <use xlink:href="#DejaVuSans-31"/>
       <use xlink:href="#DejaVuSans-2e" x="63.623047"/>
       <use xlink:href="#DejaVuSans-31" x="95.410156"/>
       <use xlink:href="#DejaVuSans-35" x="159.033203"/>
      </g>
     </g>
    </g>
    <g id="text_15">
     <!-- Time in h -->
     <g style="fill: #262626" transform="translate(166.427303 324.384375)scale(0.12 -0.12)">
      <use xlink:href="#DejaVuSans-54"/>
      <use xlink:href="#DejaVuSans-69" x="57.958984"/>
      <use xlink:href="#DejaVuSans-6d" x="85.742188"/>
      <use xlink:href="#DejaVuSans-65" x="183.154297"/>
      <use xlink:href="#DejaVuSans-20" x="244.677734"/>
      <use xlink:href="#DejaVuSans-69" x="276.464844"/>
      <use xlink:href="#DejaVuSans-6e" x="304.248047"/>
      <use xlink:href="#DejaVuSans-20" x="367.626953"/>
      <use xlink:href="#DejaVuSans-68" x="399.414062"/>
     </g>
    </g>
   </g>
   <g id="matplotlib.axis_4">
    <g id="ytick_8">
     <g id="line2d_14">
      <path d="M 153.307893 274.983959 
L 235.078588 274.983959 
" clip-path="url(#pcf0f80dea7)" style="fill: none; stroke: #ffffff; stroke-linecap: round"/>
     </g>
    </g>
    <g id="ytick_9">
     <g id="line2d_15">
      <path d="M 153.307893 232.411666 
L 235.078588 232.411666 
" clip-path="url(#pcf0f80dea7)" style="fill: none; stroke: #ffffff; stroke-linecap: round"/>
     </g>
    </g>
    <g id="ytick_10">
     <g id="line2d_16">
      <path d="M 153.307893 189.839373 
L 235.078588 189.839373 
" clip-path="url(#pcf0f80dea7)" style="fill: none; stroke: #ffffff; stroke-linecap: round"/>
     </g>
    </g>
    <g id="ytick_11">
     <g id="line2d_17">
      <path d="M 153.307893 147.26708 
L 235.078588 147.26708 
" clip-path="url(#pcf0f80dea7)" style="fill: none; stroke: #ffffff; stroke-linecap: round"/>
     </g>
    </g>
    <g id="ytick_12">
     <g id="line2d_18">
      <path d="M 153.307893 104.694787 
L 235.078588 104.694787 
" clip-path="url(#pcf0f80dea7)" style="fill: none; stroke: #ffffff; stroke-linecap: round"/>
     </g>
    </g>
    <g id="ytick_13">
     <g id="line2d_19">
      <path d="M 153.307893 62.122495 
L 235.078588 62.122495 
" clip-path="url(#pcf0f80dea7)" style="fill: none; stroke: #ffffff; stroke-linecap: round"/>
     </g>
    </g>
    <g id="ytick_14">
     <g id="line2d_20">
      <path d="M 153.307893 19.550202 
L 235.078588 19.550202 
" clip-path="url(#pcf0f80dea7)" style="fill: none; stroke: #ffffff; stroke-linecap: round"/>
     </g>
    </g>
   </g>
   <g id="line2d_21">
    <path d="M 157.09571 276.06555 
L 165.447217 275.973296 
L 167.816293 272.252946 
L 169.685128 269.943995 
L 170.433605 269.310136 
L 174.150084 266.877492 
L 183.464481 266.780895 
L 184.091173 265.782873 
L 185.597829 263.393354 
L 186.592208 262.048687 
L 188.72109 259.829095 
L 191.845243 257.681919 
L 200.913565 257.493749 
L 202.403744 255.054378 
L 204.02489 252.737935 
L 206.023078 250.648763 
L 206.396324 250.410869 
L 208.76818 248.685436 
L 209.191102 248.486091 
L 218.050841 248.406353 
L 219.913125 245.4572 
L 221.196533 243.791772 
L 222.821797 241.852455 
L 223.326406 241.442079 
L 224.697754 240.537567 
L 226.880331 239.290688 
L 231.328836 239.2601 
L 231.328836 239.2601 
" clip-path="url(#pcf0f80dea7)" style="fill: none; stroke: #dd8452; stroke-width: 1.5; stroke-linecap: round"/>
   </g>
   <g id="line2d_22">
    <path d="M 157.139779 278.731129 
L 159.358039 278.431399 
L 161.965921 277.918233 
L 163.163077 277.426927 
L 165.005014 276.368367 
L 166.024306 275.421048 
L 167.614087 273.859156 
L 168.408668 273.263463 
L 174.575091 269.559887 
L 178.774318 268.923197 
L 182.365538 267.692474 
L 182.999798 267.222923 
L 183.794353 266.547365 
L 185.185601 265.074363 
L 185.782169 264.48429 
L 186.777194 263.844024 
L 187.774303 263.243138 
L 188.570943 262.700639 
L 191.75388 260.437623 
L 193.969087 260.016158 
L 198.972374 259.008429 
L 199.791867 258.537303 
L 203.824868 254.86342 
L 206.013748 253.415962 
L 206.809396 252.852518 
L 208.997209 251.279216 
L 210.204861 251.074508 
L 211.800424 250.810921 
L 215.800869 249.808599 
L 218.421307 248.048661 
L 219.812779 246.613804 
L 221.221669 245.53466 
L 226.396938 242.234648 
L 226.797355 242.042434 
L 230.216418 241.610857 
L 231.222112 241.432224 
L 231.222112 241.432224 
" clip-path="url(#pcf0f80dea7)" style="fill: none; stroke-dasharray: 6,2.25; stroke-dashoffset: 0; stroke: #dd8452; stroke-width: 1.5"/>
   </g>
   <g id="patch_8">
    <path d="M 153.307893 291.120312 
L 153.307893 18.558281 
" style="fill: none; stroke: #ffffff; stroke-width: 1.25; stroke-linejoin: miter; stroke-linecap: square"/>
   </g>
   <g id="patch_9">
    <path d="M 235.078588 291.120312 
L 235.078588 18.558281 
" style="fill: none; stroke: #ffffff; stroke-width: 1.25; stroke-linejoin: miter; stroke-linecap: square"/>
   </g>
   <g id="patch_10">
    <path d="M 153.307893 291.120312 
L 235.078588 291.120312 
" style="fill: none; stroke: #ffffff; stroke-width: 1.25; stroke-linejoin: miter; stroke-linecap: square"/>
   </g>
   <g id="patch_11">
    <path d="M 153.307893 18.558281 
L 235.078588 18.558281 
" style="fill: none; stroke: #ffffff; stroke-width: 1.25; stroke-linejoin: miter; stroke-linecap: square"/>
   </g>
  </g>
  <g id="axes_3">
   <g id="patch_12">
    <path d="M 256.808599 291.120312 
L 338.579294 291.120312 
L 338.579294 18.558281 
L 256.808599 18.558281 
z
" style="fill: #eaeaf2"/>
   </g>
   <g id="matplotlib.axis_5">
    <g id="xtick_5">
     <g id="line2d_23">
      <path d="M 260.469867 291.120312 
L 260.469867 18.558281 
" clip-path="url(#pf266260e74)" style="fill: none; stroke: #ffffff; stroke-linecap: round"/>
     </g>
     <g id="text_16">
      <!-- 1.10 -->
      <g style="fill: #262626" transform="translate(248.223773 308.978594)scale(0.11 -0.11)">
       <use xlink:href="#DejaVuSans-31"/>
       <use xlink:href="#DejaVuSans-2e" x="63.623047"/>
       <use xlink:href="#DejaVuSans-31" x="95.410156"/>
       <use xlink:href="#DejaVuSans-30" x="159.033203"/>
      </g>
     </g>
    </g>
    <g id="xtick_6">
     <g id="line2d_24">
      <path d="M 305.134311 291.120312 
L 305.134311 18.558281 
" clip-path="url(#pf266260e74)" style="fill: none; stroke: #ffffff; stroke-linecap: round"/>
     </g>
     <g id="text_17">
      <!-- 1.15 -->
      <g style="fill: #262626" transform="translate(292.888217 308.978594)scale(0.11 -0.11)">
       <use xlink:href="#DejaVuSans-31"/>
       <use xlink:href="#DejaVuSans-2e" x="63.623047"/>
       <use xlink:href="#DejaVuSans-31" x="95.410156"/>
       <use xlink:href="#DejaVuSans-35" x="159.033203"/>
      </g>
     </g>
    </g>
    <g id="text_18">
     <!-- Time in h -->
     <g style="fill: #262626" transform="translate(269.928009 324.384375)scale(0.12 -0.12)">
      <use xlink:href="#DejaVuSans-54"/>
      <use xlink:href="#DejaVuSans-69" x="57.958984"/>
      <use xlink:href="#DejaVuSans-6d" x="85.742188"/>
      <use xlink:href="#DejaVuSans-65" x="183.154297"/>
      <use xlink:href="#DejaVuSans-20" x="244.677734"/>
      <use xlink:href="#DejaVuSans-69" x="276.464844"/>
      <use xlink:href="#DejaVuSans-6e" x="304.248047"/>
      <use xlink:href="#DejaVuSans-20" x="367.626953"/>
      <use xlink:href="#DejaVuSans-68" x="399.414062"/>
     </g>
    </g>
   </g>
   <g id="matplotlib.axis_6">
    <g id="ytick_15">
     <g id="line2d_25">
      <path d="M 256.808599 274.983959 
L 338.579294 274.983959 
" clip-path="url(#pf266260e74)" style="fill: none; stroke: #ffffff; stroke-linecap: round"/>
     </g>
    </g>
    <g id="ytick_16">
     <g id="line2d_26">
      <path d="M 256.808599 232.411666 
L 338.579294 232.411666 
" clip-path="url(#pf266260e74)" style="fill: none; stroke: #ffffff; stroke-linecap: round"/>
     </g>
    </g>
    <g id="ytick_17">
     <g id="line2d_27">
      <path d="M 256.808599 189.839373 
L 338.579294 189.839373 
" clip-path="url(#pf266260e74)" style="fill: none; stroke: #ffffff; stroke-linecap: round"/>
     </g>
    </g>
    <g id="ytick_18">
     <g id="line2d_28">
      <path d="M 256.808599 147.26708 
L 338.579294 147.26708 
" clip-path="url(#pf266260e74)" style="fill: none; stroke: #ffffff; stroke-linecap: round"/>
     </g>
    </g>
    <g id="ytick_19">
     <g id="line2d_29">
      <path d="M 256.808599 104.694787 
L 338.579294 104.694787 
" clip-path="url(#pf266260e74)" style="fill: none; stroke: #ffffff; stroke-linecap: round"/>
     </g>
    </g>
    <g id="ytick_20">
     <g id="line2d_30">
      <path d="M 256.808599 62.122495 
L 338.579294 62.122495 
" clip-path="url(#pf266260e74)" style="fill: none; stroke: #ffffff; stroke-linecap: round"/>
     </g>
    </g>
    <g id="ytick_21">
     <g id="line2d_31">
      <path d="M 256.808599 19.550202 
L 338.579294 19.550202 
" clip-path="url(#pf266260e74)" style="fill: none; stroke: #ffffff; stroke-linecap: round"/>
     </g>
    </g>
   </g>
   <g id="line2d_32">
    <path d="M 260.594108 220.420477 
L 260.96656 219.884769 
L 262.209026 217.886723 
L 262.830184 217.05171 
L 264.576142 214.818261 
L 264.949611 214.583411 
L 265.945852 213.436492 
L 268.072822 211.804675 
L 268.455323 211.703204 
L 278.504153 211.564312 
L 279.749795 209.674996 
L 280.744472 208.070447 
L 281.241017 207.370217 
L 283.925697 204.364188 
L 285.817162 203.056473 
L 286.578443 202.523575 
L 287.801852 202.498649 
L 303.473489 202.359139 
L 303.597904 202.29643 
L 305.274855 199.760697 
L 306.149857 198.583892 
L 307.14503 197.17443 
L 309.026817 195.04341 
L 310.155885 194.22979 
L 311.40902 193.352055 
L 311.830851 193.310909 
L 318.773294 193.210737 
L 319.51862 192.102346 
L 320.015437 191.388877 
L 321.506708 189.190082 
L 321.814769 188.888925 
L 322.932894 187.238057 
L 323.555169 186.648026 
L 323.704547 186.61333 
L 324.829594 185.422732 
L 326.749347 184.116848 
L 334.818872 184.056268 
L 334.818872 184.056268 
" clip-path="url(#pf266260e74)" style="fill: none; stroke: #55a868; stroke-width: 1.5; stroke-linecap: round"/>
   </g>
   <g id="line2d_33">
    <path d="M 260.525449 220.634041 
L 261.320203 219.787576 
L 262.512248 218.604769 
L 263.705533 217.666923 
L 264.148852 217.215486 
L 264.745941 216.91748 
L 265.143604 216.737271 
L 267.330276 215.117396 
L 268.325921 214.447584 
L 271.74156 213.967944 
L 275.57563 213.203771 
L 276.974768 212.773791 
L 278.368473 211.705929 
L 278.449043 211.704503 
L 280.760626 209.362303 
L 281.253498 208.897882 
L 282.248969 208.272175 
L 284.635589 206.62814 
L 286.628591 205.26257 
L 292.271472 204.648528 
L 298.92913 203.644716 
L 303.342771 202.596246 
L 303.541726 202.503566 
L 305.331331 200.603309 
L 306.129931 200.055659 
L 307.124013 199.027091 
L 311.899386 196.011291 
L 313.953082 195.631951 
L 316.581287 194.94775 
L 319.637675 192.420787 
L 321.429092 190.620191 
L 322.088041 190.219118 
L 322.685974 189.727919 
L 323.083909 189.407094 
L 323.285271 189.38783 
L 323.704025 188.847864 
L 324.30037 188.529594 
L 325.294551 187.844968 
L 326.690166 186.866741 
L 329.130731 186.596322 
L 334.759195 185.735191 
L 334.759195 185.735191 
" clip-path="url(#pf266260e74)" style="fill: none; stroke-dasharray: 6,2.25; stroke-dashoffset: 0; stroke: #55a868; stroke-width: 1.5"/>
   </g>
   <g id="patch_13">
    <path d="M 256.808599 291.120312 
L 256.808599 18.558281 
" style="fill: none; stroke: #ffffff; stroke-width: 1.25; stroke-linejoin: miter; stroke-linecap: square"/>
   </g>
   <g id="patch_14">
    <path d="M 338.579294 291.120312 
L 338.579294 18.558281 
" style="fill: none; stroke: #ffffff; stroke-width: 1.25; stroke-linejoin: miter; stroke-linecap: square"/>
   </g>
   <g id="patch_15">
    <path d="M 256.808599 291.120312 
L 338.579294 291.120312 
" style="fill: none; stroke: #ffffff; stroke-width: 1.25; stroke-linejoin: miter; stroke-linecap: square"/>
   </g>
   <g id="patch_16">
    <path d="M 256.808599 18.558281 
L 338.579294 18.558281 
" style="fill: none; stroke: #ffffff; stroke-width: 1.25; stroke-linejoin: miter; stroke-linecap: square"/>
   </g>
  </g>
  <g id="axes_4">
   <g id="patch_17">
    <path d="M 360.309305 291.120312 
L 442.08 291.120312 
L 442.08 18.558281 
L 360.309305 18.558281 
z
" style="fill: #eaeaf2"/>
   </g>
   <g id="matplotlib.axis_7">
    <g id="xtick_7">
     <g id="line2d_34">
      <path d="M 363.970573 291.120312 
L 363.970573 18.558281 
" clip-path="url(#p1754fdfb99)" style="fill: none; stroke: #ffffff; stroke-linecap: round"/>
     </g>
     <g id="text_19">
      <!-- 1.10 -->
      <g style="fill: #262626" transform="translate(351.724479 308.978594)scale(0.11 -0.11)">
       <use xlink:href="#DejaVuSans-31"/>
       <use xlink:href="#DejaVuSans-2e" x="63.623047"/>
       <use xlink:href="#DejaVuSans-31" x="95.410156"/>
       <use xlink:href="#DejaVuSans-30" x="159.033203"/>
      </g>
     </g>
    </g>
    <g id="xtick_8">
     <g id="line2d_35">
      <path d="M 408.635017 291.120312 
L 408.635017 18.558281 
" clip-path="url(#p1754fdfb99)" style="fill: none; stroke: #ffffff; stroke-linecap: round"/>
     </g>
     <g id="text_20">
      <!-- 1.15 -->
      <g style="fill: #262626" transform="translate(396.388923 308.978594)scale(0.11 -0.11)">
       <use xlink:href="#DejaVuSans-31"/>
       <use xlink:href="#DejaVuSans-2e" x="63.623047"/>
       <use xlink:href="#DejaVuSans-31" x="95.410156"/>
       <use xlink:href="#DejaVuSans-35" x="159.033203"/>
      </g>
     </g>
    </g>
    <g id="text_21">
     <!-- Time in h -->
     <g style="fill: #262626" transform="translate(373.428715 324.384375)scale(0.12 -0.12)">
      <use xlink:href="#DejaVuSans-54"/>
      <use xlink:href="#DejaVuSans-69" x="57.958984"/>
      <use xlink:href="#DejaVuSans-6d" x="85.742188"/>
      <use xlink:href="#DejaVuSans-65" x="183.154297"/>
      <use xlink:href="#DejaVuSans-20" x="244.677734"/>
      <use xlink:href="#DejaVuSans-69" x="276.464844"/>
      <use xlink:href="#DejaVuSans-6e" x="304.248047"/>
      <use xlink:href="#DejaVuSans-20" x="367.626953"/>
      <use xlink:href="#DejaVuSans-68" x="399.414062"/>
     </g>
    </g>
   </g>
   <g id="matplotlib.axis_8">
    <g id="ytick_22">
     <g id="line2d_36">
      <path d="M 360.309305 274.983959 
L 442.08 274.983959 
" clip-path="url(#p1754fdfb99)" style="fill: none; stroke: #ffffff; stroke-linecap: round"/>
     </g>
    </g>
    <g id="ytick_23">
     <g id="line2d_37">
      <path d="M 360.309305 232.411666 
L 442.08 232.411666 
" clip-path="url(#p1754fdfb99)" style="fill: none; stroke: #ffffff; stroke-linecap: round"/>
     </g>
    </g>
    <g id="ytick_24">
     <g id="line2d_38">
      <path d="M 360.309305 189.839373 
L 442.08 189.839373 
" clip-path="url(#p1754fdfb99)" style="fill: none; stroke: #ffffff; stroke-linecap: round"/>
     </g>
    </g>
    <g id="ytick_25">
     <g id="line2d_39">
      <path d="M 360.309305 147.26708 
L 442.08 147.26708 
" clip-path="url(#p1754fdfb99)" style="fill: none; stroke: #ffffff; stroke-linecap: round"/>
     </g>
    </g>
    <g id="ytick_26">
     <g id="line2d_40">
      <path d="M 360.309305 104.694787 
L 442.08 104.694787 
" clip-path="url(#p1754fdfb99)" style="fill: none; stroke: #ffffff; stroke-linecap: round"/>
     </g>
    </g>
    <g id="ytick_27">
     <g id="line2d_41">
      <path d="M 360.309305 62.122495 
L 442.08 62.122495 
" clip-path="url(#p1754fdfb99)" style="fill: none; stroke: #ffffff; stroke-linecap: round"/>
     </g>
    </g>
    <g id="ytick_28">
     <g id="line2d_42">
      <path d="M 360.309305 19.550202 
L 442.08 19.550202 
" clip-path="url(#p1754fdfb99)" style="fill: none; stroke: #ffffff; stroke-linecap: round"/>
     </g>
    </g>
   </g>
   <g id="line2d_43">
    <path d="M 364.121141 184.094838 
L 365.899878 183.995453 
L 366.214291 183.678162 
L 368.947556 180.025459 
L 370.818004 177.478018 
L 372.069229 175.683447 
L 372.690462 174.98458 
L 373.238693 174.919487 
L 376.753363 174.885876 
L 380.604629 168.730987 
L 382.219497 166.221116 
L 382.591924 165.728981 
L 386.822416 165.64307 
L 389.182187 161.905904 
L 391.805206 157.877181 
L 393.194419 156.530279 
L 397.338635 156.497498 
L 402.831096 148.013585 
L 403.523891 147.334366 
L 407.492674 147.307141 
L 410.473728 142.598156 
L 412.154327 140.080366 
L 413.024812 138.910735 
L 413.786788 138.138857 
L 418.133854 138.104246 
L 418.382188 137.815222 
L 420.756674 134.151983 
L 421.751054 132.582108 
L 422.620795 131.421268 
L 424.237722 129.969766 
L 425.364829 128.943135 
L 429.88229 128.819441 
L 431.377879 126.435436 
L 434.127497 122.263308 
L 435.185077 121.29266 
L 437.01354 119.746115 
L 438.265732 119.741645 
L 438.265732 119.741645 
" clip-path="url(#p1754fdfb99)" style="fill: none; stroke: #c44e52; stroke-width: 1.5; stroke-linecap: round"/>
   </g>
   <g id="line2d_44">
    <path d="M 364.108338 184.846133 
L 364.779049 184.597 
L 365.375145 184.327198 
L 366.487116 183.566686 
L 371.853797 178.674087 
L 373.057727 177.523869 
L 374.85371 176.230331 
L 376.448379 175.032581 
L 376.744926 174.921254 
L 382.708721 168.403372 
L 383.34246 168.020285 
L 386.530286 165.774107 
L 386.773161 165.725554 
L 389.356503 163.133263 
L 391.343674 161.105566 
L 393.738035 158.852789 
L 395.528434 157.629474 
L 397.11958 156.587581 
L 397.318337 156.515081 
L 398.510506 155.262242 
L 401.690043 151.945967 
L 402.087334 151.605388 
L 403.677785 149.896941 
L 407.528034 147.279086 
L 412.155543 142.59641 
L 413.347538 141.301872 
L 413.943386 140.756819 
L 416.545065 139.069913 
L 417.400365 138.561451 
L 418.59432 137.75809 
L 419.786439 136.665962 
L 425.553859 131.540769 
L 426.228689 131.174966 
L 429.610209 129.01189 
L 429.81249 128.943135 
L 433.192248 125.799193 
L 434.783047 124.44401 
L 436.970811 122.363822 
L 438.36315 121.636431 
L 438.36315 121.636431 
" clip-path="url(#p1754fdfb99)" style="fill: none; stroke-dasharray: 6,2.25; stroke-dashoffset: 0; stroke: #c44e52; stroke-width: 1.5"/>
   </g>
   <g id="patch_18">
    <path d="M 360.309305 291.120312 
L 360.309305 18.558281 
" style="fill: none; stroke: #ffffff; stroke-width: 1.25; stroke-linejoin: miter; stroke-linecap: square"/>
   </g>
   <g id="patch_19">
    <path d="M 442.08 291.120312 
L 442.08 18.558281 
" style="fill: none; stroke: #ffffff; stroke-width: 1.25; stroke-linejoin: miter; stroke-linecap: square"/>
   </g>
   <g id="patch_20">
    <path d="M 360.309305 291.120312 
L 442.08 291.120312 
" style="fill: none; stroke: #ffffff; stroke-width: 1.25; stroke-linejoin: miter; stroke-linecap: square"/>
   </g>
   <g id="patch_21">
    <path d="M 360.309305 18.558281 
L 442.08 18.558281 
" style="fill: none; stroke: #ffffff; stroke-width: 1.25; stroke-linejoin: miter; stroke-linecap: square"/>
   </g>
  </g>
  <g id="legend_1">
   <g id="patch_22">
    <path d="M 459.284 194.087812 
L 745.103531 194.087812 
Q 747.303531 194.087812 747.303531 191.887812 
L 747.303531 96.112187 
Q 747.303531 93.912187 745.103531 93.912187 
L 459.284 93.912187 
Q 457.084 93.912187 457.084 96.112187 
L 457.084 191.887812 
Q 457.084 194.087812 459.284 194.087812 
z
" style="fill: #eaeaf2; opacity: 0.8; stroke: #cccccc; stroke-linejoin: miter"/>
   </g>
   <g id="line2d_45">
    <path d="M 461.484 102.820469 
L 472.484 102.820469 
L 483.484 102.820469 
" style="fill: none; stroke: #4c72b0; stroke-width: 1.5; stroke-linecap: round"/>
   </g>
   <g id="text_22">
    <!-- Baseline -->
    <g style="fill: #262626" transform="translate(492.284 106.670469)scale(0.11 -0.11)">
     <defs>
      <path id="DejaVuSans-42" d="M 1259 2228 
L 1259 519 
L 2272 519 
Q 2781 519 3026 730 
Q 3272 941 3272 1375 
Q 3272 1813 3026 2020 
Q 2781 2228 2272 2228 
L 1259 2228 
z
M 1259 4147 
L 1259 2741 
L 2194 2741 
Q 2656 2741 2882 2914 
Q 3109 3088 3109 3444 
Q 3109 3797 2882 3972 
Q 2656 4147 2194 4147 
L 1259 4147 
z
M 628 4666 
L 2241 4666 
Q 2963 4666 3353 4366 
Q 3744 4066 3744 3513 
Q 3744 3084 3544 2831 
Q 3344 2578 2956 2516 
Q 3422 2416 3680 2098 
Q 3938 1781 3938 1306 
Q 3938 681 3513 340 
Q 3088 0 2303 0 
L 628 0 
L 628 4666 
z
" transform="scale(0.015625)"/>
      <path id="DejaVuSans-61" d="M 2194 1759 
Q 1497 1759 1228 1600 
Q 959 1441 959 1056 
Q 959 750 1161 570 
Q 1363 391 1709 391 
Q 2188 391 2477 730 
Q 2766 1069 2766 1631 
L 2766 1759 
L 2194 1759 
z
M 3341 1997 
L 3341 0 
L 2766 0 
L 2766 531 
Q 2569 213 2275 61 
Q 1981 -91 1556 -91 
Q 1019 -91 701 211 
Q 384 513 384 1019 
Q 384 1609 779 1909 
Q 1175 2209 1959 2209 
L 2766 2209 
L 2766 2266 
Q 2766 2663 2505 2880 
Q 2244 3097 1772 3097 
Q 1472 3097 1187 3025 
Q 903 2953 641 2809 
L 641 3341 
Q 956 3463 1253 3523 
Q 1550 3584 1831 3584 
Q 2591 3584 2966 3190 
Q 3341 2797 3341 1997 
z
" transform="scale(0.015625)"/>
      <path id="DejaVuSans-73" d="M 2834 3397 
L 2834 2853 
Q 2591 2978 2328 3040 
Q 2066 3103 1784 3103 
Q 1356 3103 1142 2972 
Q 928 2841 928 2578 
Q 928 2378 1081 2264 
Q 1234 2150 1697 2047 
L 1894 2003 
Q 2506 1872 2764 1633 
Q 3022 1394 3022 966 
Q 3022 478 2636 193 
Q 2250 -91 1575 -91 
Q 1294 -91 989 -36 
Q 684 19 347 128 
L 347 722 
Q 666 556 975 473 
Q 1284 391 1588 391 
Q 1994 391 2212 530 
Q 2431 669 2431 922 
Q 2431 1156 2273 1281 
Q 2116 1406 1581 1522 
L 1381 1569 
Q 847 1681 609 1914 
Q 372 2147 372 2553 
Q 372 3047 722 3315 
Q 1072 3584 1716 3584 
Q 2034 3584 2315 3537 
Q 2597 3491 2834 3397 
z
" transform="scale(0.015625)"/>
     </defs>
     <use xlink:href="#DejaVuSans-42"/>
     <use xlink:href="#DejaVuSans-61" x="68.603516"/>
     <use xlink:href="#DejaVuSans-73" x="129.882812"/>
     <use xlink:href="#DejaVuSans-65" x="181.982422"/>
     <use xlink:href="#DejaVuSans-6c" x="243.505859"/>
     <use xlink:href="#DejaVuSans-69" x="271.289062"/>
     <use xlink:href="#DejaVuSans-6e" x="299.072266"/>
     <use xlink:href="#DejaVuSans-65" x="362.451172"/>
    </g>
   </g>
   <g id="line2d_46">
    <path d="M 461.484 118.966406 
L 472.484 118.966406 
L 483.484 118.966406 
" style="fill: none; stroke: #dd8452; stroke-width: 1.5; stroke-linecap: round"/>
   </g>
   <g id="text_23">
    <!-- Prototype, clustered jumps every 3000/f slots -->
    <g style="fill: #262626" transform="translate(492.284 122.816406)scale(0.11 -0.11)">
     <defs>
      <path id="DejaVuSans-50" d="M 1259 4147 
L 1259 2394 
L 2053 2394 
Q 2494 2394 2734 2622 
Q 2975 2850 2975 3272 
Q 2975 3691 2734 3919 
Q 2494 4147 2053 4147 
L 1259 4147 
z
M 628 4666 
L 2053 4666 
Q 2838 4666 3239 4311 
Q 3641 3956 3641 3272 
Q 3641 2581 3239 2228 
Q 2838 1875 2053 1875 
L 1259 1875 
L 1259 0 
L 628 0 
L 628 4666 
z
" transform="scale(0.015625)"/>
      <path id="DejaVuSans-72" d="M 2631 2963 
Q 2534 3019 2420 3045 
Q 2306 3072 2169 3072 
Q 1681 3072 1420 2755 
Q 1159 2438 1159 1844 
L 1159 0 
L 581 0 
L 581 3500 
L 1159 3500 
L 1159 2956 
Q 1341 3275 1631 3429 
Q 1922 3584 2338 3584 
Q 2397 3584 2469 3576 
Q 2541 3569 2628 3553 
L 2631 2963 
z
" transform="scale(0.015625)"/>
      <path id="DejaVuSans-79" d="M 2059 -325 
Q 1816 -950 1584 -1140 
Q 1353 -1331 966 -1331 
L 506 -1331 
L 506 -850 
L 844 -850 
Q 1081 -850 1212 -737 
Q 1344 -625 1503 -206 
L 1606 56 
L 191 3500 
L 800 3500 
L 1894 763 
L 2988 3500 
L 3597 3500 
L 2059 -325 
z
" transform="scale(0.015625)"/>
      <path id="DejaVuSans-70" d="M 1159 525 
L 1159 -1331 
L 581 -1331 
L 581 3500 
L 1159 3500 
L 1159 2969 
Q 1341 3281 1617 3432 
Q 1894 3584 2278 3584 
Q 2916 3584 3314 3078 
Q 3713 2572 3713 1747 
Q 3713 922 3314 415 
Q 2916 -91 2278 -91 
Q 1894 -91 1617 61 
Q 1341 213 1159 525 
z
M 3116 1747 
Q 3116 2381 2855 2742 
Q 2594 3103 2138 3103 
Q 1681 3103 1420 2742 
Q 1159 2381 1159 1747 
Q 1159 1113 1420 752 
Q 1681 391 2138 391 
Q 2594 391 2855 752 
Q 3116 1113 3116 1747 
z
" transform="scale(0.015625)"/>
      <path id="DejaVuSans-2c" d="M 750 794 
L 1409 794 
L 1409 256 
L 897 -744 
L 494 -744 
L 750 256 
L 750 794 
z
" transform="scale(0.015625)"/>
      <path id="DejaVuSans-63" d="M 3122 3366 
L 3122 2828 
Q 2878 2963 2633 3030 
Q 2388 3097 2138 3097 
Q 1578 3097 1268 2742 
Q 959 2388 959 1747 
Q 959 1106 1268 751 
Q 1578 397 2138 397 
Q 2388 397 2633 464 
Q 2878 531 3122 666 
L 3122 134 
Q 2881 22 2623 -34 
Q 2366 -91 2075 -91 
Q 1284 -91 818 406 
Q 353 903 353 1747 
Q 353 2603 823 3093 
Q 1294 3584 2113 3584 
Q 2378 3584 2631 3529 
Q 2884 3475 3122 3366 
z
" transform="scale(0.015625)"/>
      <path id="DejaVuSans-75" d="M 544 1381 
L 544 3500 
L 1119 3500 
L 1119 1403 
Q 1119 906 1312 657 
Q 1506 409 1894 409 
Q 2359 409 2629 706 
Q 2900 1003 2900 1516 
L 2900 3500 
L 3475 3500 
L 3475 0 
L 2900 0 
L 2900 538 
Q 2691 219 2414 64 
Q 2138 -91 1772 -91 
Q 1169 -91 856 284 
Q 544 659 544 1381 
z
M 1991 3584 
L 1991 3584 
z
" transform="scale(0.015625)"/>
      <path id="DejaVuSans-64" d="M 2906 2969 
L 2906 4863 
L 3481 4863 
L 3481 0 
L 2906 0 
L 2906 525 
Q 2725 213 2448 61 
Q 2172 -91 1784 -91 
Q 1150 -91 751 415 
Q 353 922 353 1747 
Q 353 2572 751 3078 
Q 1150 3584 1784 3584 
Q 2172 3584 2448 3432 
Q 2725 3281 2906 2969 
z
M 947 1747 
Q 947 1113 1208 752 
Q 1469 391 1925 391 
Q 2381 391 2643 752 
Q 2906 1113 2906 1747 
Q 2906 2381 2643 2742 
Q 2381 3103 1925 3103 
Q 1469 3103 1208 2742 
Q 947 2381 947 1747 
z
" transform="scale(0.015625)"/>
      <path id="DejaVuSans-6a" d="M 603 3500 
L 1178 3500 
L 1178 -63 
Q 1178 -731 923 -1031 
Q 669 -1331 103 -1331 
L -116 -1331 
L -116 -844 
L 38 -844 
Q 366 -844 484 -692 
Q 603 -541 603 -63 
L 603 3500 
z
M 603 4863 
L 1178 4863 
L 1178 4134 
L 603 4134 
L 603 4863 
z
" transform="scale(0.015625)"/>
      <path id="DejaVuSans-76" d="M 191 3500 
L 800 3500 
L 1894 563 
L 2988 3500 
L 3597 3500 
L 2284 0 
L 1503 0 
L 191 3500 
z
" transform="scale(0.015625)"/>
      <path id="DejaVuSans-33" d="M 2597 2516 
Q 3050 2419 3304 2112 
Q 3559 1806 3559 1356 
Q 3559 666 3084 287 
Q 2609 -91 1734 -91 
Q 1441 -91 1130 -33 
Q 819 25 488 141 
L 488 750 
Q 750 597 1062 519 
Q 1375 441 1716 441 
Q 2309 441 2620 675 
Q 2931 909 2931 1356 
Q 2931 1769 2642 2001 
Q 2353 2234 1838 2234 
L 1294 2234 
L 1294 2753 
L 1863 2753 
Q 2328 2753 2575 2939 
Q 2822 3125 2822 3475 
Q 2822 3834 2567 4026 
Q 2313 4219 1838 4219 
Q 1578 4219 1281 4162 
Q 984 4106 628 3988 
L 628 4550 
Q 988 4650 1302 4700 
Q 1616 4750 1894 4750 
Q 2613 4750 3031 4423 
Q 3450 4097 3450 3541 
Q 3450 3153 3228 2886 
Q 3006 2619 2597 2516 
z
" transform="scale(0.015625)"/>
      <path id="DejaVuSans-2f" d="M 1625 4666 
L 2156 4666 
L 531 -594 
L 0 -594 
L 1625 4666 
z
" transform="scale(0.015625)"/>
      <path id="DejaVuSans-66" d="M 2375 4863 
L 2375 4384 
L 1825 4384 
Q 1516 4384 1395 4259 
Q 1275 4134 1275 3809 
L 1275 3500 
L 2222 3500 
L 2222 3053 
L 1275 3053 
L 1275 0 
L 697 0 
L 697 3053 
L 147 3053 
L 147 3500 
L 697 3500 
L 697 3744 
Q 697 4328 969 4595 
Q 1241 4863 1831 4863 
L 2375 4863 
z
" transform="scale(0.015625)"/>
     </defs>
     <use xlink:href="#DejaVuSans-50"/>
     <use xlink:href="#DejaVuSans-72" x="58.552734"/>
     <use xlink:href="#DejaVuSans-6f" x="97.416016"/>
     <use xlink:href="#DejaVuSans-74" x="158.597656"/>
     <use xlink:href="#DejaVuSans-6f" x="197.806641"/>
     <use xlink:href="#DejaVuSans-74" x="258.988281"/>
     <use xlink:href="#DejaVuSans-79" x="298.197266"/>
     <use xlink:href="#DejaVuSans-70" x="357.376953"/>
     <use xlink:href="#DejaVuSans-65" x="420.853516"/>
     <use xlink:href="#DejaVuSans-2c" x="482.376953"/>
     <use xlink:href="#DejaVuSans-20" x="514.164062"/>
     <use xlink:href="#DejaVuSans-63" x="545.951172"/>
     <use xlink:href="#DejaVuSans-6c" x="600.931641"/>
     <use xlink:href="#DejaVuSans-75" x="628.714844"/>
     <use xlink:href="#DejaVuSans-73" x="692.09375"/>
     <use xlink:href="#DejaVuSans-74" x="744.193359"/>
     <use xlink:href="#DejaVuSans-65" x="783.402344"/>
     <use xlink:href="#DejaVuSans-72" x="844.925781"/>
     <use xlink:href="#DejaVuSans-65" x="883.789062"/>
     <use xlink:href="#DejaVuSans-64" x="945.3125"/>
     <use xlink:href="#DejaVuSans-20" x="1008.789062"/>
     <use xlink:href="#DejaVuSans-6a" x="1040.576172"/>
     <use xlink:href="#DejaVuSans-75" x="1068.359375"/>
     <use xlink:href="#DejaVuSans-6d" x="1131.738281"/>
     <use xlink:href="#DejaVuSans-70" x="1229.150391"/>
     <use xlink:href="#DejaVuSans-73" x="1292.626953"/>
     <use xlink:href="#DejaVuSans-20" x="1344.726562"/>
     <use xlink:href="#DejaVuSans-65" x="1376.513672"/>
     <use xlink:href="#DejaVuSans-76" x="1438.037109"/>
     <use xlink:href="#DejaVuSans-65" x="1497.216797"/>
     <use xlink:href="#DejaVuSans-72" x="1558.740234"/>
     <use xlink:href="#DejaVuSans-79" x="1599.853516"/>
     <use xlink:href="#DejaVuSans-20" x="1659.033203"/>
     <use xlink:href="#DejaVuSans-33" x="1690.820312"/>
     <use xlink:href="#DejaVuSans-30" x="1754.443359"/>
     <use xlink:href="#DejaVuSans-30" x="1818.066406"/>
     <use xlink:href="#DejaVuSans-30" x="1881.689453"/>
     <use xlink:href="#DejaVuSans-2f" x="1945.3125"/>
     <use xlink:href="#DejaVuSans-66" x="1979.003906"/>
     <use xlink:href="#DejaVuSans-20" x="2014.208984"/>
     <use xlink:href="#DejaVuSans-73" x="2045.996094"/>
     <use xlink:href="#DejaVuSans-6c" x="2098.095703"/>
     <use xlink:href="#DejaVuSans-6f" x="2125.878906"/>
     <use xlink:href="#DejaVuSans-74" x="2187.060547"/>
     <use xlink:href="#DejaVuSans-73" x="2226.269531"/>
    </g>
   </g>
   <g id="line2d_47">
    <path d="M 461.484 135.112344 
L 472.484 135.112344 
L 483.484 135.112344 
" style="fill: none; stroke: #55a868; stroke-width: 1.5; stroke-linecap: round"/>
   </g>
   <g id="text_24">
    <!-- Prototype, clustered jumps every 6000/f slots -->
    <g style="fill: #262626" transform="translate(492.284 138.962344)scale(0.11 -0.11)">
     <use xlink:href="#DejaVuSans-50"/>
     <use xlink:href="#DejaVuSans-72" x="58.552734"/>
     <use xlink:href="#DejaVuSans-6f" x="97.416016"/>
     <use xlink:href="#DejaVuSans-74" x="158.597656"/>
     <use xlink:href="#DejaVuSans-6f" x="197.806641"/>
     <use xlink:href="#DejaVuSans-74" x="258.988281"/>
     <use xlink:href="#DejaVuSans-79" x="298.197266"/>
     <use xlink:href="#DejaVuSans-70" x="357.376953"/>
     <use xlink:href="#DejaVuSans-65" x="420.853516"/>
     <use xlink:href="#DejaVuSans-2c" x="482.376953"/>
     <use xlink:href="#DejaVuSans-20" x="514.164062"/>
     <use xlink:href="#DejaVuSans-63" x="545.951172"/>
     <use xlink:href="#DejaVuSans-6c" x="600.931641"/>
     <use xlink:href="#DejaVuSans-75" x="628.714844"/>
     <use xlink:href="#DejaVuSans-73" x="692.09375"/>
     <use xlink:href="#DejaVuSans-74" x="744.193359"/>
     <use xlink:href="#DejaVuSans-65" x="783.402344"/>
     <use xlink:href="#DejaVuSans-72" x="844.925781"/>
     <use xlink:href="#DejaVuSans-65" x="883.789062"/>
     <use xlink:href="#DejaVuSans-64" x="945.3125"/>
     <use xlink:href="#DejaVuSans-20" x="1008.789062"/>
     <use xlink:href="#DejaVuSans-6a" x="1040.576172"/>
     <use xlink:href="#DejaVuSans-75" x="1068.359375"/>
     <use xlink:href="#DejaVuSans-6d" x="1131.738281"/>
     <use xlink:href="#DejaVuSans-70" x="1229.150391"/>
     <use xlink:href="#DejaVuSans-73" x="1292.626953"/>
     <use xlink:href="#DejaVuSans-20" x="1344.726562"/>
     <use xlink:href="#DejaVuSans-65" x="1376.513672"/>
     <use xlink:href="#DejaVuSans-76" x="1438.037109"/>
     <use xlink:href="#DejaVuSans-65" x="1497.216797"/>
     <use xlink:href="#DejaVuSans-72" x="1558.740234"/>
     <use xlink:href="#DejaVuSans-79" x="1599.853516"/>
     <use xlink:href="#DejaVuSans-20" x="1659.033203"/>
     <use xlink:href="#DejaVuSans-36" x="1690.820312"/>
     <use xlink:href="#DejaVuSans-30" x="1754.443359"/>
     <use xlink:href="#DejaVuSans-30" x="1818.066406"/>
     <use xlink:href="#DejaVuSans-30" x="1881.689453"/>
     <use xlink:href="#DejaVuSans-2f" x="1945.3125"/>
     <use xlink:href="#DejaVuSans-66" x="1979.003906"/>
     <use xlink:href="#DejaVuSans-20" x="2014.208984"/>
     <use xlink:href="#DejaVuSans-73" x="2045.996094"/>
     <use xlink:href="#DejaVuSans-6c" x="2098.095703"/>
     <use xlink:href="#DejaVuSans-6f" x="2125.878906"/>
     <use xlink:href="#DejaVuSans-74" x="2187.060547"/>
     <use xlink:href="#DejaVuSans-73" x="2226.269531"/>
    </g>
   </g>
   <g id="line2d_48">
    <path d="M 461.484 151.258281 
L 472.484 151.258281 
L 483.484 151.258281 
" style="fill: none; stroke: #c44e52; stroke-width: 1.5; stroke-linecap: round"/>
   </g>
   <g id="text_25">
    <!-- Prototype, with jump interval  -->
    <g style="fill: #262626" transform="translate(492.284 155.108281)scale(0.11 -0.11)">
     <defs>
      <path id="DejaVuSans-77" d="M 269 3500 
L 844 3500 
L 1563 769 
L 2278 3500 
L 2956 3500 
L 3675 769 
L 4391 3500 
L 4966 3500 
L 4050 0 
L 3372 0 
L 2619 2869 
L 1863 0 
L 1184 0 
L 269 3500 
z
" transform="scale(0.015625)"/>
      <path id="DejaVuSans-221e" d="M 2916 1091 
Q 2819 1203 2666 1466 
Q 2456 1091 2272 925 
Q 2041 725 1681 725 
Q 1259 725 981 1041 
Q 688 1372 688 1919 
Q 688 2444 981 2800 
Q 1244 3116 1688 3116 
Q 1916 3116 2084 3022 
Q 2281 2919 2416 2741 
Q 2541 2581 2666 2366 
Q 2875 2741 3059 2906 
Q 3291 3106 3650 3106 
Q 4072 3106 4350 2791 
Q 4644 2459 4644 1913 
Q 4644 1388 4350 1031 
Q 4088 716 3644 716 
Q 3416 716 3247 809 
Q 3078 894 2916 1091 
z
M 1647 1134 
Q 2163 1134 2472 1884 
Q 2075 2703 1647 2703 
Q 1334 2703 1175 2478 
Q 1003 2238 1003 1919 
Q 1003 1569 1175 1353 
Q 1350 1134 1647 1134 
z
M 3684 2697 
Q 3219 2697 2859 1947 
Q 3253 1128 3684 1128 
Q 3997 1128 4156 1353 
Q 4328 1594 4328 1913 
Q 4328 2263 4156 2478 
Q 3981 2697 3684 2697 
z
" transform="scale(0.015625)"/>
     </defs>
     <use xlink:href="#DejaVuSans-50"/>
     <use xlink:href="#DejaVuSans-72" x="58.552734"/>
     <use xlink:href="#DejaVuSans-6f" x="97.416016"/>
     <use xlink:href="#DejaVuSans-74" x="158.597656"/>
     <use xlink:href="#DejaVuSans-6f" x="197.806641"/>
     <use xlink:href="#DejaVuSans-74" x="258.988281"/>
     <use xlink:href="#DejaVuSans-79" x="298.197266"/>
     <use xlink:href="#DejaVuSans-70" x="357.376953"/>
     <use xlink:href="#DejaVuSans-65" x="420.853516"/>
     <use xlink:href="#DejaVuSans-2c" x="482.376953"/>
     <use xlink:href="#DejaVuSans-20" x="514.164062"/>
     <use xlink:href="#DejaVuSans-77" x="545.951172"/>
     <use xlink:href="#DejaVuSans-69" x="627.738281"/>
     <use xlink:href="#DejaVuSans-74" x="655.521484"/>
     <use xlink:href="#DejaVuSans-68" x="694.730469"/>
     <use xlink:href="#DejaVuSans-20" x="758.109375"/>
     <use xlink:href="#DejaVuSans-6a" x="789.896484"/>
     <use xlink:href="#DejaVuSans-75" x="817.679688"/>
     <use xlink:href="#DejaVuSans-6d" x="881.058594"/>
     <use xlink:href="#DejaVuSans-70" x="978.470703"/>
     <use xlink:href="#DejaVuSans-20" x="1041.947266"/>
     <use xlink:href="#DejaVuSans-69" x="1073.734375"/>
     <use xlink:href="#DejaVuSans-6e" x="1101.517578"/>
     <use xlink:href="#DejaVuSans-74" x="1164.896484"/>
     <use xlink:href="#DejaVuSans-65" x="1204.105469"/>
     <use xlink:href="#DejaVuSans-72" x="1265.628906"/>
     <use xlink:href="#DejaVuSans-76" x="1306.742188"/>
     <use xlink:href="#DejaVuSans-61" x="1365.921875"/>
     <use xlink:href="#DejaVuSans-6c" x="1427.201172"/>
     <use xlink:href="#DejaVuSans-20" x="1454.984375"/>
     <use xlink:href="#DejaVuSans-221e" x="1486.771484"/>
    </g>
   </g>
   <g id="line2d_49">
    <path d="M 548.903063 167.404219 
L 559.903063 167.404219 
L 570.903063 167.404219 
" style="fill: none; stroke: #4c72b0; stroke-width: 1.5; stroke-linecap: round"/>
   </g>
   <g id="text_26">
    <!-- ChainSync tip -->
    <g style="fill: #262626" transform="translate(579.703062 171.254219)scale(0.11 -0.11)">
     <defs>
      <path id="DejaVuSans-43" d="M 4122 4306 
L 4122 3641 
Q 3803 3938 3442 4084 
Q 3081 4231 2675 4231 
Q 1875 4231 1450 3742 
Q 1025 3253 1025 2328 
Q 1025 1406 1450 917 
Q 1875 428 2675 428 
Q 3081 428 3442 575 
Q 3803 722 4122 1019 
L 4122 359 
Q 3791 134 3420 21 
Q 3050 -91 2638 -91 
Q 1578 -91 968 557 
Q 359 1206 359 2328 
Q 359 3453 968 4101 
Q 1578 4750 2638 4750 
Q 3056 4750 3426 4639 
Q 3797 4528 4122 4306 
z
" transform="scale(0.015625)"/>
     </defs>
     <use xlink:href="#DejaVuSans-43"/>
     <use xlink:href="#DejaVuSans-68" x="69.824219"/>
     <use xlink:href="#DejaVuSans-61" x="133.203125"/>
     <use xlink:href="#DejaVuSans-69" x="194.482422"/>
     <use xlink:href="#DejaVuSans-6e" x="222.265625"/>
     <use xlink:href="#DejaVuSans-53" x="285.644531"/>
     <use xlink:href="#DejaVuSans-79" x="349.121094"/>
     <use xlink:href="#DejaVuSans-6e" x="408.300781"/>
     <use xlink:href="#DejaVuSans-63" x="471.679688"/>
     <use xlink:href="#DejaVuSans-20" x="526.660156"/>
     <use xlink:href="#DejaVuSans-74" x="558.447266"/>
     <use xlink:href="#DejaVuSans-69" x="597.65625"/>
     <use xlink:href="#DejaVuSans-70" x="625.439453"/>
    </g>
   </g>
   <g id="line2d_50">
    <path d="M 548.903063 183.550156 
L 559.903063 183.550156 
L 570.903063 183.550156 
" style="fill: none; stroke-dasharray: 6,2.25; stroke-dashoffset: 0; stroke: #4c72b0; stroke-width: 1.5"/>
   </g>
   <g id="text_27">
    <!-- Adopted -->
    <g style="fill: #262626" transform="translate(579.703062 187.400156)scale(0.11 -0.11)">
     <defs>
      <path id="DejaVuSans-41" d="M 2188 4044 
L 1331 1722 
L 3047 1722 
L 2188 4044 
z
M 1831 4666 
L 2547 4666 
L 4325 0 
L 3669 0 
L 3244 1197 
L 1141 1197 
L 716 0 
L 50 0 
L 1831 4666 
z
" transform="scale(0.015625)"/>
     </defs>
     <use xlink:href="#DejaVuSans-41"/>
     <use xlink:href="#DejaVuSans-64" x="66.658203"/>
     <use xlink:href="#DejaVuSans-6f" x="130.134766"/>
     <use xlink:href="#DejaVuSans-70" x="191.316406"/>
     <use xlink:href="#DejaVuSans-74" x="254.792969"/>
     <use xlink:href="#DejaVuSans-65" x="294.001953"/>
     <use xlink:href="#DejaVuSans-64" x="355.525391"/>
    </g>
   </g>
  </g>
 </g>
 <defs>
  <clipPath id="p89cd620f2e">
   <rect x="49.807187" y="18.558281" width="81.770695" height="272.562031"/>
  </clipPath>
  <clipPath id="pcf0f80dea7">
   <rect x="153.307893" y="18.558281" width="81.770695" height="272.562031"/>
  </clipPath>
  <clipPath id="pf266260e74">
   <rect x="256.808599" y="18.558281" width="81.770695" height="272.562031"/>
  </clipPath>
  <clipPath id="p1754fdfb99">
   <rect x="360.309305" y="18.558281" width="81.770695" height="272.562031"/>
  </clipPath>
 </defs>
</svg>
