<?xml version="1.0" encoding="utf-8" standalone="no"?>
<!DOCTYPE svg PUBLIC "-//W3C//DTD SVG 1.1//EN"
  "http://www.w3.org/Graphics/SVG/1.1/DTD/svg11.dtd">
<svg xmlns:xlink="http://www.w3.org/1999/xlink" width="748.743531pt" height="334.08pt" viewBox="0 0 748.743531 334.08" xmlns="http://www.w3.org/2000/svg" version="1.1">
 <metadata>
  <rdf:RDF xmlns:dc="http://purl.org/dc/elements/1.1/" xmlns:cc="http://creativecommons.org/ns#" xmlns:rdf="http://www.w3.org/1999/02/22-rdf-syntax-ns#">
   <cc:Work>
    <dc:type rdf:resource="http://purl.org/dc/dcmitype/StillImage"/>
    <dc:date>1980-01-01T00:00:00+00:00</dc:date>
    <dc:format>image/svg+xml</dc:format>
    <dc:creator>
     <cc:Agent>
      <dc:title>Matplotlib v3.5.3, https://matplotlib.org/</dc:title>
     </cc:Agent>
    </dc:creator>
   </cc:Work>
  </rdf:RDF>
 </metadata>
 <defs>
  <style type="text/css">*{stroke-linejoin: round; stroke-linecap: butt}</style>
 </defs>
 <g id="figure_1">
  <g id="patch_1">
   <path d="M 0 334.08 
L 748.743531 334.08 
L 748.743531 0 
L 0 0 
z
" style="fill: #ffffff"/>
  </g>
  <g id="axes_1">
   <g id="patch_2">
    <path d="M 49.807187 291.120312 
L 442.08 291.120312 
L 442.08 18.558281 
L 49.807187 18.558281 
z
" style="fill: #eaeaf2"/>
   </g>
   <g id="matplotlib.axis_1">
    <g id="xtick_1">
     <g id="line2d_1">
      <path d="M 67.63777 291.120312 
L 67.63777 18.558281 
" clip-path="url(#pa949161e4a)" style="fill: none; stroke: #ffffff; stroke-linecap: round"/>
     </g>
     <g id="text_1">
      <!-- 0 -->
      <g style="fill: #262626" transform="translate(64.138395 308.978594)scale(0.11 -0.11)">
       <defs>
        <path id="DejaVuSans-30" d="M 2034 4250 
Q 1547 4250 1301 3770 
Q 1056 3291 1056 2328 
Q 1056 1369 1301 889 
Q 1547 409 2034 409 
Q 2525 409 2770 889 
Q 3016 1369 3016 2328 
Q 3016 3291 2770 3770 
Q 2525 4250 2034 4250 
z
M 2034 4750 
Q 2819 4750 3233 4129 
Q 3647 3509 3647 2328 
Q 3647 1150 3233 529 
Q 2819 -91 2034 -91 
Q 1250 -91 836 529 
Q 422 1150 422 2328 
Q 422 3509 836 4129 
Q 1250 4750 2034 4750 
z
" transform="scale(0.015625)"/>
       </defs>
       <use xlink:href="#DejaVuSans-30"/>
      </g>
     </g>
    </g>
    <g id="xtick_2">
     <g id="line2d_2">
      <path d="M 245.949565 291.120312 
L 245.949565 18.558281 
" clip-path="url(#pa949161e4a)" style="fill: none; stroke: #ffffff; stroke-linecap: round"/>
     </g>
     <g id="text_2">
      <!-- 1 -->
      <g style="fill: #262626" transform="translate(242.45019 308.978594)scale(0.11 -0.11)">
       <defs>
        <path id="DejaVuSans-31" d="M 794 531 
L 1825 531 
L 1825 4091 
L 703 3866 
L 703 4441 
L 1819 4666 
L 2450 4666 
L 2450 531 
L 3481 531 
L 3481 0 
L 794 0 
L 794 531 
z
" transform="scale(0.015625)"/>
       </defs>
       <use xlink:href="#DejaVuSans-31"/>
      </g>
     </g>
    </g>
    <g id="xtick_3">
     <g id="line2d_3">
      <path d="M 424.26136 291.120312 
L 424.26136 18.558281 
" clip-path="url(#pa949161e4a)" style="fill: none; stroke: #ffffff; stroke-linecap: round"/>
     </g>
     <g id="text_3">
      <!-- 2 -->
      <g style="fill: #262626" transform="translate(420.761985 308.978594)scale(0.11 -0.11)">
       <defs>
        <path id="DejaVuSans-32" d="M 1228 531 
L 3431 531 
L 3431 0 
L 469 0 
L 469 531 
Q 828 903 1448 1529 
Q 2069 2156 2228 2338 
Q 2531 2678 2651 2914 
Q 2772 3150 2772 3378 
Q 2772 3750 2511 3984 
Q 2250 4219 1831 4219 
Q 1534 4219 1204 4116 
Q 875 4013 500 3803 
L 500 4441 
Q 881 4594 1212 4672 
Q 1544 4750 1819 4750 
Q 2544 4750 2975 4387 
Q 3406 4025 3406 3419 
Q 3406 3131 3298 2873 
Q 3191 2616 2906 2266 
Q 2828 2175 2409 1742 
Q 1991 1309 1228 531 
z
" transform="scale(0.015625)"/>
       </defs>
       <use xlink:href="#DejaVuSans-32"/>
      </g>
     </g>
    </g>
    <g id="text_4">
     <!-- Time in h -->
     <g style="fill: #262626" transform="translate(218.177656 324.384375)scale(0.12 -0.12)">
      <defs>
       <path id="DejaVuSans-54" d="M -19 4666 
L 3928 4666 
L 3928 4134 
L 2272 4134 
L 2272 0 
L 1638 0 
L 1638 4134 
L -19 4134 
L -19 4666 
z
" transform="scale(0.015625)"/>
       <path id="DejaVuSans-69" d="M 603 3500 
L 1178 3500 
L 1178 0 
L 603 0 
L 603 3500 
z
M 603 4863 
L 1178 4863 
L 1178 4134 
L 603 4134 
L 603 4863 
z
" transform="scale(0.015625)"/>
       <path id="DejaVuSans-6d" d="M 3328 2828 
Q 3544 3216 3844 3400 
Q 4144 3584 4550 3584 
Q 5097 3584 5394 3201 
Q 5691 2819 5691 2113 
L 5691 0 
L 5113 0 
L 5113 2094 
Q 5113 2597 4934 2840 
Q 4756 3084 4391 3084 
Q 3944 3084 3684 2787 
Q 3425 2491 3425 1978 
L 3425 0 
L 2847 0 
L 2847 2094 
Q 2847 2600 2669 2842 
Q 2491 3084 2119 3084 
Q 1678 3084 1418 2786 
Q 1159 2488 1159 1978 
L 1159 0 
L 581 0 
L 581 3500 
L 1159 3500 
L 1159 2956 
Q 1356 3278 1631 3431 
Q 1906 3584 2284 3584 
Q 2666 3584 2933 3390 
Q 3200 3197 3328 2828 
z
" transform="scale(0.015625)"/>
       <path id="DejaVuSans-65" d="M 3597 1894 
L 3597 1613 
L 953 1613 
Q 991 1019 1311 708 
Q 1631 397 2203 397 
Q 2534 397 2845 478 
Q 3156 559 3463 722 
L 3463 178 
Q 3153 47 2828 -22 
Q 2503 -91 2169 -91 
Q 1331 -91 842 396 
Q 353 884 353 1716 
Q 353 2575 817 3079 
Q 1281 3584 2069 3584 
Q 2775 3584 3186 3129 
Q 3597 2675 3597 1894 
z
M 3022 2063 
Q 3016 2534 2758 2815 
Q 2500 3097 2075 3097 
Q 1594 3097 1305 2825 
Q 1016 2553 972 2059 
L 3022 2063 
z
" transform="scale(0.015625)"/>
       <path id="DejaVuSans-20" transform="scale(0.015625)"/>
       <path id="DejaVuSans-6e" d="M 3513 2113 
L 3513 0 
L 2938 0 
L 2938 2094 
Q 2938 2591 2744 2837 
Q 2550 3084 2163 3084 
Q 1697 3084 1428 2787 
Q 1159 2491 1159 1978 
L 1159 0 
L 581 0 
L 581 3500 
L 1159 3500 
L 1159 2956 
Q 1366 3272 1645 3428 
Q 1925 3584 2291 3584 
Q 2894 3584 3203 3211 
Q 3513 2838 3513 2113 
z
" transform="scale(0.015625)"/>
       <path id="DejaVuSans-68" d="M 3513 2113 
L 3513 0 
L 2938 0 
L 2938 2094 
Q 2938 2591 2744 2837 
Q 2550 3084 2163 3084 
Q 1697 3084 1428 2787 
Q 1159 2491 1159 1978 
L 1159 0 
L 581 0 
L 581 4863 
L 1159 4863 
L 1159 2956 
Q 1366 3272 1645 3428 
Q 1925 3584 2291 3584 
Q 2894 3584 3203 3211 
Q 3513 2838 3513 2113 
z
" transform="scale(0.015625)"/>
      </defs>
      <use xlink:href="#DejaVuSans-54"/>
      <use xlink:href="#DejaVuSans-69" x="57.958984"/>
      <use xlink:href="#DejaVuSans-6d" x="85.742188"/>
      <use xlink:href="#DejaVuSans-65" x="183.154297"/>
      <use xlink:href="#DejaVuSans-20" x="244.677734"/>
      <use xlink:href="#DejaVuSans-69" x="276.464844"/>
      <use xlink:href="#DejaVuSans-6e" x="304.248047"/>
      <use xlink:href="#DejaVuSans-20" x="367.626953"/>
      <use xlink:href="#DejaVuSans-68" x="399.414062"/>
     </g>
    </g>
   </g>
   <g id="matplotlib.axis_2">
    <g id="ytick_1">
     <g id="line2d_4">
      <path d="M 49.807187 278.731129 
L 442.08 278.731129 
" clip-path="url(#pa949161e4a)" style="fill: none; stroke: #ffffff; stroke-linecap: round"/>
     </g>
     <g id="text_5">
      <!-- 0.0 -->
      <g style="fill: #262626" transform="translate(22.81375 282.91027)scale(0.11 -0.11)">
       <defs>
        <path id="DejaVuSans-2e" d="M 684 794 
L 1344 794 
L 1344 0 
L 684 0 
L 684 794 
z
" transform="scale(0.015625)"/>
       </defs>
       <use xlink:href="#DejaVuSans-30"/>
       <use xlink:href="#DejaVuSans-2e" x="63.623047"/>
       <use xlink:href="#DejaVuSans-30" x="95.410156"/>
      </g>
     </g>
    </g>
    <g id="ytick_2">
     <g id="line2d_5">
      <path d="M 49.807187 242.654246 
L 442.08 242.654246 
" clip-path="url(#pa949161e4a)" style="fill: none; stroke: #ffffff; stroke-linecap: round"/>
     </g>
     <g id="text_6">
      <!-- 0.5 -->
      <g style="fill: #262626" transform="translate(22.81375 246.833387)scale(0.11 -0.11)">
       <defs>
        <path id="DejaVuSans-35" d="M 691 4666 
L 3169 4666 
L 3169 4134 
L 1269 4134 
L 1269 2991 
Q 1406 3038 1543 3061 
Q 1681 3084 1819 3084 
Q 2600 3084 3056 2656 
Q 3513 2228 3513 1497 
Q 3513 744 3044 326 
Q 2575 -91 1722 -91 
Q 1428 -91 1123 -41 
Q 819 9 494 109 
L 494 744 
Q 775 591 1075 516 
Q 1375 441 1709 441 
Q 2250 441 2565 725 
Q 2881 1009 2881 1497 
Q 2881 1984 2565 2268 
Q 2250 2553 1709 2553 
Q 1456 2553 1204 2497 
Q 953 2441 691 2322 
L 691 4666 
z
" transform="scale(0.015625)"/>
       </defs>
       <use xlink:href="#DejaVuSans-30"/>
       <use xlink:href="#DejaVuSans-2e" x="63.623047"/>
       <use xlink:href="#DejaVuSans-35" x="95.410156"/>
      </g>
     </g>
    </g>
    <g id="ytick_3">
     <g id="line2d_6">
      <path d="M 49.807187 206.577364 
L 442.08 206.577364 
" clip-path="url(#pa949161e4a)" style="fill: none; stroke: #ffffff; stroke-linecap: round"/>
     </g>
     <g id="text_7">
      <!-- 1.0 -->
      <g style="fill: #262626" transform="translate(22.81375 210.756504)scale(0.11 -0.11)">
       <use xlink:href="#DejaVuSans-31"/>
       <use xlink:href="#DejaVuSans-2e" x="63.623047"/>
       <use xlink:href="#DejaVuSans-30" x="95.410156"/>
      </g>
     </g>
    </g>
    <g id="ytick_4">
     <g id="line2d_7">
      <path d="M 49.807187 170.500481 
L 442.08 170.500481 
" clip-path="url(#pa949161e4a)" style="fill: none; stroke: #ffffff; stroke-linecap: round"/>
     </g>
     <g id="text_8">
      <!-- 1.5 -->
      <g style="fill: #262626" transform="translate(22.81375 174.679622)scale(0.11 -0.11)">
       <use xlink:href="#DejaVuSans-31"/>
       <use xlink:href="#DejaVuSans-2e" x="63.623047"/>
       <use xlink:href="#DejaVuSans-35" x="95.410156"/>
      </g>
     </g>
    </g>
    <g id="ytick_5">
     <g id="line2d_8">
      <path d="M 49.807187 134.423598 
L 442.08 134.423598 
" clip-path="url(#pa949161e4a)" style="fill: none; stroke: #ffffff; stroke-linecap: round"/>
     </g>
     <g id="text_9">
      <!-- 2.0 -->
      <g style="fill: #262626" transform="translate(22.81375 138.602739)scale(0.11 -0.11)">
       <use xlink:href="#DejaVuSans-32"/>
       <use xlink:href="#DejaVuSans-2e" x="63.623047"/>
       <use xlink:href="#DejaVuSans-30" x="95.410156"/>
      </g>
     </g>
    </g>
    <g id="ytick_6">
     <g id="line2d_9">
      <path d="M 49.807187 98.346715 
L 442.08 98.346715 
" clip-path="url(#pa949161e4a)" style="fill: none; stroke: #ffffff; stroke-linecap: round"/>
     </g>
     <g id="text_10">
      <!-- 2.5 -->
      <g style="fill: #262626" transform="translate(22.81375 102.525856)scale(0.11 -0.11)">
       <use xlink:href="#DejaVuSans-32"/>
       <use xlink:href="#DejaVuSans-2e" x="63.623047"/>
       <use xlink:href="#DejaVuSans-35" x="95.410156"/>
      </g>
     </g>
    </g>
    <g id="ytick_7">
     <g id="line2d_10">
      <path d="M 49.807187 62.269833 
L 442.08 62.269833 
" clip-path="url(#pa949161e4a)" style="fill: none; stroke: #ffffff; stroke-linecap: round"/>
     </g>
     <g id="text_11">
      <!-- 3.0 -->
      <g style="fill: #262626" transform="translate(22.81375 66.448973)scale(0.11 -0.11)">
       <defs>
        <path id="DejaVuSans-33" d="M 2597 2516 
Q 3050 2419 3304 2112 
Q 3559 1806 3559 1356 
Q 3559 666 3084 287 
Q 2609 -91 1734 -91 
Q 1441 -91 1130 -33 
Q 819 25 488 141 
L 488 750 
Q 750 597 1062 519 
Q 1375 441 1716 441 
Q 2309 441 2620 675 
Q 2931 909 2931 1356 
Q 2931 1769 2642 2001 
Q 2353 2234 1838 2234 
L 1294 2234 
L 1294 2753 
L 1863 2753 
Q 2328 2753 2575 2939 
Q 2822 3125 2822 3475 
Q 2822 3834 2567 4026 
Q 2313 4219 1838 4219 
Q 1578 4219 1281 4162 
Q 984 4106 628 3988 
L 628 4550 
Q 988 4650 1302 4700 
Q 1616 4750 1894 4750 
Q 2613 4750 3031 4423 
Q 3450 4097 3450 3541 
Q 3450 3153 3228 2886 
Q 3006 2619 2597 2516 
z
" transform="scale(0.015625)"/>
       </defs>
       <use xlink:href="#DejaVuSans-33"/>
       <use xlink:href="#DejaVuSans-2e" x="63.623047"/>
       <use xlink:href="#DejaVuSans-30" x="95.410156"/>
      </g>
     </g>
    </g>
    <g id="ytick_8">
     <g id="line2d_11">
      <path d="M 49.807187 26.19295 
L 442.08 26.19295 
" clip-path="url(#pa949161e4a)" style="fill: none; stroke: #ffffff; stroke-linecap: round"/>
     </g>
     <g id="text_12">
      <!-- 3.5 -->
      <g style="fill: #262626" transform="translate(22.81375 30.37209)scale(0.11 -0.11)">
       <use xlink:href="#DejaVuSans-33"/>
       <use xlink:href="#DejaVuSans-2e" x="63.623047"/>
       <use xlink:href="#DejaVuSans-35" x="95.410156"/>
      </g>
     </g>
    </g>
    <g id="text_13">
     <!-- Slot -->
     <g style="fill: #262626" transform="translate(16.318125 166.338672)rotate(-90)scale(0.12 -0.12)">
      <defs>
       <path id="DejaVuSans-53" d="M 3425 4513 
L 3425 3897 
Q 3066 4069 2747 4153 
Q 2428 4238 2131 4238 
Q 1616 4238 1336 4038 
Q 1056 3838 1056 3469 
Q 1056 3159 1242 3001 
Q 1428 2844 1947 2747 
L 2328 2669 
Q 3034 2534 3370 2195 
Q 3706 1856 3706 1288 
Q 3706 609 3251 259 
Q 2797 -91 1919 -91 
Q 1588 -91 1214 -16 
Q 841 59 441 206 
L 441 856 
Q 825 641 1194 531 
Q 1563 422 1919 422 
Q 2459 422 2753 634 
Q 3047 847 3047 1241 
Q 3047 1584 2836 1778 
Q 2625 1972 2144 2069 
L 1759 2144 
Q 1053 2284 737 2584 
Q 422 2884 422 3419 
Q 422 4038 858 4394 
Q 1294 4750 2059 4750 
Q 2388 4750 2728 4690 
Q 3069 4631 3425 4513 
z
" transform="scale(0.015625)"/>
       <path id="DejaVuSans-6c" d="M 603 4863 
L 1178 4863 
L 1178 0 
L 603 0 
L 603 4863 
z
" transform="scale(0.015625)"/>
       <path id="DejaVuSans-6f" d="M 1959 3097 
Q 1497 3097 1228 2736 
Q 959 2375 959 1747 
Q 959 1119 1226 758 
Q 1494 397 1959 397 
Q 2419 397 2687 759 
Q 2956 1122 2956 1747 
Q 2956 2369 2687 2733 
Q 2419 3097 1959 3097 
z
M 1959 3584 
Q 2709 3584 3137 3096 
Q 3566 2609 3566 1747 
Q 3566 888 3137 398 
Q 2709 -91 1959 -91 
Q 1206 -91 779 398 
Q 353 888 353 1747 
Q 353 2609 779 3096 
Q 1206 3584 1959 3584 
z
" transform="scale(0.015625)"/>
       <path id="DejaVuSans-74" d="M 1172 4494 
L 1172 3500 
L 2356 3500 
L 2356 3053 
L 1172 3053 
L 1172 1153 
Q 1172 725 1289 603 
Q 1406 481 1766 481 
L 2356 481 
L 2356 0 
L 1766 0 
Q 1100 0 847 248 
Q 594 497 594 1153 
L 594 3053 
L 172 3053 
L 172 3500 
L 594 3500 
L 594 4494 
L 1172 4494 
z
" transform="scale(0.015625)"/>
      </defs>
      <use xlink:href="#DejaVuSans-53"/>
      <use xlink:href="#DejaVuSans-6c" x="63.476562"/>
      <use xlink:href="#DejaVuSans-6f" x="91.259766"/>
      <use xlink:href="#DejaVuSans-74" x="152.441406"/>
     </g>
    </g>
    <g id="text_14">
     <!-- 1e7 -->
     <g style="fill: #262626" transform="translate(49.807187 15.558281)scale(0.11 -0.11)">
      <defs>
       <path id="DejaVuSans-37" d="M 525 4666 
L 3525 4666 
L 3525 4397 
L 1831 0 
L 1172 0 
L 2766 4134 
L 525 4134 
L 525 4666 
z
" transform="scale(0.015625)"/>
      </defs>
      <use xlink:href="#DejaVuSans-31"/>
      <use xlink:href="#DejaVuSans-65" x="63.623047"/>
      <use xlink:href="#DejaVuSans-37" x="125.146484"/>
     </g>
    </g>
   </g>
   <g id="line2d_12">
    <path d="M 67.63777 278.731129 
L 67.887743 278.632142 
L 69.354427 278.160775 
L 76.777042 276.140492 
L 78.88651 275.798894 
L 82.97038 274.922955 
L 84.640379 274.579423 
L 87.401725 273.931547 
L 91.848529 272.9646 
L 93.086196 272.720454 
L 95.189018 272.243358 
L 98.215806 271.628464 
L 99.331042 271.347447 
L 102.313545 270.627129 
L 103.93897 270.274304 
L 107.038059 269.535839 
L 108.760373 269.13268 
L 111.919226 268.363492 
L 113.871408 267.88885 
L 116.701954 267.18183 
L 118.372528 266.773728 
L 121.79916 265.870269 
L 123.464394 265.452203 
L 125.843866 264.835779 
L 127.232078 264.546067 
L 128.667196 264.195075 
L 132.933078 263.118945 
L 134.523435 262.721493 
L 138.302957 261.805674 
L 141.251258 261.22177 
L 145.612874 260.242816 
L 147.516882 259.852717 
L 152.877049 258.745113 
L 154.53365 258.392491 
L 182.603116 251.570222 
L 200.676948 247.698971 
L 208.145161 246.253998 
L 208.643221 245.661183 
L 209.436787 244.234847 
L 209.754415 243.810727 
L 210.420335 243.285881 
L 210.542172 243.196843 
L 212.982928 240.125546 
L 213.184173 240.014717 
L 213.818963 238.999225 
L 215.049835 237.100571 
L 215.529934 236.331975 
L 217.11739 233.673808 
L 217.355381 233.235474 
L 218.228208 231.602245 
L 218.551933 231.186849 
L 219.426448 229.748867 
L 220.458641 228.054394 
L 221.149153 227.097065 
L 222.578025 224.798001 
L 223.331769 223.672034 
L 224.680752 221.541355 
L 225.10658 220.796309 
L 226.198596 218.890151 
L 226.678111 218.260299 
L 228.226685 215.466296 
L 228.675659 214.830016 
L 229.906476 212.590702 
L 230.664623 211.381412 
L 231.616937 209.670769 
L 232.421628 208.464408 
L 233.61288 206.397751 
L 234.308489 205.308468 
L 235.501147 203.218231 
L 236.136259 202.248621 
L 237.574859 199.805257 
L 237.86994 199.402653 
L 239.060276 197.208522 
L 239.787327 196.113935 
L 240.898383 194.071543 
L 241.414521 193.369776 
L 241.615201 193.006417 
L 242.769508 190.903748 
L 243.495648 189.874106 
L 245.017217 187.345189 
L 245.579003 186.374887 
L 246.626808 184.604139 
L 247.432638 183.489905 
L 249.110146 180.880341 
L 249.229214 180.702655 
L 250.379979 178.560562 
L 250.697711 178.171018 
L 251.650579 176.630528 
L 252.460135 175.293684 
L 253.177319 174.42022 
L 254.367432 172.461418 
L 254.940575 171.792105 
L 255.536379 170.9601 
L 256.852697 169.011819 
L 257.488735 168.317945 
L 257.90117 167.622 
L 258.895368 166.003887 
L 259.729887 164.899061 
L 261.174722 162.565378 
L 261.999414 161.373571 
L 262.882939 159.881344 
L 263.724621 158.887051 
L 264.902043 156.864862 
L 265.993698 155.482887 
L 267.355906 153.365758 
L 268.753236 151.374805 
L 269.547714 150.288213 
L 270.560768 148.905725 
L 271.314824 147.750391 
L 271.950857 147.091736 
L 272.149803 146.896372 
L 273.792397 145.063898 
L 274.547275 144.133071 
L 274.865784 143.806467 
L 276.066189 142.347077 
L 277.058702 141.032977 
L 277.939498 140.112583 
L 278.574927 139.283746 
L 279.852635 137.768878 
L 281.144608 136.219137 
L 282.10765 134.943379 
L 283.501806 133.292227 
L 284.41449 131.91909 
L 284.879458 131.513673 
L 287.559925 128.485589 
L 289.173349 126.971557 
L 289.928118 126.20177 
L 291.58934 124.889062 
L 292.971237 123.805573 
L 295.607443 121.639495 
L 295.783031 121.506645 
L 297.650649 119.609261 
L 298.009308 119.305739 
L 300.531855 117.556999 
L 301.99369 116.269415 
L 304.535039 114.477758 
L 305.577881 113.644403 
L 307.428029 112.416086 
L 310.360223 110.017832 
L 312.602563 108.407598 
L 313.279653 107.761295 
L 314.352921 106.775148 
L 316.352039 105.172981 
L 317.548903 104.045802 
L 317.860983 103.84678 
L 319.070417 103.035794 
L 319.772337 102.711802 
L 322.613958 100.573756 
L 323.516028 99.991973 
L 325.642738 98.190163 
L 326.557091 97.44755 
L 326.889657 97.297924 
L 328.663627 96.058243 
L 330.120181 94.506237 
L 330.972076 93.976484 
L 331.632553 93.575656 
L 332.06959 93.174156 
L 333.298094 92.00927 
L 334.332827 91.1417 
L 335.591976 90.569059 
L 336.373834 90.173043 
L 338.540485 88.394965 
L 339.036435 88.081111 
L 341.371695 86.505669 
L 342.726523 85.389169 
L 344.370107 84.461221 
L 344.813138 84.236844 
L 345.170544 84.076771 
L 347.63511 82.129247 
L 348.022502 81.902793 
L 349.752845 80.958379 
L 352.681032 78.695998 
L 354.053418 77.996034 
L 354.309538 77.904731 
L 355.064724 77.184492 
L 355.859335 76.440861 
L 356.661253 75.78512 
L 357.656396 75.1627 
L 357.866571 75.046951 
L 358.146328 74.888949 
L 358.430621 74.784009 
L 358.98951 74.37134 
L 359.386105 74.04278 
L 359.902867 73.676556 
L 360.516087 73.210169 
L 361.80851 72.418173 
L 362.427708 72.065428 
L 363.159475 71.75837 
L 363.399309 71.629951 
L 364.992758 70.542709 
L 365.336082 70.33456 
L 366.369622 69.576231 
L 368.467485 68.649207 
L 368.820498 68.526466 
L 371.151523 66.951522 
L 371.692189 66.738171 
L 374.057857 65.743134 
L 375.648844 65.216845 
L 377.259916 64.173141 
L 377.431283 64.081 
L 379.538344 63.075487 
L 379.979725 62.916734 
L 381.102317 62.427489 
L 381.489432 62.277928 
L 383.272005 60.983345 
L 383.790001 60.650053 
L 387.681889 58.499416 
L 388.239836 58.008871 
L 389.098036 57.479508 
L 389.455705 57.258277 
L 389.894802 56.94412 
L 390.29531 56.77909 
L 391.40122 56.190596 
L 391.705425 56.055799 
L 394.259281 53.924405 
L 396.391503 52.779607 
L 398.776815 50.721644 
L 400.663864 49.517773 
L 402.057866 48.177214 
L 402.938825 47.486767 
L 403.405353 47.16841 
L 405.078646 45.802727 
L 406.362892 44.553327 
L 406.856108 44.390014 
L 407.764388 44.010911 
L 408.122022 43.728783 
L 408.454881 43.613142 
L 410.480889 41.746394 
L 411.34002 41.176538 
L 411.617736 40.995454 
L 412.221876 40.605852 
L 412.505278 40.490449 
L 413.180485 39.785529 
L 413.949925 38.950955 
L 414.898598 38.187222 
L 416.669527 37.061147 
L 419.338275 34.716784 
L 419.696424 34.475841 
L 419.855206 34.373217 
L 420.241999 34.238831 
L 422.477469 32.054383 
L 422.752247 31.92382 
L 423.761933 31.238215 
L 424.027662 31.162807 
L 424.226272 30.947464 
L 424.226272 30.947464 
" clip-path="url(#pa949161e4a)" style="fill: none; stroke: #4c72b0; stroke-width: 1.5; stroke-linecap: round"/>
   </g>
   <g id="line2d_13">
    <path d="M 67.63777 278.731129 
L 67.927675 278.620734 
L 68.9602 278.344551 
L 70.75313 277.982534 
L 72.339277 277.653837 
L 75.282948 277.046988 
L 76.31835 276.788526 
L 78.024486 276.407374 
L 81.090617 275.911266 
L 82.647844 275.702013 
L 83.610406 275.536247 
L 85.916195 275.118838 
L 87.702651 274.818007 
L 89.767819 274.429401 
L 92.743912 273.919822 
L 94.458395 273.59951 
L 96.699229 273.188919 
L 98.489985 272.855829 
L 99.799358 272.618601 
L 101.995451 272.204482 
L 104.137362 271.870865 
L 106.679038 271.35972 
L 108.266499 271.0272 
L 110.251926 270.640095 
L 112.076115 270.24594 
L 114.098062 269.813934 
L 116.47744 269.304391 
L 118.661046 268.893577 
L 119.8943 268.644192 
L 122.280949 268.149794 
L 123.074669 268.024614 
L 125.712599 267.410975 
L 127.351923 267.105758 
L 130.131586 266.507271 
L 131.136165 266.288811 
L 133.360184 265.789991 
L 135.347503 265.383787 
L 137.617943 264.893906 
L 139.860525 264.444395 
L 142.284129 263.949413 
L 143.394571 263.748364 
L 146.903658 262.916012 
L 148.939617 262.51978 
L 151.164542 262.054431 
L 152.955437 261.74816 
L 155.946419 261.156752 
L 158.306123 260.762526 
L 163.8817 259.692651 
L 167.547454 259.184602 
L 168.436794 259.043577 
L 170.49781 258.776471 
L 171.578826 258.572601 
L 174.331697 258.01429 
L 176.077523 257.669828 
L 178.986437 257.051383 
L 180.981137 256.637668 
L 183.298888 256.160335 
L 184.582065 255.899051 
L 192.541205 254.254277 
L 193.496585 254.042593 
L 200.178066 252.572063 
L 201.527569 252.34169 
L 202.758897 252.059483 
L 205.947508 251.427264 
L 208.256472 251.011096 
L 210.833984 250.480809 
L 211.988142 250.317546 
L 216.113227 249.504669 
L 217.461373 249.24957 
L 220.958127 248.601189 
L 222.679529 248.308988 
L 230.380885 247.053021 
L 232.532826 246.727139 
L 236.107734 245.909391 
L 236.504964 245.631311 
L 238.219248 244.04133 
L 239.78653 243.450391 
L 240.304 242.946469 
L 241.629555 241.426911 
L 242.187637 240.980135 
L 243.431559 240.69152 
L 244.108317 240.183702 
L 246.257529 237.889933 
L 247.651239 237.111539 
L 248.567613 235.957742 
L 249.123054 235.369927 
L 249.878224 234.68254 
L 250.754136 234.126797 
L 251.349564 233.205711 
L 251.746397 232.763228 
L 253.060505 231.588023 
L 253.840426 231.340291 
L 254.357456 231.079881 
L 255.826939 229.314458 
L 256.303323 228.773305 
L 256.66228 228.505261 
L 257.434414 228.231228 
L 257.832099 227.949273 
L 258.467271 227.208333 
L 258.903907 226.656544 
L 260.263257 225.384741 
L 260.825583 225.180048 
L 261.463696 224.768208 
L 261.940334 224.222747 
L 262.495973 223.572 
L 263.935251 222.259581 
L 264.778161 222.002749 
L 265.255789 221.616712 
L 265.508982 221.30539 
L 266.143569 220.347953 
L 267.494617 219.130986 
L 268.611731 218.717076 
L 268.97679 218.377354 
L 269.373419 217.717703 
L 269.810437 217.159644 
L 271.12561 215.946018 
L 272.244606 215.529561 
L 272.816041 214.634565 
L 273.213146 214.096623 
L 274.407265 212.903517 
L 275.004323 212.69342 
L 275.604134 212.388671 
L 276.007683 211.952076 
L 276.646019 210.981067 
L 277.87909 209.815711 
L 279.209365 209.448997 
L 279.737565 208.966007 
L 281.683977 206.709506 
L 282.298845 206.54882 
L 282.857531 206.314746 
L 283.378226 205.848704 
L 285.124542 203.623995 
L 285.655223 203.494291 
L 286.336651 203.254849 
L 286.894198 202.889657 
L 288.482178 200.897903 
L 288.959113 200.471755 
L 290.078123 200.166978 
L 290.677211 199.917571 
L 292.405454 197.674044 
L 292.810732 197.351819 
L 293.85284 197.069691 
L 294.33237 196.892041 
L 296.531935 194.237165 
L 297.434668 194.017868 
L 297.965334 193.728863 
L 298.641507 192.826299 
L 299.15774 192.179058 
L 300.401356 191.082054 
L 301.450631 190.671578 
L 302.008158 190.097249 
L 302.563659 189.24942 
L 303.278714 188.504844 
L 303.99525 187.967854 
L 304.635884 187.805667 
L 305.193634 187.56437 
L 305.562061 187.327078 
L 305.95981 186.702082 
L 306.55552 185.897193 
L 306.924843 185.533862 
L 307.601878 184.877552 
L 309.021988 184.346175 
L 309.744146 183.441511 
L 310.776165 182.308214 
L 311.453715 181.732658 
L 312.21476 181.447585 
L 312.816869 180.959949 
L 313.38128 180.190609 
L 314.215587 179.259602 
L 314.892111 178.634281 
L 315.930386 178.29391 
L 316.773345 177.304718 
L 317.209927 176.731096 
L 318.682252 175.466262 
L 319.440939 175.183066 
L 320.176862 174.573806 
L 321.011079 173.566821 
L 322.283527 172.396711 
L 322.896979 172.217481 
L 323.455897 171.903287 
L 324.067531 171.257222 
L 324.583917 170.625047 
L 326.031165 169.29731 
L 328.052532 168.580368 
L 328.370388 168.249659 
L 328.965687 167.454084 
L 330.24654 166.192403 
L 331.137985 165.892821 
L 331.623944 165.557833 
L 332.912807 164.063528 
L 334.116951 163.020812 
L 335.083574 162.614132 
L 335.520404 162.309535 
L 336.030484 162.016699 
L 338.13756 159.930048 
L 338.893929 159.726769 
L 339.466701 159.385756 
L 339.972265 158.832055 
L 340.567727 158.034662 
L 341.489752 157.083034 
L 341.850339 156.825632 
L 342.57316 156.639302 
L 343.377549 156.137314 
L 344.242609 155.213443 
L 345.117833 154.606449 
L 345.991714 153.732776 
L 347.319354 153.12449 
L 348.595998 151.701055 
L 349.988207 150.558508 
L 350.827505 150.351224 
L 351.358117 150.136718 
L 353.931864 147.562878 
L 354.211417 147.443384 
L 355.057438 147.107552 
L 357.697567 144.94957 
L 359.093362 144.322431 
L 360.015734 143.839087 
L 361.097433 142.817686 
L 363.12618 141.20199 
L 363.763783 140.95096 
L 365.230358 140.2848 
L 365.866282 139.615653 
L 367.416387 138.36494 
L 367.854692 138.069773 
L 369.025021 137.504564 
L 370.574452 136.092861 
L 371.470662 135.689702 
L 371.789473 135.451652 
L 372.545986 134.918725 
L 373.23528 134.588001 
L 373.926659 133.871174 
L 374.483309 133.258553 
L 376.409814 131.811971 
L 377.846502 131.355353 
L 378.402295 130.982729 
L 379.235962 130.143329 
L 380.152133 129.407353 
L 381.109717 128.773987 
L 382.160122 128.355221 
L 383.633275 127.474873 
L 384.628037 126.917774 
L 385.265798 126.539602 
L 385.631521 126.367414 
L 386.977671 125.674514 
L 388.94125 125.29842 
L 389.398075 125.100726 
L 390.655827 124.368675 
L 391.69325 124.057988 
L 394.716081 122.387629 
L 395.214814 122.183354 
L 397.683298 120.697852 
L 398.652933 120.139267 
L 399.608491 119.502041 
L 400.018613 119.366659 
L 401.139342 118.870399 
L 401.657407 118.532078 
L 401.947585 118.381009 
L 402.862518 117.899628 
L 403.110114 117.75211 
L 403.628416 117.458336 
L 404.802486 116.96466 
L 406.049321 116.305939 
L 407.899866 115.603349 
L 409.19322 114.871097 
L 409.910648 114.581024 
L 411.192442 114.052252 
L 412.195729 113.523791 
L 413.158077 113.097391 
L 414.818502 112.359677 
L 415.471425 111.849434 
L 416.230196 111.449074 
L 418.903159 110.239409 
L 419.401719 110.046694 
L 420.609187 109.669878 
L 422.727893 108.507293 
L 424.084306 107.814999 
L 424.244365 107.71625 
L 424.244365 107.71625 
" clip-path="url(#pa949161e4a)" style="fill: none; stroke: #dd8452; stroke-width: 1.5; stroke-linecap: round"/>
   </g>
   <g id="line2d_14">
    <path d="M 67.63777 278.731129 
L 67.928146 278.626384 
L 69.561804 278.158322 
L 78.065681 276.086383 
L 81.286879 275.404429 
L 84.867836 274.618386 
L 89.872374 273.613602 
L 96.941961 272.002805 
L 107.269141 269.629531 
L 112.234872 268.363586 
L 115.781063 267.568487 
L 141.424355 261.334676 
L 142.390037 261.135827 
L 167.922072 255.422086 
L 171.847487 254.494283 
L 174.188394 253.950308 
L 192.478231 249.789677 
L 193.811602 249.680472 
L 196.188315 249.349034 
L 200.79347 248.501977 
L 203.305095 248.048224 
L 206.846234 247.376905 
L 209.149695 246.973292 
L 213.363485 246.208252 
L 214.158622 245.466079 
L 215.238736 244.231672 
L 215.438733 244.115216 
L 216.805304 243.836847 
L 218.466165 243.301754 
L 218.704137 243.079521 
L 219.109618 242.522927 
L 220.738947 240.844053 
L 221.216297 240.504064 
L 223.569597 237.877523 
L 224.449031 237.601751 
L 225.206237 237.198123 
L 225.487776 236.82182 
L 226.004435 236.105361 
L 227.993899 233.926368 
L 229.794635 231.652421 
L 231.110487 231.179814 
L 231.349192 230.926734 
L 233.315991 228.535003 
L 235.126088 228.030352 
L 235.894087 227.496183 
L 236.359407 226.824966 
L 237.591873 225.41835 
L 238.388377 225.018272 
L 239.253476 223.858854 
L 239.573105 223.503548 
L 240.857332 222.275765 
L 242.693517 221.636324 
L 242.948795 221.377494 
L 243.718597 220.212261 
L 244.938715 219.051588 
L 245.137657 218.861788 
L 247.255788 216.061464 
L 248.740229 215.500519 
L 249.360318 214.54713 
L 249.758111 213.974546 
L 250.793008 212.911368 
L 253.404523 212.130621 
L 253.643426 211.873364 
L 254.198675 211.005989 
L 255.152068 209.918437 
L 255.391293 209.793805 
L 256.23024 209.488797 
L 256.549126 209.101353 
L 258.646107 206.674865 
L 260.259091 206.250348 
L 260.944948 205.851944 
L 262.636468 203.599996 
L 263.156385 203.39425 
L 263.831499 202.524732 
L 264.466254 201.499182 
L 264.912123 201.028018 
L 265.470055 200.461185 
L 267.075332 199.920703 
L 268.882938 197.509331 
L 269.282461 197.326378 
L 271.618469 196.78174 
L 272.378434 196.439399 
L 273.173036 195.180575 
L 274.127658 194.215952 
L 274.981296 193.8782 
L 277.160503 191.116255 
L 278.729652 190.71166 
L 279.566182 190.187138 
L 280.099959 189.383735 
L 280.42563 189.01938 
L 281.578495 187.969247 
L 282.177752 187.69626 
L 283.515595 186.091755 
L 283.972797 185.604551 
L 284.92829 184.826755 
L 285.612027 184.623282 
L 286.450999 184.240001 
L 288.555202 181.794291 
L 291.309198 181.121825 
L 291.881673 180.855809 
L 292.676319 179.758004 
L 293.955994 178.589741 
L 294.922206 178.048183 
L 295.478108 177.29287 
L 295.955077 176.704529 
L 297.26766 175.497923 
L 298.118712 175.255537 
L 299.166735 174.714189 
L 299.484209 174.293972 
L 300.000105 173.680427 
L 300.915151 172.843667 
L 301.553899 172.331794 
L 301.886336 172.086897 
L 303.689371 170.084471 
L 304.608112 169.274386 
L 305.490572 168.99355 
L 306.260107 168.450679 
L 308.680031 166.152574 
L 310.784179 165.661597 
L 311.763106 165.172733 
L 312.715771 164.038051 
L 314.078787 162.938673 
L 314.611508 162.715465 
L 315.460584 161.673976 
L 315.936761 161.105851 
L 317.369754 159.934572 
L 318.576419 159.731113 
L 320.056576 159.201742 
L 322.374451 156.814614 
L 322.854877 156.588427 
L 325.687959 153.69317 
L 327.08848 153.179399 
L 328.142956 152.014881 
L 329.057398 151.227193 
L 329.978478 150.576633 
L 331.840142 150.133363 
L 332.785794 149.705405 
L 332.905055 149.557042 
L 333.420906 148.907752 
L 334.096589 148.243844 
L 335.18437 147.42523 
L 335.841612 147.129263 
L 339.507119 144.327792 
L 341.244896 143.766032 
L 341.78256 143.356328 
L 342.458941 142.660232 
L 343.293173 141.903779 
L 344.289163 141.153892 
L 344.76694 140.825124 
L 346.644568 139.161662 
L 347.597932 138.411003 
L 348.195891 138.073136 
L 348.809576 137.855181 
L 349.425841 137.489 
L 352.313992 135.002625 
L 353.39151 134.758875 
L 355.404244 134.023874 
L 356.130929 133.155979 
L 357.882322 131.795137 
L 358.56915 131.4496 
L 359.174097 130.944488 
L 360.485189 129.693558 
L 361.441569 128.934003 
L 361.760639 128.773706 
L 362.947467 128.473214 
L 364.346056 127.751475 
L 364.982331 127.274033 
L 369.252245 124.773811 
L 369.61348 124.55196 
L 370.010843 124.30987 
L 370.646916 123.975011 
L 371.204413 123.626559 
L 372.4616 122.91373 
L 373.300715 122.48653 
L 374.457568 122.082216 
L 378.501095 119.417152 
L 379.821657 119.150818 
L 381.497753 118.565175 
L 384.754182 116.655272 
L 385.901168 116.172686 
L 387.519704 115.371353 
L 388.317268 114.877006 
L 388.596158 114.728961 
L 389.715232 114.142199 
L 390.590258 113.648682 
L 391.510258 113.205369 
L 392.152997 113.057988 
L 393.283197 112.725316 
L 394.473507 112.100233 
L 394.791388 111.854882 
L 397.06049 110.560501 
L 397.861892 110.134447 
L 398.183903 110.02175 
L 400.180104 109.031635 
L 400.777488 108.610928 
L 403.325524 106.969848 
L 404.220575 106.739829 
L 405.028635 106.34281 
L 405.913016 105.741322 
L 407.513241 104.891719 
L 408.078445 104.690078 
L 410.005292 103.83626 
L 411.439072 103.611393 
L 412.834451 103.130027 
L 414.503068 102.351451 
L 415.741364 101.750266 
L 416.578484 101.299623 
L 417.830074 100.674706 
L 418.947311 100.331254 
L 420.446503 99.397772 
L 421.163955 99.031621 
L 422.595249 98.140182 
L 423.699024 97.577931 
L 424.235648 97.463019 
L 424.235648 97.463019 
" clip-path="url(#pa949161e4a)" style="fill: none; stroke: #55a868; stroke-width: 1.5; stroke-linecap: round"/>
   </g>
   <g id="line2d_15">
    <path d="M 67.63777 278.731129 
L 69.467814 278.625496 
L 70.469109 278.56379 
L 76.132861 278.290681 
L 77.451387 278.192942 
L 82.084606 278.014996 
L 83.788242 277.958204 
L 89.242418 277.725847 
L 97.96287 277.365453 
L 102.004223 277.212971 
L 104.908635 277.120354 
L 110.645183 276.909773 
L 111.862399 276.846033 
L 117.580269 276.633778 
L 131.582589 276.04193 
L 174.44863 274.310506 
L 177.635265 274.165672 
L 182.022077 273.996132 
L 187.25216 273.817068 
L 189.334862 273.70598 
L 193.677214 273.488444 
L 207.581186 272.892548 
L 208.911808 272.835618 
L 211.8214 272.705294 
L 214.547699 272.601811 
L 252.160462 271.14569 
L 268.596342 270.558857 
L 270.714755 270.445467 
L 273.697461 270.326637 
L 275.101285 270.236762 
L 279.018106 270.048268 
L 280.252925 269.976431 
L 285.616158 269.751759 
L 287.763933 269.684295 
L 291.496702 269.506422 
L 300.272441 269.126518 
L 302.945315 268.960081 
L 304.800303 268.903029 
L 325.548227 267.994223 
L 325.548227 267.994223 
" clip-path="url(#pa949161e4a)" style="fill: none; stroke: #c44e52; stroke-width: 1.5; stroke-linecap: round"/>
   </g>
   <g id="line2d_16">
    <path d="M 67.63777 278.731129 
L 67.927928 278.624508 
L 69.358162 278.209602 
L 76.627017 276.334037 
L 79.647426 275.718854 
L 82.224343 275.193408 
L 98.54908 271.621718 
L 122.338613 265.890876 
L 126.988256 264.910537 
L 132.401159 263.61371 
L 133.947791 263.241087 
L 137.992259 262.281903 
L 160.898459 257.636615 
L 165.391921 256.67298 
L 166.703093 256.390072 
L 168.051595 256.138378 
L 172.300453 255.402677 
L 180.983069 253.472369 
L 182.490056 253.198358 
L 183.971971 252.88586 
L 187.794594 251.981787 
L 190.338435 251.526071 
L 191.933241 251.276953 
L 200.127728 249.743809 
L 201.2386 249.585063 
L 204.435954 249.028195 
L 219.434819 246.839555 
L 220.743825 246.667461 
L 223.164388 246.318337 
L 223.654691 246.211716 
L 224.397726 245.393636 
L 225.509599 243.725441 
L 226.305668 242.689746 
L 227.615734 240.592525 
L 228.695244 239.140791 
L 229.926472 237.385579 
L 230.760733 236.196167 
L 231.67366 234.802315 
L 232.706125 233.365351 
L 233.74284 231.678216 
L 235.332019 229.379029 
L 236.046355 228.343528 
L 236.927513 227.265674 
L 238.197856 225.293408 
L 239.0788 224.311085 
L 240.960406 221.629303 
L 241.52819 220.796309 
L 242.627358 218.979723 
L 243.680399 217.564117 
L 244.831525 215.647301 
L 245.546298 214.570024 
L 246.511465 212.846429 
L 247.317325 211.832481 
L 248.731808 209.655364 
L 250.04341 207.73383 
L 250.973792 206.536402 
L 251.577451 205.953897 
L 252.093907 205.293777 
L 253.484432 203.411725 
L 254.340408 202.562028 
L 256.126854 200.162894 
L 257.766377 198.109448 
L 258.641506 197.023347 
L 259.912765 195.376935 
L 260.906982 194.047502 
L 262.219783 192.477291 
L 263.171958 191.075373 
L 264.917913 189.091793 
L 266.846439 186.110804 
L 267.687353 184.702153 
L 268.808394 183.17131 
L 269.682998 181.686609 
L 270.635684 180.49504 
L 272.117469 178.128765 
L 272.951577 176.881637 
L 274.116399 175.121735 
L 275.041263 173.966726 
L 276.128861 172.345972 
L 277.360148 170.819401 
L 278.948634 168.709848 
L 279.665423 167.803806 
L 281.306352 165.427617 
L 282.142753 164.194054 
L 283.148996 162.721894 
L 283.928115 161.748532 
L 285.168922 159.772609 
L 286.144496 158.571753 
L 287.506832 156.423065 
L 287.872129 156.000864 
L 289.184732 153.917662 
L 289.556526 153.468036 
L 290.510207 152.234633 
L 291.874302 150.320234 
L 292.629205 149.393766 
L 293.581598 147.941123 
L 294.296624 147.169727 
L 296.614211 144.601471 
L 297.011475 144.154977 
L 297.249972 143.957153 
L 298.867329 142.002644 
L 299.512021 141.152579 
L 300.575031 140.233903 
L 301.903494 138.542438 
L 302.77894 137.615681 
L 303.867162 136.383367 
L 305.018517 134.823438 
L 306.096585 133.680198 
L 307.698261 131.570148 
L 308.946012 130.197437 
L 309.792766 129.18123 
L 311.015078 128.056043 
L 312.657686 126.480262 
L 313.510165 125.643618 
L 316.799785 123.194134 
L 317.68547 122.498197 
L 319.098229 121.477207 
L 321.931643 118.946247 
L 323.802451 117.582332 
L 325.168497 116.386679 
L 325.647829 116.087652 
L 326.027832 115.84725 
L 326.74731 115.409429 
L 327.005535 115.278672 
L 328.365722 114.151016 
L 329.816462 113.083271 
L 331.343618 112.176204 
L 332.337503 111.188137 
L 335.393678 109.216767 
L 336.071773 108.777798 
L 338.277891 106.753892 
L 339.850081 105.581876 
L 340.565325 104.894655 
L 342.064214 103.596883 
L 343.904981 102.452416 
L 344.762467 101.835595 
L 345.200218 101.556974 
L 346.353603 100.653962 
L 347.964813 99.688761 
L 350.082008 97.753164 
L 350.528848 97.464874 
L 351.830613 96.75356 
L 352.40291 96.331987 
L 354.513007 94.411947 
L 354.752084 94.286378 
L 356.530669 93.028146 
L 358.685285 91.138893 
L 361.17059 89.736008 
L 362.539574 88.612638 
L 363.254446 88.091825 
L 364.937788 87.116011 
L 366.146663 86.097842 
L 367.142435 85.342623 
L 367.722592 85.033422 
L 369.581765 84.059505 
L 372.622749 81.915975 
L 373.496036 81.480087 
L 375.2336 80.359395 
L 376.020367 79.738007 
L 376.656241 79.254273 
L 377.354812 78.785288 
L 379.398394 77.414692 
L 381.377437 75.709828 
L 383.245823 74.624065 
L 383.684351 74.356252 
L 384.002459 74.110107 
L 384.525141 73.730737 
L 385.002273 73.39494 
L 386.116722 72.587569 
L 386.456748 72.455303 
L 388.299442 71.561535 
L 388.897163 71.287516 
L 389.285125 71.10706 
L 390.517353 70.213731 
L 391.39171 69.624762 
L 392.020234 69.366682 
L 394.020184 68.456852 
L 395.981312 67.048288 
L 397.883745 66.172623 
L 398.764918 65.84915 
L 399.405275 65.67132 
L 400.834989 65.099783 
L 404.140756 63.23165 
L 405.100836 62.936317 
L 406.801608 62.331373 
L 407.095957 62.222197 
L 409.108824 60.784049 
L 412.025238 59.312372 
L 412.44587 59.178094 
L 415.538951 56.872579 
L 416.306955 56.478786 
L 416.746706 56.244098 
L 417.686077 55.702433 
L 420.114516 53.825519 
L 420.879037 53.426559 
L 421.526824 53.078359 
L 421.904266 52.932825 
L 423.017075 51.91962 
L 424.249418 50.870238 
L 424.249418 50.870238 
" clip-path="url(#pa949161e4a)" style="fill: none; stroke: #8172b3; stroke-width: 1.5; stroke-linecap: round"/>
   </g>
   <g id="line2d_17">
    <path d="M 67.63777 246.313885 
" clip-path="url(#pa949161e4a)" style="fill: none; stroke-dasharray: 5.55,2.4; stroke-dashoffset: 0; stroke: #4c72b0; stroke-width: 1.5"/>
   </g>
   <g id="line2d_18">
    <path d="M 67.63777 159.036691 
" clip-path="url(#pa949161e4a)" style="fill: none; stroke-dasharray: 5.55,2.4; stroke-dashoffset: 0; stroke: #4c72b0; stroke-width: 1.5"/>
   </g>
   <g id="line2d_19">
    <path d="M 67.63777 112.281051 
" clip-path="url(#pa949161e4a)" style="fill: none; stroke-dasharray: 5.55,2.4; stroke-dashoffset: 0; stroke: #4c72b0; stroke-width: 1.5"/>
   </g>
   <g id="patch_3">
    <path d="M 49.807187 291.120312 
L 49.807187 18.558281 
" style="fill: none; stroke: #ffffff; stroke-width: 1.25; stroke-linejoin: miter; stroke-linecap: square"/>
   </g>
   <g id="patch_4">
    <path d="M 442.08 291.120312 
L 442.08 18.558281 
" style="fill: none; stroke: #ffffff; stroke-width: 1.25; stroke-linejoin: miter; stroke-linecap: square"/>
   </g>
   <g id="patch_5">
    <path d="M 49.807187 291.120312 
L 442.08 291.120312 
" style="fill: none; stroke: #ffffff; stroke-width: 1.25; stroke-linejoin: miter; stroke-linecap: square"/>
   </g>
   <g id="patch_6">
    <path d="M 49.807187 18.558281 
L 442.08 18.558281 
" style="fill: none; stroke: #ffffff; stroke-width: 1.25; stroke-linejoin: miter; stroke-linecap: square"/>
   </g>
  </g>
  <g id="legend_1">
   <g id="patch_7">
    <path d="M 459.284 186.014844 
L 745.103531 186.014844 
Q 747.303531 186.014844 747.303531 183.814844 
L 747.303531 104.185156 
Q 747.303531 101.985156 745.103531 101.985156 
L 459.284 101.985156 
Q 457.084 101.985156 457.084 104.185156 
L 457.084 183.814844 
Q 457.084 186.014844 459.284 186.014844 
z
" style="fill: #eaeaf2; opacity: 0.8; stroke: #cccccc; stroke-linejoin: miter"/>
   </g>
   <g id="line2d_20">
    <path d="M 461.484 110.893437 
L 472.484 110.893437 
L 483.484 110.893437 
" style="fill: none; stroke: #4c72b0; stroke-width: 1.5; stroke-linecap: round"/>
   </g>
   <g id="line2d_21">
    <path d="M 461.484 110.893437 
L 472.484 110.893437 
L 483.484 110.893437 
" style="fill: none; stroke-dasharray: 5.55,2.4; stroke-dashoffset: 0; stroke: #4c72b0; stroke-width: 1.5"/>
   </g>
   <g id="text_15">
    <!-- Baseline -->
    <g style="fill: #262626" transform="translate(492.284 114.743437)scale(0.11 -0.11)">
     <defs>
      <path id="DejaVuSans-42" d="M 1259 2228 
L 1259 519 
L 2272 519 
Q 2781 519 3026 730 
Q 3272 941 3272 1375 
Q 3272 1813 3026 2020 
Q 2781 2228 2272 2228 
L 1259 2228 
z
M 1259 4147 
L 1259 2741 
L 2194 2741 
Q 2656 2741 2882 2914 
Q 3109 3088 3109 3444 
Q 3109 3797 2882 3972 
Q 2656 4147 2194 4147 
L 1259 4147 
z
M 628 4666 
L 2241 4666 
Q 2963 4666 3353 4366 
Q 3744 4066 3744 3513 
Q 3744 3084 3544 2831 
Q 3344 2578 2956 2516 
Q 3422 2416 3680 2098 
Q 3938 1781 3938 1306 
Q 3938 681 3513 340 
Q 3088 0 2303 0 
L 628 0 
L 628 4666 
z
" transform="scale(0.015625)"/>
      <path id="DejaVuSans-61" d="M 2194 1759 
Q 1497 1759 1228 1600 
Q 959 1441 959 1056 
Q 959 750 1161 570 
Q 1363 391 1709 391 
Q 2188 391 2477 730 
Q 2766 1069 2766 1631 
L 2766 1759 
L 2194 1759 
z
M 3341 1997 
L 3341 0 
L 2766 0 
L 2766 531 
Q 2569 213 2275 61 
Q 1981 -91 1556 -91 
Q 1019 -91 701 211 
Q 384 513 384 1019 
Q 384 1609 779 1909 
Q 1175 2209 1959 2209 
L 2766 2209 
L 2766 2266 
Q 2766 2663 2505 2880 
Q 2244 3097 1772 3097 
Q 1472 3097 1187 3025 
Q 903 2953 641 2809 
L 641 3341 
Q 956 3463 1253 3523 
Q 1550 3584 1831 3584 
Q 2591 3584 2966 3190 
Q 3341 2797 3341 1997 
z
" transform="scale(0.015625)"/>
      <path id="DejaVuSans-73" d="M 2834 3397 
L 2834 2853 
Q 2591 2978 2328 3040 
Q 2066 3103 1784 3103 
Q 1356 3103 1142 2972 
Q 928 2841 928 2578 
Q 928 2378 1081 2264 
Q 1234 2150 1697 2047 
L 1894 2003 
Q 2506 1872 2764 1633 
Q 3022 1394 3022 966 
Q 3022 478 2636 193 
Q 2250 -91 1575 -91 
Q 1294 -91 989 -36 
Q 684 19 347 128 
L 347 722 
Q 666 556 975 473 
Q 1284 391 1588 391 
Q 1994 391 2212 530 
Q 2431 669 2431 922 
Q 2431 1156 2273 1281 
Q 2116 1406 1581 1522 
L 1381 1569 
Q 847 1681 609 1914 
Q 372 2147 372 2553 
Q 372 3047 722 3315 
Q 1072 3584 1716 3584 
Q 2034 3584 2315 3537 
Q 2597 3491 2834 3397 
z
" transform="scale(0.015625)"/>
     </defs>
     <use xlink:href="#DejaVuSans-42"/>
     <use xlink:href="#DejaVuSans-61" x="68.603516"/>
     <use xlink:href="#DejaVuSans-73" x="129.882812"/>
     <use xlink:href="#DejaVuSans-65" x="181.982422"/>
     <use xlink:href="#DejaVuSans-6c" x="243.505859"/>
     <use xlink:href="#DejaVuSans-69" x="271.289062"/>
     <use xlink:href="#DejaVuSans-6e" x="299.072266"/>
     <use xlink:href="#DejaVuSans-65" x="362.451172"/>
    </g>
   </g>
   <g id="line2d_22">
    <path d="M 461.484 127.039375 
L 472.484 127.039375 
L 483.484 127.039375 
" style="fill: none; stroke: #dd8452; stroke-width: 1.5; stroke-linecap: round"/>
   </g>
   <g id="line2d_23">
    <path d="M 461.484 127.039375 
L 472.484 127.039375 
L 483.484 127.039375 
" style="fill: none; stroke-dasharray: 5.55,2.4; stroke-dashoffset: 0; stroke: #dd8452; stroke-width: 1.5"/>
   </g>
   <g id="text_16">
    <!-- Prototype, clustered jumps every 3000/f slots -->
    <g style="fill: #262626" transform="translate(492.284 130.889375)scale(0.11 -0.11)">
     <defs>
      <path id="DejaVuSans-50" d="M 1259 4147 
L 1259 2394 
L 2053 2394 
Q 2494 2394 2734 2622 
Q 2975 2850 2975 3272 
Q 2975 3691 2734 3919 
Q 2494 4147 2053 4147 
L 1259 4147 
z
M 628 4666 
L 2053 4666 
Q 2838 4666 3239 4311 
Q 3641 3956 3641 3272 
Q 3641 2581 3239 2228 
Q 2838 1875 2053 1875 
L 1259 1875 
L 1259 0 
L 628 0 
L 628 4666 
z
" transform="scale(0.015625)"/>
      <path id="DejaVuSans-72" d="M 2631 2963 
Q 2534 3019 2420 3045 
Q 2306 3072 2169 3072 
Q 1681 3072 1420 2755 
Q 1159 2438 1159 1844 
L 1159 0 
L 581 0 
L 581 3500 
L 1159 3500 
L 1159 2956 
Q 1341 3275 1631 3429 
Q 1922 3584 2338 3584 
Q 2397 3584 2469 3576 
Q 2541 3569 2628 3553 
L 2631 2963 
z
" transform="scale(0.015625)"/>
      <path id="DejaVuSans-79" d="M 2059 -325 
Q 1816 -950 1584 -1140 
Q 1353 -1331 966 -1331 
L 506 -1331 
L 506 -850 
L 844 -850 
Q 1081 -850 1212 -737 
Q 1344 -625 1503 -206 
L 1606 56 
L 191 3500 
L 800 3500 
L 1894 763 
L 2988 3500 
L 3597 3500 
L 2059 -325 
z
" transform="scale(0.015625)"/>
      <path id="DejaVuSans-70" d="M 1159 525 
L 1159 -1331 
L 581 -1331 
L 581 3500 
L 1159 3500 
L 1159 2969 
Q 1341 3281 1617 3432 
Q 1894 3584 2278 3584 
Q 2916 3584 3314 3078 
Q 3713 2572 3713 1747 
Q 3713 922 3314 415 
Q 2916 -91 2278 -91 
Q 1894 -91 1617 61 
Q 1341 213 1159 525 
z
M 3116 1747 
Q 3116 2381 2855 2742 
Q 2594 3103 2138 3103 
Q 1681 3103 1420 2742 
Q 1159 2381 1159 1747 
Q 1159 1113 1420 752 
Q 1681 391 2138 391 
Q 2594 391 2855 752 
Q 3116 1113 3116 1747 
z
" transform="scale(0.015625)"/>
      <path id="DejaVuSans-2c" d="M 750 794 
L 1409 794 
L 1409 256 
L 897 -744 
L 494 -744 
L 750 256 
L 750 794 
z
" transform="scale(0.015625)"/>
      <path id="DejaVuSans-63" d="M 3122 3366 
L 3122 2828 
Q 2878 2963 2633 3030 
Q 2388 3097 2138 3097 
Q 1578 3097 1268 2742 
Q 959 2388 959 1747 
Q 959 1106 1268 751 
Q 1578 397 2138 397 
Q 2388 397 2633 464 
Q 2878 531 3122 666 
L 3122 134 
Q 2881 22 2623 -34 
Q 2366 -91 2075 -91 
Q 1284 -91 818 406 
Q 353 903 353 1747 
Q 353 2603 823 3093 
Q 1294 3584 2113 3584 
Q 2378 3584 2631 3529 
Q 2884 3475 3122 3366 
z
" transform="scale(0.015625)"/>
      <path id="DejaVuSans-75" d="M 544 1381 
L 544 3500 
L 1119 3500 
L 1119 1403 
Q 1119 906 1312 657 
Q 1506 409 1894 409 
Q 2359 409 2629 706 
Q 2900 1003 2900 1516 
L 2900 3500 
L 3475 3500 
L 3475 0 
L 2900 0 
L 2900 538 
Q 2691 219 2414 64 
Q 2138 -91 1772 -91 
Q 1169 -91 856 284 
Q 544 659 544 1381 
z
M 1991 3584 
L 1991 3584 
z
" transform="scale(0.015625)"/>
      <path id="DejaVuSans-64" d="M 2906 2969 
L 2906 4863 
L 3481 4863 
L 3481 0 
L 2906 0 
L 2906 525 
Q 2725 213 2448 61 
Q 2172 -91 1784 -91 
Q 1150 -91 751 415 
Q 353 922 353 1747 
Q 353 2572 751 3078 
Q 1150 3584 1784 3584 
Q 2172 3584 2448 3432 
Q 2725 3281 2906 2969 
z
M 947 1747 
Q 947 1113 1208 752 
Q 1469 391 1925 391 
Q 2381 391 2643 752 
Q 2906 1113 2906 1747 
Q 2906 2381 2643 2742 
Q 2381 3103 1925 3103 
Q 1469 3103 1208 2742 
Q 947 2381 947 1747 
z
" transform="scale(0.015625)"/>
      <path id="DejaVuSans-6a" d="M 603 3500 
L 1178 3500 
L 1178 -63 
Q 1178 -731 923 -1031 
Q 669 -1331 103 -1331 
L -116 -1331 
L -116 -844 
L 38 -844 
Q 366 -844 484 -692 
Q 603 -541 603 -63 
L 603 3500 
z
M 603 4863 
L 1178 4863 
L 1178 4134 
L 603 4134 
L 603 4863 
z
" transform="scale(0.015625)"/>
      <path id="DejaVuSans-76" d="M 191 3500 
L 800 3500 
L 1894 563 
L 2988 3500 
L 3597 3500 
L 2284 0 
L 1503 0 
L 191 3500 
z
" transform="scale(0.015625)"/>
      <path id="DejaVuSans-2f" d="M 1625 4666 
L 2156 4666 
L 531 -594 
L 0 -594 
L 1625 4666 
z
" transform="scale(0.015625)"/>
      <path id="DejaVuSans-66" d="M 2375 4863 
L 2375 4384 
L 1825 4384 
Q 1516 4384 1395 4259 
Q 1275 4134 1275 3809 
L 1275 3500 
L 2222 3500 
L 2222 3053 
L 1275 3053 
L 1275 0 
L 697 0 
L 697 3053 
L 147 3053 
L 147 3500 
L 697 3500 
L 697 3744 
Q 697 4328 969 4595 
Q 1241 4863 1831 4863 
L 2375 4863 
z
" transform="scale(0.015625)"/>
     </defs>
     <use xlink:href="#DejaVuSans-50"/>
     <use xlink:href="#DejaVuSans-72" x="58.552734"/>
     <use xlink:href="#DejaVuSans-6f" x="97.416016"/>
     <use xlink:href="#DejaVuSans-74" x="158.597656"/>
     <use xlink:href="#DejaVuSans-6f" x="197.806641"/>
     <use xlink:href="#DejaVuSans-74" x="258.988281"/>
     <use xlink:href="#DejaVuSans-79" x="298.197266"/>
     <use xlink:href="#DejaVuSans-70" x="357.376953"/>
     <use xlink:href="#DejaVuSans-65" x="420.853516"/>
     <use xlink:href="#DejaVuSans-2c" x="482.376953"/>
     <use xlink:href="#DejaVuSans-20" x="514.164062"/>
     <use xlink:href="#DejaVuSans-63" x="545.951172"/>
     <use xlink:href="#DejaVuSans-6c" x="600.931641"/>
     <use xlink:href="#DejaVuSans-75" x="628.714844"/>
     <use xlink:href="#DejaVuSans-73" x="692.09375"/>
     <use xlink:href="#DejaVuSans-74" x="744.193359"/>
     <use xlink:href="#DejaVuSans-65" x="783.402344"/>
     <use xlink:href="#DejaVuSans-72" x="844.925781"/>
     <use xlink:href="#DejaVuSans-65" x="883.789062"/>
     <use xlink:href="#DejaVuSans-64" x="945.3125"/>
     <use xlink:href="#DejaVuSans-20" x="1008.789062"/>
     <use xlink:href="#DejaVuSans-6a" x="1040.576172"/>
     <use xlink:href="#DejaVuSans-75" x="1068.359375"/>
     <use xlink:href="#DejaVuSans-6d" x="1131.738281"/>
     <use xlink:href="#DejaVuSans-70" x="1229.150391"/>
     <use xlink:href="#DejaVuSans-73" x="1292.626953"/>
     <use xlink:href="#DejaVuSans-20" x="1344.726562"/>
     <use xlink:href="#DejaVuSans-65" x="1376.513672"/>
     <use xlink:href="#DejaVuSans-76" x="1438.037109"/>
     <use xlink:href="#DejaVuSans-65" x="1497.216797"/>
     <use xlink:href="#DejaVuSans-72" x="1558.740234"/>
     <use xlink:href="#DejaVuSans-79" x="1599.853516"/>
     <use xlink:href="#DejaVuSans-20" x="1659.033203"/>
     <use xlink:href="#DejaVuSans-33" x="1690.820312"/>
     <use xlink:href="#DejaVuSans-30" x="1754.443359"/>
     <use xlink:href="#DejaVuSans-30" x="1818.066406"/>
     <use xlink:href="#DejaVuSans-30" x="1881.689453"/>
     <use xlink:href="#DejaVuSans-2f" x="1945.3125"/>
     <use xlink:href="#DejaVuSans-66" x="1979.003906"/>
     <use xlink:href="#DejaVuSans-20" x="2014.208984"/>
     <use xlink:href="#DejaVuSans-73" x="2045.996094"/>
     <use xlink:href="#DejaVuSans-6c" x="2098.095703"/>
     <use xlink:href="#DejaVuSans-6f" x="2125.878906"/>
     <use xlink:href="#DejaVuSans-74" x="2187.060547"/>
     <use xlink:href="#DejaVuSans-73" x="2226.269531"/>
    </g>
   </g>
   <g id="line2d_24">
    <path d="M 461.484 143.185312 
L 472.484 143.185312 
L 483.484 143.185312 
" style="fill: none; stroke: #55a868; stroke-width: 1.5; stroke-linecap: round"/>
   </g>
   <g id="line2d_25">
    <path d="M 461.484 143.185312 
L 472.484 143.185312 
L 483.484 143.185312 
" style="fill: none; stroke-dasharray: 5.55,2.4; stroke-dashoffset: 0; stroke: #55a868; stroke-width: 1.5"/>
   </g>
   <g id="text_17">
    <!-- Prototype, clustered jumps every 6000/f slots -->
    <g style="fill: #262626" transform="translate(492.284 147.035312)scale(0.11 -0.11)">
     <defs>
      <path id="DejaVuSans-36" d="M 2113 2584 
Q 1688 2584 1439 2293 
Q 1191 2003 1191 1497 
Q 1191 994 1439 701 
Q 1688 409 2113 409 
Q 2538 409 2786 701 
Q 3034 994 3034 1497 
Q 3034 2003 2786 2293 
Q 2538 2584 2113 2584 
z
M 3366 4563 
L 3366 3988 
Q 3128 4100 2886 4159 
Q 2644 4219 2406 4219 
Q 1781 4219 1451 3797 
Q 1122 3375 1075 2522 
Q 1259 2794 1537 2939 
Q 1816 3084 2150 3084 
Q 2853 3084 3261 2657 
Q 3669 2231 3669 1497 
Q 3669 778 3244 343 
Q 2819 -91 2113 -91 
Q 1303 -91 875 529 
Q 447 1150 447 2328 
Q 447 3434 972 4092 
Q 1497 4750 2381 4750 
Q 2619 4750 2861 4703 
Q 3103 4656 3366 4563 
z
" transform="scale(0.015625)"/>
     </defs>
     <use xlink:href="#DejaVuSans-50"/>
     <use xlink:href="#DejaVuSans-72" x="58.552734"/>
     <use xlink:href="#DejaVuSans-6f" x="97.416016"/>
     <use xlink:href="#DejaVuSans-74" x="158.597656"/>
     <use xlink:href="#DejaVuSans-6f" x="197.806641"/>
     <use xlink:href="#DejaVuSans-74" x="258.988281"/>
     <use xlink:href="#DejaVuSans-79" x="298.197266"/>
     <use xlink:href="#DejaVuSans-70" x="357.376953"/>
     <use xlink:href="#DejaVuSans-65" x="420.853516"/>
     <use xlink:href="#DejaVuSans-2c" x="482.376953"/>
     <use xlink:href="#DejaVuSans-20" x="514.164062"/>
     <use xlink:href="#DejaVuSans-63" x="545.951172"/>
     <use xlink:href="#DejaVuSans-6c" x="600.931641"/>
     <use xlink:href="#DejaVuSans-75" x="628.714844"/>
     <use xlink:href="#DejaVuSans-73" x="692.09375"/>
     <use xlink:href="#DejaVuSans-74" x="744.193359"/>
     <use xlink:href="#DejaVuSans-65" x="783.402344"/>
     <use xlink:href="#DejaVuSans-72" x="844.925781"/>
     <use xlink:href="#DejaVuSans-65" x="883.789062"/>
     <use xlink:href="#DejaVuSans-64" x="945.3125"/>
     <use xlink:href="#DejaVuSans-20" x="1008.789062"/>
     <use xlink:href="#DejaVuSans-6a" x="1040.576172"/>
     <use xlink:href="#DejaVuSans-75" x="1068.359375"/>
     <use xlink:href="#DejaVuSans-6d" x="1131.738281"/>
     <use xlink:href="#DejaVuSans-70" x="1229.150391"/>
     <use xlink:href="#DejaVuSans-73" x="1292.626953"/>
     <use xlink:href="#DejaVuSans-20" x="1344.726562"/>
     <use xlink:href="#DejaVuSans-65" x="1376.513672"/>
     <use xlink:href="#DejaVuSans-76" x="1438.037109"/>
     <use xlink:href="#DejaVuSans-65" x="1497.216797"/>
     <use xlink:href="#DejaVuSans-72" x="1558.740234"/>
     <use xlink:href="#DejaVuSans-79" x="1599.853516"/>
     <use xlink:href="#DejaVuSans-20" x="1659.033203"/>
     <use xlink:href="#DejaVuSans-36" x="1690.820312"/>
     <use xlink:href="#DejaVuSans-30" x="1754.443359"/>
     <use xlink:href="#DejaVuSans-30" x="1818.066406"/>
     <use xlink:href="#DejaVuSans-30" x="1881.689453"/>
     <use xlink:href="#DejaVuSans-2f" x="1945.3125"/>
     <use xlink:href="#DejaVuSans-66" x="1979.003906"/>
     <use xlink:href="#DejaVuSans-20" x="2014.208984"/>
     <use xlink:href="#DejaVuSans-73" x="2045.996094"/>
     <use xlink:href="#DejaVuSans-6c" x="2098.095703"/>
     <use xlink:href="#DejaVuSans-6f" x="2125.878906"/>
     <use xlink:href="#DejaVuSans-74" x="2187.060547"/>
     <use xlink:href="#DejaVuSans-73" x="2226.269531"/>
    </g>
   </g>
   <g id="line2d_26">
    <path d="M 461.484 159.33125 
L 472.484 159.33125 
L 483.484 159.33125 
" style="fill: none; stroke: #c44e52; stroke-width: 1.5; stroke-linecap: round"/>
   </g>
   <g id="line2d_27">
    <path d="M 461.484 159.33125 
L 472.484 159.33125 
L 483.484 159.33125 
" style="fill: none; stroke-dasharray: 5.55,2.4; stroke-dashoffset: 0; stroke: #c44e52; stroke-width: 1.5"/>
   </g>
   <g id="text_18">
    <!-- Baseline with multiple peers -->
    <g style="fill: #262626" transform="translate(492.284 163.18125)scale(0.11 -0.11)">
     <defs>
      <path id="DejaVuSans-77" d="M 269 3500 
L 844 3500 
L 1563 769 
L 2278 3500 
L 2956 3500 
L 3675 769 
L 4391 3500 
L 4966 3500 
L 4050 0 
L 3372 0 
L 2619 2869 
L 1863 0 
L 1184 0 
L 269 3500 
z
" transform="scale(0.015625)"/>
     </defs>
     <use xlink:href="#DejaVuSans-42"/>
     <use xlink:href="#DejaVuSans-61" x="68.603516"/>
     <use xlink:href="#DejaVuSans-73" x="129.882812"/>
     <use xlink:href="#DejaVuSans-65" x="181.982422"/>
     <use xlink:href="#DejaVuSans-6c" x="243.505859"/>
     <use xlink:href="#DejaVuSans-69" x="271.289062"/>
     <use xlink:href="#DejaVuSans-6e" x="299.072266"/>
     <use xlink:href="#DejaVuSans-65" x="362.451172"/>
     <use xlink:href="#DejaVuSans-20" x="423.974609"/>
     <use xlink:href="#DejaVuSans-77" x="455.761719"/>
     <use xlink:href="#DejaVuSans-69" x="537.548828"/>
     <use xlink:href="#DejaVuSans-74" x="565.332031"/>
     <use xlink:href="#DejaVuSans-68" x="604.541016"/>
     <use xlink:href="#DejaVuSans-20" x="667.919922"/>
     <use xlink:href="#DejaVuSans-6d" x="699.707031"/>
     <use xlink:href="#DejaVuSans-75" x="797.119141"/>
     <use xlink:href="#DejaVuSans-6c" x="860.498047"/>
     <use xlink:href="#DejaVuSans-74" x="888.28125"/>
     <use xlink:href="#DejaVuSans-69" x="927.490234"/>
     <use xlink:href="#DejaVuSans-70" x="955.273438"/>
     <use xlink:href="#DejaVuSans-6c" x="1018.75"/>
     <use xlink:href="#DejaVuSans-65" x="1046.533203"/>
     <use xlink:href="#DejaVuSans-20" x="1108.056641"/>
     <use xlink:href="#DejaVuSans-70" x="1139.84375"/>
     <use xlink:href="#DejaVuSans-65" x="1203.320312"/>
     <use xlink:href="#DejaVuSans-65" x="1264.84375"/>
     <use xlink:href="#DejaVuSans-72" x="1326.367188"/>
     <use xlink:href="#DejaVuSans-73" x="1367.480469"/>
    </g>
   </g>
   <g id="line2d_28">
    <path d="M 461.484 175.477187 
L 472.484 175.477187 
L 483.484 175.477187 
" style="fill: none; stroke: #8172b3; stroke-width: 1.5; stroke-linecap: round"/>
   </g>
   <g id="line2d_29">
    <path d="M 461.484 175.477187 
L 472.484 175.477187 
L 483.484 175.477187 
" style="fill: none; stroke-dasharray: 5.55,2.4; stroke-dashoffset: 0; stroke: #8172b3; stroke-width: 1.5"/>
   </g>
   <g id="text_19">
    <!-- Prototype, with jump interval  -->
    <g style="fill: #262626" transform="translate(492.284 179.327187)scale(0.11 -0.11)">
     <defs>
      <path id="DejaVuSans-221e" d="M 2916 1091 
Q 2819 1203 2666 1466 
Q 2456 1091 2272 925 
Q 2041 725 1681 725 
Q 1259 725 981 1041 
Q 688 1372 688 1919 
Q 688 2444 981 2800 
Q 1244 3116 1688 3116 
Q 1916 3116 2084 3022 
Q 2281 2919 2416 2741 
Q 2541 2581 2666 2366 
Q 2875 2741 3059 2906 
Q 3291 3106 3650 3106 
Q 4072 3106 4350 2791 
Q 4644 2459 4644 1913 
Q 4644 1388 4350 1031 
Q 4088 716 3644 716 
Q 3416 716 3247 809 
Q 3078 894 2916 1091 
z
M 1647 1134 
Q 2163 1134 2472 1884 
Q 2075 2703 1647 2703 
Q 1334 2703 1175 2478 
Q 1003 2238 1003 1919 
Q 1003 1569 1175 1353 
Q 1350 1134 1647 1134 
z
M 3684 2697 
Q 3219 2697 2859 1947 
Q 3253 1128 3684 1128 
Q 3997 1128 4156 1353 
Q 4328 1594 4328 1913 
Q 4328 2263 4156 2478 
Q 3981 2697 3684 2697 
z
" transform="scale(0.015625)"/>
     </defs>
     <use xlink:href="#DejaVuSans-50"/>
     <use xlink:href="#DejaVuSans-72" x="58.552734"/>
     <use xlink:href="#DejaVuSans-6f" x="97.416016"/>
     <use xlink:href="#DejaVuSans-74" x="158.597656"/>
     <use xlink:href="#DejaVuSans-6f" x="197.806641"/>
     <use xlink:href="#DejaVuSans-74" x="258.988281"/>
     <use xlink:href="#DejaVuSans-79" x="298.197266"/>
     <use xlink:href="#DejaVuSans-70" x="357.376953"/>
     <use xlink:href="#DejaVuSans-65" x="420.853516"/>
     <use xlink:href="#DejaVuSans-2c" x="482.376953"/>
     <use xlink:href="#DejaVuSans-20" x="514.164062"/>
     <use xlink:href="#DejaVuSans-77" x="545.951172"/>
     <use xlink:href="#DejaVuSans-69" x="627.738281"/>
     <use xlink:href="#DejaVuSans-74" x="655.521484"/>
     <use xlink:href="#DejaVuSans-68" x="694.730469"/>
     <use xlink:href="#DejaVuSans-20" x="758.109375"/>
     <use xlink:href="#DejaVuSans-6a" x="789.896484"/>
     <use xlink:href="#DejaVuSans-75" x="817.679688"/>
     <use xlink:href="#DejaVuSans-6d" x="881.058594"/>
     <use xlink:href="#DejaVuSans-70" x="978.470703"/>
     <use xlink:href="#DejaVuSans-20" x="1041.947266"/>
     <use xlink:href="#DejaVuSans-69" x="1073.734375"/>
     <use xlink:href="#DejaVuSans-6e" x="1101.517578"/>
     <use xlink:href="#DejaVuSans-74" x="1164.896484"/>
     <use xlink:href="#DejaVuSans-65" x="1204.105469"/>
     <use xlink:href="#DejaVuSans-72" x="1265.628906"/>
     <use xlink:href="#DejaVuSans-76" x="1306.742188"/>
     <use xlink:href="#DejaVuSans-61" x="1365.921875"/>
     <use xlink:href="#DejaVuSans-6c" x="1427.201172"/>
     <use xlink:href="#DejaVuSans-20" x="1454.984375"/>
     <use xlink:href="#DejaVuSans-221e" x="1486.771484"/>
    </g>
   </g>
  </g>
 </g>
 <defs>
  <clipPath id="pa949161e4a">
   <rect x="49.807187" y="18.558281" width="392.272812" height="272.562031"/>
  </clipPath>
 </defs>
</svg>
