<?xml version="1.0" encoding="utf-8" standalone="no"?>
<!DOCTYPE svg PUBLIC "-//W3C//DTD SVG 1.1//EN"
  "http://www.w3.org/Graphics/SVG/1.1/DTD/svg11.dtd">
<svg xmlns:xlink="http://www.w3.org/1999/xlink" width="490.136871pt" height="344.279942pt" viewBox="0 0 490.136871 344.279942" xmlns="http://www.w3.org/2000/svg" version="1.1">
 <metadata>
  <rdf:RDF xmlns:dc="http://purl.org/dc/elements/1.1/" xmlns:cc="http://creativecommons.org/ns#" xmlns:rdf="http://www.w3.org/1999/02/22-rdf-syntax-ns#">
   <cc:Work>
    <dc:type rdf:resource="http://purl.org/dc/dcmitype/StillImage"/>
    <dc:date>2022-10-19T12:30:35.894508</dc:date>
    <dc:format>image/svg+xml</dc:format>
    <dc:creator>
     <cc:Agent>
      <dc:title>Matplotlib v3.5.2, https://matplotlib.org/</dc:title>
     </cc:Agent>
    </dc:creator>
   </cc:Work>
  </rdf:RDF>
 </metadata>
 <defs>
  <style type="text/css">*{stroke-linejoin: round; stroke-linecap: butt}</style>
 </defs>
 <g id="figure_1">
  <g id="patch_1">
   <path d="M 0 344.279942 
L 490.136871 344.279942 
L 490.136871 0 
L 0 0 
z
" style="fill: #ffffff"/>
  </g>
  <g id="axes_1">
   <g id="patch_2">
    <path d="M 47.381679 326.082538 
L 400.894371 326.082538 
L 400.894371 30.685 
L 47.381679 30.685 
z
" style="fill: #ffffff"/>
   </g>
   <g id="matplotlib.axis_1">
    <g id="xtick_1">
     <g id="line2d_1">
      <defs>
       <path id="mb9b091ab6c" d="M 0 0 
L 0 3.5 
" style="stroke: #000000; stroke-width: 0.8"/>
      </defs>
      <g>
       <use xlink:href="#mb9b091ab6c" x="54.18" y="320.401817" style="stroke: #000000; stroke-width: 0.8"/>
      </g>
     </g>
    </g>
    <g id="xtick_2">
     <g id="line2d_2">
      <g>
       <use xlink:href="#mb9b091ab6c" x="99.502673" y="320.401817" style="stroke: #000000; stroke-width: 0.8"/>
      </g>
     </g>
     <g id="text_1">
      <!-- 0.2 -->
      <g transform="translate(91.551111 335.000254)scale(0.1 -0.1)">
       <defs>
        <path id="DejaVuSans-30" d="M 2034 4250 
Q 1547 4250 1301 3770 
Q 1056 3291 1056 2328 
Q 1056 1369 1301 889 
Q 1547 409 2034 409 
Q 2525 409 2770 889 
Q 3016 1369 3016 2328 
Q 3016 3291 2770 3770 
Q 2525 4250 2034 4250 
z
M 2034 4750 
Q 2819 4750 3233 4129 
Q 3647 3509 3647 2328 
Q 3647 1150 3233 529 
Q 2819 -91 2034 -91 
Q 1250 -91 836 529 
Q 422 1150 422 2328 
Q 422 3509 836 4129 
Q 1250 4750 2034 4750 
z
" transform="scale(0.015625)"/>
        <path id="DejaVuSans-2e" d="M 684 794 
L 1344 794 
L 1344 0 
L 684 0 
L 684 794 
z
" transform="scale(0.015625)"/>
        <path id="DejaVuSans-32" d="M 1228 531 
L 3431 531 
L 3431 0 
L 469 0 
L 469 531 
Q 828 903 1448 1529 
Q 2069 2156 2228 2338 
Q 2531 2678 2651 2914 
Q 2772 3150 2772 3378 
Q 2772 3750 2511 3984 
Q 2250 4219 1831 4219 
Q 1534 4219 1204 4116 
Q 875 4013 500 3803 
L 500 4441 
Q 881 4594 1212 4672 
Q 1544 4750 1819 4750 
Q 2544 4750 2975 4387 
Q 3406 4025 3406 3419 
Q 3406 3131 3298 2873 
Q 3191 2616 2906 2266 
Q 2828 2175 2409 1742 
Q 1991 1309 1228 531 
z
" transform="scale(0.015625)"/>
       </defs>
       <use xlink:href="#DejaVuSans-30"/>
       <use xlink:href="#DejaVuSans-2e" x="63.623047"/>
       <use xlink:href="#DejaVuSans-32" x="95.410156"/>
      </g>
     </g>
    </g>
    <g id="xtick_3">
     <g id="line2d_3">
      <g>
       <use xlink:href="#mb9b091ab6c" x="144.825346" y="320.401817" style="stroke: #000000; stroke-width: 0.8"/>
      </g>
     </g>
     <g id="text_2">
      <!-- 0.4 -->
      <g transform="translate(136.873784 335.000254)scale(0.1 -0.1)">
       <defs>
        <path id="DejaVuSans-34" d="M 2419 4116 
L 825 1625 
L 2419 1625 
L 2419 4116 
z
M 2253 4666 
L 3047 4666 
L 3047 1625 
L 3713 1625 
L 3713 1100 
L 3047 1100 
L 3047 0 
L 2419 0 
L 2419 1100 
L 313 1100 
L 313 1709 
L 2253 4666 
z
" transform="scale(0.015625)"/>
       </defs>
       <use xlink:href="#DejaVuSans-30"/>
       <use xlink:href="#DejaVuSans-2e" x="63.623047"/>
       <use xlink:href="#DejaVuSans-34" x="95.410156"/>
      </g>
     </g>
    </g>
    <g id="xtick_4">
     <g id="line2d_4">
      <g>
       <use xlink:href="#mb9b091ab6c" x="190.148019" y="320.401817" style="stroke: #000000; stroke-width: 0.8"/>
      </g>
     </g>
     <g id="text_3">
      <!-- 0.6 -->
      <g transform="translate(182.196457 335.000254)scale(0.1 -0.1)">
       <defs>
        <path id="DejaVuSans-36" d="M 2113 2584 
Q 1688 2584 1439 2293 
Q 1191 2003 1191 1497 
Q 1191 994 1439 701 
Q 1688 409 2113 409 
Q 2538 409 2786 701 
Q 3034 994 3034 1497 
Q 3034 2003 2786 2293 
Q 2538 2584 2113 2584 
z
M 3366 4563 
L 3366 3988 
Q 3128 4100 2886 4159 
Q 2644 4219 2406 4219 
Q 1781 4219 1451 3797 
Q 1122 3375 1075 2522 
Q 1259 2794 1537 2939 
Q 1816 3084 2150 3084 
Q 2853 3084 3261 2657 
Q 3669 2231 3669 1497 
Q 3669 778 3244 343 
Q 2819 -91 2113 -91 
Q 1303 -91 875 529 
Q 447 1150 447 2328 
Q 447 3434 972 4092 
Q 1497 4750 2381 4750 
Q 2619 4750 2861 4703 
Q 3103 4656 3366 4563 
z
" transform="scale(0.015625)"/>
       </defs>
       <use xlink:href="#DejaVuSans-30"/>
       <use xlink:href="#DejaVuSans-2e" x="63.623047"/>
       <use xlink:href="#DejaVuSans-36" x="95.410156"/>
      </g>
     </g>
    </g>
    <g id="xtick_5">
     <g id="line2d_5">
      <g>
       <use xlink:href="#mb9b091ab6c" x="235.470692" y="320.401817" style="stroke: #000000; stroke-width: 0.8"/>
      </g>
     </g>
     <g id="text_4">
      <!-- 0.8 -->
      <g transform="translate(227.51913 335.000254)scale(0.1 -0.1)">
       <defs>
        <path id="DejaVuSans-38" d="M 2034 2216 
Q 1584 2216 1326 1975 
Q 1069 1734 1069 1313 
Q 1069 891 1326 650 
Q 1584 409 2034 409 
Q 2484 409 2743 651 
Q 3003 894 3003 1313 
Q 3003 1734 2745 1975 
Q 2488 2216 2034 2216 
z
M 1403 2484 
Q 997 2584 770 2862 
Q 544 3141 544 3541 
Q 544 4100 942 4425 
Q 1341 4750 2034 4750 
Q 2731 4750 3128 4425 
Q 3525 4100 3525 3541 
Q 3525 3141 3298 2862 
Q 3072 2584 2669 2484 
Q 3125 2378 3379 2068 
Q 3634 1759 3634 1313 
Q 3634 634 3220 271 
Q 2806 -91 2034 -91 
Q 1263 -91 848 271 
Q 434 634 434 1313 
Q 434 1759 690 2068 
Q 947 2378 1403 2484 
z
M 1172 3481 
Q 1172 3119 1398 2916 
Q 1625 2713 2034 2713 
Q 2441 2713 2670 2916 
Q 2900 3119 2900 3481 
Q 2900 3844 2670 4047 
Q 2441 4250 2034 4250 
Q 1625 4250 1398 4047 
Q 1172 3844 1172 3481 
z
" transform="scale(0.015625)"/>
       </defs>
       <use xlink:href="#DejaVuSans-30"/>
       <use xlink:href="#DejaVuSans-2e" x="63.623047"/>
       <use xlink:href="#DejaVuSans-38" x="95.410156"/>
      </g>
     </g>
    </g>
    <g id="xtick_6">
     <g id="line2d_6">
      <g>
       <use xlink:href="#mb9b091ab6c" x="280.793365" y="320.401817" style="stroke: #000000; stroke-width: 0.8"/>
      </g>
     </g>
     <g id="text_5">
      <!-- 1.0 -->
      <g transform="translate(272.841803 335.000254)scale(0.1 -0.1)">
       <defs>
        <path id="DejaVuSans-31" d="M 794 531 
L 1825 531 
L 1825 4091 
L 703 3866 
L 703 4441 
L 1819 4666 
L 2450 4666 
L 2450 531 
L 3481 531 
L 3481 0 
L 794 0 
L 794 531 
z
" transform="scale(0.015625)"/>
       </defs>
       <use xlink:href="#DejaVuSans-31"/>
       <use xlink:href="#DejaVuSans-2e" x="63.623047"/>
       <use xlink:href="#DejaVuSans-30" x="95.410156"/>
      </g>
     </g>
    </g>
    <g id="xtick_7">
     <g id="line2d_7">
      <g>
       <use xlink:href="#mb9b091ab6c" x="326.116038" y="320.401817" style="stroke: #000000; stroke-width: 0.8"/>
      </g>
     </g>
     <g id="text_6">
      <!-- 1.2 -->
      <g transform="translate(318.164476 335.000254)scale(0.1 -0.1)">
       <use xlink:href="#DejaVuSans-31"/>
       <use xlink:href="#DejaVuSans-2e" x="63.623047"/>
       <use xlink:href="#DejaVuSans-32" x="95.410156"/>
      </g>
     </g>
    </g>
    <g id="xtick_8">
     <g id="line2d_8">
      <g>
       <use xlink:href="#mb9b091ab6c" x="371.438711" y="320.401817" style="stroke: #000000; stroke-width: 0.8"/>
      </g>
     </g>
     <g id="text_7">
      <!-- 1.4 -->
      <g transform="translate(363.487149 335.000254)scale(0.1 -0.1)">
       <use xlink:href="#DejaVuSans-31"/>
       <use xlink:href="#DejaVuSans-2e" x="63.623047"/>
       <use xlink:href="#DejaVuSans-34" x="95.410156"/>
      </g>
     </g>
    </g>
    <g id="xtick_9">
     <g id="line2d_9">
      <defs>
       <path id="mf7de88f317" d="M 0 0 
L 0 2 
" style="stroke: #000000; stroke-width: 0.6"/>
      </defs>
      <g>
       <use xlink:href="#mf7de88f317" x="65.510668" y="320.401817" style="stroke: #000000; stroke-width: 0.6"/>
      </g>
     </g>
    </g>
    <g id="xtick_10">
     <g id="line2d_10">
      <g>
       <use xlink:href="#mf7de88f317" x="76.841337" y="320.401817" style="stroke: #000000; stroke-width: 0.6"/>
      </g>
     </g>
    </g>
    <g id="xtick_11">
     <g id="line2d_11">
      <g>
       <use xlink:href="#mf7de88f317" x="88.172005" y="320.401817" style="stroke: #000000; stroke-width: 0.6"/>
      </g>
     </g>
    </g>
    <g id="xtick_12">
     <g id="line2d_12">
      <g>
       <use xlink:href="#mf7de88f317" x="110.833341" y="320.401817" style="stroke: #000000; stroke-width: 0.6"/>
      </g>
     </g>
    </g>
    <g id="xtick_13">
     <g id="line2d_13">
      <g>
       <use xlink:href="#mf7de88f317" x="122.16401" y="320.401817" style="stroke: #000000; stroke-width: 0.6"/>
      </g>
     </g>
    </g>
    <g id="xtick_14">
     <g id="line2d_14">
      <g>
       <use xlink:href="#mf7de88f317" x="133.494678" y="320.401817" style="stroke: #000000; stroke-width: 0.6"/>
      </g>
     </g>
    </g>
    <g id="xtick_15">
     <g id="line2d_15">
      <g>
       <use xlink:href="#mf7de88f317" x="156.156014" y="320.401817" style="stroke: #000000; stroke-width: 0.6"/>
      </g>
     </g>
    </g>
    <g id="xtick_16">
     <g id="line2d_16">
      <g>
       <use xlink:href="#mf7de88f317" x="167.486683" y="320.401817" style="stroke: #000000; stroke-width: 0.6"/>
      </g>
     </g>
    </g>
    <g id="xtick_17">
     <g id="line2d_17">
      <g>
       <use xlink:href="#mf7de88f317" x="178.817351" y="320.401817" style="stroke: #000000; stroke-width: 0.6"/>
      </g>
     </g>
    </g>
    <g id="xtick_18">
     <g id="line2d_18">
      <g>
       <use xlink:href="#mf7de88f317" x="201.478687" y="320.401817" style="stroke: #000000; stroke-width: 0.6"/>
      </g>
     </g>
    </g>
    <g id="xtick_19">
     <g id="line2d_19">
      <g>
       <use xlink:href="#mf7de88f317" x="212.809356" y="320.401817" style="stroke: #000000; stroke-width: 0.6"/>
      </g>
     </g>
    </g>
    <g id="xtick_20">
     <g id="line2d_20">
      <g>
       <use xlink:href="#mf7de88f317" x="224.140024" y="320.401817" style="stroke: #000000; stroke-width: 0.6"/>
      </g>
     </g>
    </g>
    <g id="xtick_21">
     <g id="line2d_21">
      <g>
       <use xlink:href="#mf7de88f317" x="246.80136" y="320.401817" style="stroke: #000000; stroke-width: 0.6"/>
      </g>
     </g>
    </g>
    <g id="xtick_22">
     <g id="line2d_22">
      <g>
       <use xlink:href="#mf7de88f317" x="258.132029" y="320.401817" style="stroke: #000000; stroke-width: 0.6"/>
      </g>
     </g>
    </g>
    <g id="xtick_23">
     <g id="line2d_23">
      <g>
       <use xlink:href="#mf7de88f317" x="269.462697" y="320.401817" style="stroke: #000000; stroke-width: 0.6"/>
      </g>
     </g>
    </g>
    <g id="xtick_24">
     <g id="line2d_24">
      <g>
       <use xlink:href="#mf7de88f317" x="292.124033" y="320.401817" style="stroke: #000000; stroke-width: 0.6"/>
      </g>
     </g>
    </g>
    <g id="xtick_25">
     <g id="line2d_25">
      <g>
       <use xlink:href="#mf7de88f317" x="303.454702" y="320.401817" style="stroke: #000000; stroke-width: 0.6"/>
      </g>
     </g>
    </g>
    <g id="xtick_26">
     <g id="line2d_26">
      <g>
       <use xlink:href="#mf7de88f317" x="314.78537" y="320.401817" style="stroke: #000000; stroke-width: 0.6"/>
      </g>
     </g>
    </g>
    <g id="xtick_27">
     <g id="line2d_27">
      <g>
       <use xlink:href="#mf7de88f317" x="337.446706" y="320.401817" style="stroke: #000000; stroke-width: 0.6"/>
      </g>
     </g>
    </g>
    <g id="xtick_28">
     <g id="line2d_28">
      <g>
       <use xlink:href="#mf7de88f317" x="348.777375" y="320.401817" style="stroke: #000000; stroke-width: 0.6"/>
      </g>
     </g>
    </g>
    <g id="xtick_29">
     <g id="line2d_29">
      <g>
       <use xlink:href="#mf7de88f317" x="360.108043" y="320.401817" style="stroke: #000000; stroke-width: 0.6"/>
      </g>
     </g>
    </g>
    <g id="xtick_30">
     <g id="line2d_30">
      <g>
       <use xlink:href="#mf7de88f317" x="382.769379" y="320.401817" style="stroke: #000000; stroke-width: 0.6"/>
      </g>
     </g>
    </g>
    <g id="xtick_31">
     <g id="line2d_31">
      <g>
       <use xlink:href="#mf7de88f317" x="394.100048" y="320.401817" style="stroke: #000000; stroke-width: 0.6"/>
      </g>
     </g>
    </g>
    <g id="text_8">
     <!-- Time in h -->
     <g transform="translate(408.894371 320.401817)scale(0.16 -0.16)">
      <defs>
       <path id="DejaVuSans-54" d="M -19 4666 
L 3928 4666 
L 3928 4134 
L 2272 4134 
L 2272 0 
L 1638 0 
L 1638 4134 
L -19 4134 
L -19 4666 
z
" transform="scale(0.015625)"/>
       <path id="DejaVuSans-69" d="M 603 3500 
L 1178 3500 
L 1178 0 
L 603 0 
L 603 3500 
z
M 603 4863 
L 1178 4863 
L 1178 4134 
L 603 4134 
L 603 4863 
z
" transform="scale(0.015625)"/>
       <path id="DejaVuSans-6d" d="M 3328 2828 
Q 3544 3216 3844 3400 
Q 4144 3584 4550 3584 
Q 5097 3584 5394 3201 
Q 5691 2819 5691 2113 
L 5691 0 
L 5113 0 
L 5113 2094 
Q 5113 2597 4934 2840 
Q 4756 3084 4391 3084 
Q 3944 3084 3684 2787 
Q 3425 2491 3425 1978 
L 3425 0 
L 2847 0 
L 2847 2094 
Q 2847 2600 2669 2842 
Q 2491 3084 2119 3084 
Q 1678 3084 1418 2786 
Q 1159 2488 1159 1978 
L 1159 0 
L 581 0 
L 581 3500 
L 1159 3500 
L 1159 2956 
Q 1356 3278 1631 3431 
Q 1906 3584 2284 3584 
Q 2666 3584 2933 3390 
Q 3200 3197 3328 2828 
z
" transform="scale(0.015625)"/>
       <path id="DejaVuSans-65" d="M 3597 1894 
L 3597 1613 
L 953 1613 
Q 991 1019 1311 708 
Q 1631 397 2203 397 
Q 2534 397 2845 478 
Q 3156 559 3463 722 
L 3463 178 
Q 3153 47 2828 -22 
Q 2503 -91 2169 -91 
Q 1331 -91 842 396 
Q 353 884 353 1716 
Q 353 2575 817 3079 
Q 1281 3584 2069 3584 
Q 2775 3584 3186 3129 
Q 3597 2675 3597 1894 
z
M 3022 2063 
Q 3016 2534 2758 2815 
Q 2500 3097 2075 3097 
Q 1594 3097 1305 2825 
Q 1016 2553 972 2059 
L 3022 2063 
z
" transform="scale(0.015625)"/>
       <path id="DejaVuSans-20" transform="scale(0.015625)"/>
       <path id="DejaVuSans-6e" d="M 3513 2113 
L 3513 0 
L 2938 0 
L 2938 2094 
Q 2938 2591 2744 2837 
Q 2550 3084 2163 3084 
Q 1697 3084 1428 2787 
Q 1159 2491 1159 1978 
L 1159 0 
L 581 0 
L 581 3500 
L 1159 3500 
L 1159 2956 
Q 1366 3272 1645 3428 
Q 1925 3584 2291 3584 
Q 2894 3584 3203 3211 
Q 3513 2838 3513 2113 
z
" transform="scale(0.015625)"/>
       <path id="DejaVuSans-68" d="M 3513 2113 
L 3513 0 
L 2938 0 
L 2938 2094 
Q 2938 2591 2744 2837 
Q 2550 3084 2163 3084 
Q 1697 3084 1428 2787 
Q 1159 2491 1159 1978 
L 1159 0 
L 581 0 
L 581 4863 
L 1159 4863 
L 1159 2956 
Q 1366 3272 1645 3428 
Q 1925 3584 2291 3584 
Q 2894 3584 3203 3211 
Q 3513 2838 3513 2113 
z
" transform="scale(0.015625)"/>
      </defs>
      <use xlink:href="#DejaVuSans-54"/>
      <use xlink:href="#DejaVuSans-69" x="57.958984"/>
      <use xlink:href="#DejaVuSans-6d" x="85.742188"/>
      <use xlink:href="#DejaVuSans-65" x="183.154297"/>
      <use xlink:href="#DejaVuSans-20" x="244.677734"/>
      <use xlink:href="#DejaVuSans-69" x="276.464844"/>
      <use xlink:href="#DejaVuSans-6e" x="304.248047"/>
      <use xlink:href="#DejaVuSans-20" x="367.626953"/>
      <use xlink:href="#DejaVuSans-68" x="399.414062"/>
     </g>
    </g>
   </g>
   <g id="matplotlib.axis_2">
    <g id="ytick_1">
     <g id="line2d_32">
      <defs>
       <path id="ma751b81577" d="M 0 0 
L -3.5 0 
" style="stroke: #000000; stroke-width: 0.8"/>
      </defs>
      <g>
       <use xlink:href="#ma751b81577" x="54.18" y="320.401817" style="stroke: #000000; stroke-width: 0.8"/>
      </g>
     </g>
    </g>
    <g id="ytick_2">
     <g id="line2d_33">
      <g>
       <use xlink:href="#ma751b81577" x="54.18" y="265.890469" style="stroke: #000000; stroke-width: 0.8"/>
      </g>
     </g>
     <g id="text_9">
      <!-- 0.5 -->
      <g transform="translate(31.276875 269.689688)scale(0.1 -0.1)">
       <defs>
        <path id="DejaVuSans-35" d="M 691 4666 
L 3169 4666 
L 3169 4134 
L 1269 4134 
L 1269 2991 
Q 1406 3038 1543 3061 
Q 1681 3084 1819 3084 
Q 2600 3084 3056 2656 
Q 3513 2228 3513 1497 
Q 3513 744 3044 326 
Q 2575 -91 1722 -91 
Q 1428 -91 1123 -41 
Q 819 9 494 109 
L 494 744 
Q 775 591 1075 516 
Q 1375 441 1709 441 
Q 2250 441 2565 725 
Q 2881 1009 2881 1497 
Q 2881 1984 2565 2268 
Q 2250 2553 1709 2553 
Q 1456 2553 1204 2497 
Q 953 2441 691 2322 
L 691 4666 
z
" transform="scale(0.015625)"/>
       </defs>
       <use xlink:href="#DejaVuSans-30"/>
       <use xlink:href="#DejaVuSans-2e" x="63.623047"/>
       <use xlink:href="#DejaVuSans-35" x="95.410156"/>
      </g>
     </g>
    </g>
    <g id="ytick_3">
     <g id="line2d_34">
      <g>
       <use xlink:href="#ma751b81577" x="54.18" y="211.379122" style="stroke: #000000; stroke-width: 0.8"/>
      </g>
     </g>
     <g id="text_10">
      <!-- 1.0 -->
      <g transform="translate(31.276875 215.178341)scale(0.1 -0.1)">
       <use xlink:href="#DejaVuSans-31"/>
       <use xlink:href="#DejaVuSans-2e" x="63.623047"/>
       <use xlink:href="#DejaVuSans-30" x="95.410156"/>
      </g>
     </g>
    </g>
    <g id="ytick_4">
     <g id="line2d_35">
      <g>
       <use xlink:href="#ma751b81577" x="54.18" y="156.867775" style="stroke: #000000; stroke-width: 0.8"/>
      </g>
     </g>
     <g id="text_11">
      <!-- 1.5 -->
      <g transform="translate(31.276875 160.666994)scale(0.1 -0.1)">
       <use xlink:href="#DejaVuSans-31"/>
       <use xlink:href="#DejaVuSans-2e" x="63.623047"/>
       <use xlink:href="#DejaVuSans-35" x="95.410156"/>
      </g>
     </g>
    </g>
    <g id="ytick_5">
     <g id="line2d_36">
      <g>
       <use xlink:href="#ma751b81577" x="54.18" y="102.356428" style="stroke: #000000; stroke-width: 0.8"/>
      </g>
     </g>
     <g id="text_12">
      <!-- 2.0 -->
      <g transform="translate(31.276875 106.155647)scale(0.1 -0.1)">
       <use xlink:href="#DejaVuSans-32"/>
       <use xlink:href="#DejaVuSans-2e" x="63.623047"/>
       <use xlink:href="#DejaVuSans-30" x="95.410156"/>
      </g>
     </g>
    </g>
    <g id="ytick_6">
     <g id="line2d_37">
      <g>
       <use xlink:href="#ma751b81577" x="54.18" y="47.845081" style="stroke: #000000; stroke-width: 0.8"/>
      </g>
     </g>
     <g id="text_13">
      <!-- 2.5 -->
      <g transform="translate(31.276875 51.6443)scale(0.1 -0.1)">
       <use xlink:href="#DejaVuSans-32"/>
       <use xlink:href="#DejaVuSans-2e" x="63.623047"/>
       <use xlink:href="#DejaVuSans-35" x="95.410156"/>
      </g>
     </g>
    </g>
    <g id="ytick_7">
     <g id="line2d_38">
      <defs>
       <path id="mb2fe2dee98" d="M 0 0 
L -2 0 
" style="stroke: #000000; stroke-width: 0.6"/>
      </defs>
      <g>
       <use xlink:href="#mb2fe2dee98" x="54.18" y="309.499547" style="stroke: #000000; stroke-width: 0.6"/>
      </g>
     </g>
    </g>
    <g id="ytick_8">
     <g id="line2d_39">
      <g>
       <use xlink:href="#mb2fe2dee98" x="54.18" y="298.597278" style="stroke: #000000; stroke-width: 0.6"/>
      </g>
     </g>
    </g>
    <g id="ytick_9">
     <g id="line2d_40">
      <g>
       <use xlink:href="#mb2fe2dee98" x="54.18" y="287.695008" style="stroke: #000000; stroke-width: 0.6"/>
      </g>
     </g>
    </g>
    <g id="ytick_10">
     <g id="line2d_41">
      <g>
       <use xlink:href="#mb2fe2dee98" x="54.18" y="276.792739" style="stroke: #000000; stroke-width: 0.6"/>
      </g>
     </g>
    </g>
    <g id="ytick_11">
     <g id="line2d_42">
      <g>
       <use xlink:href="#mb2fe2dee98" x="54.18" y="254.9882" style="stroke: #000000; stroke-width: 0.6"/>
      </g>
     </g>
    </g>
    <g id="ytick_12">
     <g id="line2d_43">
      <g>
       <use xlink:href="#mb2fe2dee98" x="54.18" y="244.085931" style="stroke: #000000; stroke-width: 0.6"/>
      </g>
     </g>
    </g>
    <g id="ytick_13">
     <g id="line2d_44">
      <g>
       <use xlink:href="#mb2fe2dee98" x="54.18" y="233.183661" style="stroke: #000000; stroke-width: 0.6"/>
      </g>
     </g>
    </g>
    <g id="ytick_14">
     <g id="line2d_45">
      <g>
       <use xlink:href="#mb2fe2dee98" x="54.18" y="222.281392" style="stroke: #000000; stroke-width: 0.6"/>
      </g>
     </g>
    </g>
    <g id="ytick_15">
     <g id="line2d_46">
      <g>
       <use xlink:href="#mb2fe2dee98" x="54.18" y="200.476853" style="stroke: #000000; stroke-width: 0.6"/>
      </g>
     </g>
    </g>
    <g id="ytick_16">
     <g id="line2d_47">
      <g>
       <use xlink:href="#mb2fe2dee98" x="54.18" y="189.574584" style="stroke: #000000; stroke-width: 0.6"/>
      </g>
     </g>
    </g>
    <g id="ytick_17">
     <g id="line2d_48">
      <g>
       <use xlink:href="#mb2fe2dee98" x="54.18" y="178.672314" style="stroke: #000000; stroke-width: 0.6"/>
      </g>
     </g>
    </g>
    <g id="ytick_18">
     <g id="line2d_49">
      <g>
       <use xlink:href="#mb2fe2dee98" x="54.18" y="167.770045" style="stroke: #000000; stroke-width: 0.6"/>
      </g>
     </g>
    </g>
    <g id="ytick_19">
     <g id="line2d_50">
      <g>
       <use xlink:href="#mb2fe2dee98" x="54.18" y="145.965506" style="stroke: #000000; stroke-width: 0.6"/>
      </g>
     </g>
    </g>
    <g id="ytick_20">
     <g id="line2d_51">
      <g>
       <use xlink:href="#mb2fe2dee98" x="54.18" y="135.063236" style="stroke: #000000; stroke-width: 0.6"/>
      </g>
     </g>
    </g>
    <g id="ytick_21">
     <g id="line2d_52">
      <g>
       <use xlink:href="#mb2fe2dee98" x="54.18" y="124.160967" style="stroke: #000000; stroke-width: 0.6"/>
      </g>
     </g>
    </g>
    <g id="ytick_22">
     <g id="line2d_53">
      <g>
       <use xlink:href="#mb2fe2dee98" x="54.18" y="113.258698" style="stroke: #000000; stroke-width: 0.6"/>
      </g>
     </g>
    </g>
    <g id="ytick_23">
     <g id="line2d_54">
      <g>
       <use xlink:href="#mb2fe2dee98" x="54.18" y="91.454159" style="stroke: #000000; stroke-width: 0.6"/>
      </g>
     </g>
    </g>
    <g id="ytick_24">
     <g id="line2d_55">
      <g>
       <use xlink:href="#mb2fe2dee98" x="54.18" y="80.551889" style="stroke: #000000; stroke-width: 0.6"/>
      </g>
     </g>
    </g>
    <g id="ytick_25">
     <g id="line2d_56">
      <g>
       <use xlink:href="#mb2fe2dee98" x="54.18" y="69.64962" style="stroke: #000000; stroke-width: 0.6"/>
      </g>
     </g>
    </g>
    <g id="ytick_26">
     <g id="line2d_57">
      <g>
       <use xlink:href="#mb2fe2dee98" x="54.18" y="58.747351" style="stroke: #000000; stroke-width: 0.6"/>
      </g>
     </g>
    </g>
    <g id="ytick_27">
     <g id="line2d_58">
      <g>
       <use xlink:href="#mb2fe2dee98" x="54.18" y="36.942812" style="stroke: #000000; stroke-width: 0.6"/>
      </g>
     </g>
    </g>
    <g id="text_14">
     <!-- Slots in 1e7 -->
     <g transform="translate(7.2 19.3575)scale(0.16 -0.16)">
      <defs>
       <path id="DejaVuSans-53" d="M 3425 4513 
L 3425 3897 
Q 3066 4069 2747 4153 
Q 2428 4238 2131 4238 
Q 1616 4238 1336 4038 
Q 1056 3838 1056 3469 
Q 1056 3159 1242 3001 
Q 1428 2844 1947 2747 
L 2328 2669 
Q 3034 2534 3370 2195 
Q 3706 1856 3706 1288 
Q 3706 609 3251 259 
Q 2797 -91 1919 -91 
Q 1588 -91 1214 -16 
Q 841 59 441 206 
L 441 856 
Q 825 641 1194 531 
Q 1563 422 1919 422 
Q 2459 422 2753 634 
Q 3047 847 3047 1241 
Q 3047 1584 2836 1778 
Q 2625 1972 2144 2069 
L 1759 2144 
Q 1053 2284 737 2584 
Q 422 2884 422 3419 
Q 422 4038 858 4394 
Q 1294 4750 2059 4750 
Q 2388 4750 2728 4690 
Q 3069 4631 3425 4513 
z
" transform="scale(0.015625)"/>
       <path id="DejaVuSans-6c" d="M 603 4863 
L 1178 4863 
L 1178 0 
L 603 0 
L 603 4863 
z
" transform="scale(0.015625)"/>
       <path id="DejaVuSans-6f" d="M 1959 3097 
Q 1497 3097 1228 2736 
Q 959 2375 959 1747 
Q 959 1119 1226 758 
Q 1494 397 1959 397 
Q 2419 397 2687 759 
Q 2956 1122 2956 1747 
Q 2956 2369 2687 2733 
Q 2419 3097 1959 3097 
z
M 1959 3584 
Q 2709 3584 3137 3096 
Q 3566 2609 3566 1747 
Q 3566 888 3137 398 
Q 2709 -91 1959 -91 
Q 1206 -91 779 398 
Q 353 888 353 1747 
Q 353 2609 779 3096 
Q 1206 3584 1959 3584 
z
" transform="scale(0.015625)"/>
       <path id="DejaVuSans-74" d="M 1172 4494 
L 1172 3500 
L 2356 3500 
L 2356 3053 
L 1172 3053 
L 1172 1153 
Q 1172 725 1289 603 
Q 1406 481 1766 481 
L 2356 481 
L 2356 0 
L 1766 0 
Q 1100 0 847 248 
Q 594 497 594 1153 
L 594 3053 
L 172 3053 
L 172 3500 
L 594 3500 
L 594 4494 
L 1172 4494 
z
" transform="scale(0.015625)"/>
       <path id="DejaVuSans-73" d="M 2834 3397 
L 2834 2853 
Q 2591 2978 2328 3040 
Q 2066 3103 1784 3103 
Q 1356 3103 1142 2972 
Q 928 2841 928 2578 
Q 928 2378 1081 2264 
Q 1234 2150 1697 2047 
L 1894 2003 
Q 2506 1872 2764 1633 
Q 3022 1394 3022 966 
Q 3022 478 2636 193 
Q 2250 -91 1575 -91 
Q 1294 -91 989 -36 
Q 684 19 347 128 
L 347 722 
Q 666 556 975 473 
Q 1284 391 1588 391 
Q 1994 391 2212 530 
Q 2431 669 2431 922 
Q 2431 1156 2273 1281 
Q 2116 1406 1581 1522 
L 1381 1569 
Q 847 1681 609 1914 
Q 372 2147 372 2553 
Q 372 3047 722 3315 
Q 1072 3584 1716 3584 
Q 2034 3584 2315 3537 
Q 2597 3491 2834 3397 
z
" transform="scale(0.015625)"/>
       <path id="DejaVuSans-37" d="M 525 4666 
L 3525 4666 
L 3525 4397 
L 1831 0 
L 1172 0 
L 2766 4134 
L 525 4134 
L 525 4666 
z
" transform="scale(0.015625)"/>
      </defs>
      <use xlink:href="#DejaVuSans-53"/>
      <use xlink:href="#DejaVuSans-6c" x="63.476562"/>
      <use xlink:href="#DejaVuSans-6f" x="91.259766"/>
      <use xlink:href="#DejaVuSans-74" x="152.441406"/>
      <use xlink:href="#DejaVuSans-73" x="191.650391"/>
      <use xlink:href="#DejaVuSans-20" x="243.75"/>
      <use xlink:href="#DejaVuSans-69" x="275.537109"/>
      <use xlink:href="#DejaVuSans-6e" x="303.320312"/>
      <use xlink:href="#DejaVuSans-20" x="366.699219"/>
      <use xlink:href="#DejaVuSans-31" x="398.486328"/>
      <use xlink:href="#DejaVuSans-65" x="462.109375"/>
      <use xlink:href="#DejaVuSans-37" x="523.632812"/>
     </g>
    </g>
   </g>
   <g id="line2d_59">
    <path d="M 54.18 271.420101 
L 394.09605 271.420101 
" clip-path="url(#pae40bd42b3)" style="fill: none; stroke-dasharray: 3.7,1.6; stroke-dashoffset: 0; stroke: #0000ff"/>
   </g>
   <g id="line2d_60">
    <path d="M 54.18 320.401817 
L 54.396957 320.301527 
L 55.908286 319.692286 
L 64.28165 316.910332 
L 66.248949 316.425639 
L 68.123048 316.072057 
L 73.010664 314.741336 
L 75.181614 314.310849 
L 77.919103 313.564883 
L 80.407205 312.956591 
L 81.767817 312.627724 
L 86.572366 311.309433 
L 88.034948 310.93482 
L 92.990699 309.680209 
L 94.256851 309.309804 
L 98.047223 308.19363 
L 99.961943 307.738002 
L 104.454729 306.470025 
L 105.988486 306.043157 
L 110.758937 304.676416 
L 112.070279 304.303297 
L 115.914693 303.070501 
L 118.204445 302.490511 
L 122.559135 301.05998 
L 124.625308 300.518138 
L 128.102746 299.421827 
L 129.967781 298.958405 
L 131.378606 298.553451 
L 135.447619 297.244622 
L 137.110678 296.821385 
L 138.271102 296.505645 
L 139.536404 296.095883 
L 142.777611 295.127456 
L 162.257076 290.24228 
L 163.677985 289.902293 
L 170.901437 287.855174 
L 172.828803 287.36939 
L 184.877817 283.774345 
L 185.935925 283.47281 
L 188.929519 282.583501 
L 191.096648 282.01135 
L 197.314119 280.071836 
L 199.128398 279.680706 
L 216.668273 274.988413 
L 220.88201 274.071085 
L 232.799468 271.27401 
L 233.38138 270.433881 
L 234.188148 268.736616 
L 234.793578 267.637885 
L 235.460608 266.88999 
L 235.794724 266.71032 
L 236.500688 265.393544 
L 236.702235 265.019596 
L 236.87273 264.910355 
L 237.831153 263.252992 
L 238.088083 263.052609 
L 238.896639 262.06966 
L 239.101875 261.985059 
L 239.959141 260.367816 
L 241.371773 257.718128 
L 242.133584 256.337661 
L 243.898821 252.792974 
L 244.251828 252.120903 
L 245.512402 249.261238 
L 246.391278 247.871199 
L 248.245662 244.080785 
L 248.852035 243.221522 
L 249.022851 242.944812 
L 250.485187 239.799791 
L 250.737899 239.463837 
L 251.947951 237.420054 
L 253.611797 234.202119 
L 254.480009 232.443888 
L 255.437463 230.359428 
L 256.452817 228.673687 
L 258.016198 225.210472 
L 258.484815 224.541901 
L 259.142957 223.095159 
L 260.152362 220.793494 
L 260.959219 219.567926 
L 262.477239 216.17104 
L 263.449303 214.565114 
L 265.317674 210.759536 
L 265.948496 209.587771 
L 267.158454 206.810799 
L 267.464275 206.395804 
L 268.88545 203.569107 
L 269.592162 202.031157 
L 270.474683 200.655727 
L 272.088629 197.14489 
L 272.961884 195.56912 
L 274.273025 192.632125 
L 275.184055 191.122063 
L 276.647536 187.817149 
L 276.903729 187.467088 
L 278.648281 183.967666 
L 279.153188 183.030791 
L 279.91921 181.813029 
L 280.978942 179.375729 
L 281.094201 179.234228 
L 281.603646 178.254975 
L 282.779046 176.284074 
L 284.190967 173.452776 
L 284.961414 172.283028 
L 286.37336 169.123169 
L 287.53391 167.181486 
L 289.372399 163.697262 
L 290.836082 161.136112 
L 292.017424 159.138674 
L 292.876169 157.7574 
L 294.599532 154.675045 
L 295.458296 153.570013 
L 295.831038 152.818803 
L 297.498452 149.743317 
L 298.659424 147.632332 
L 299.788311 145.367506 
L 301.140444 143.193091 
L 302.263244 140.885517 
L 303.383375 139.320147 
L 304.223978 137.675922 
L 304.829282 136.384592 
L 305.082132 136.033048 
L 306.684483 133.344221 
L 307.897431 131.121205 
L 309.320444 128.782014 
L 310.430541 126.762314 
L 311.819309 124.732366 
L 313.382576 122.022901 
L 314.815075 120.356882 
L 317.390593 116.743074 
L 319.01762 114.417881 
L 320.279069 112.392785 
L 320.889509 111.635077 
L 321.600024 110.70567 
L 322.610021 109.160785 
L 323.417224 107.891903 
L 324.764837 106.332322 
L 326.897791 102.953262 
L 327.374353 102.35017 
L 328.416982 100.841885 
L 329.755361 98.516823 
L 331.233969 96.750743 
L 333.168831 93.823048 
L 336.93738 89.649539 
L 337.650841 88.889215 
L 340.350391 86.551408 
L 340.95691 85.914487 
L 342.740168 84.117378 
L 344.782489 82.085239 
L 347.513527 79.095455 
L 348.714728 78.142586 
L 349.959157 77.118721 
L 350.98496 75.935694 
L 352.170494 74.818691 
L 353.960425 73.520405 
L 354.239134 73.275159 
L 354.794324 72.735725 
L 355.097042 72.405768 
L 356.01827 71.435979 
L 358.394034 69.516994 
L 358.722094 69.271257 
L 360.223326 67.731191 
L 360.828768 67.075213 
L 363.41921 64.980156 
L 363.624163 64.835832 
L 364.179441 64.34233 
L 364.643067 64.057563 
L 367.018473 61.289149 
L 367.675557 60.587588 
L 367.877558 60.455573 
L 368.240775 60.140661 
L 368.936849 59.496031 
L 369.205373 59.384588 
L 371.918741 56.39801 
L 373.014266 55.540633 
L 373.721387 54.930172 
L 374.51257 54.548352 
L 375.977909 53.147858 
L 376.837516 52.40308 
L 377.413479 51.897324 
L 379.627385 50.101458 
L 379.977704 49.948216 
L 381.292307 48.4537 
L 382.528263 47.111816 
L 383.295538 46.476563 
L 385.50962 44.854818 
L 388.108724 41.826821 
L 390.544975 39.720317 
L 391.362212 38.7549 
L 391.651515 38.454542 
L 392.813236 37.147186 
L 393.371039 36.849259 
L 393.741765 36.664913 
L 394.09605 36.365722 
L 394.09605 36.365722 
" clip-path="url(#pae40bd42b3)" style="fill: none; stroke: #ff0000; stroke-linecap: square"/>
   </g>
   <g id="line2d_61">
    <path d="M 54.18 271.420101 
L 394.059698 271.420101 
" clip-path="url(#pae40bd42b3)" style="fill: none; stroke-dasharray: 3.7,1.6; stroke-dashoffset: 0; stroke: #0000ff"/>
   </g>
   <g id="line2d_62">
    <path d="M 54.18 320.401817 
L 54.446837 320.294516 
L 58.209998 319.162719 
L 60.652311 318.404052 
L 64.444736 317.220131 
L 68.086885 316.337069 
L 69.447421 316.118816 
L 75.70669 314.469259 
L 78.342575 313.79925 
L 82.443433 312.800907 
L 85.376194 312.017579 
L 89.060184 311.078218 
L 90.537489 310.759054 
L 109.515981 305.585327 
L 110.576368 305.365701 
L 111.841632 305.08463 
L 116.031896 303.925184 
L 117.765066 303.529508 
L 122.271972 302.216973 
L 123.752513 301.931737 
L 127.755688 300.774265 
L 129.569797 300.355389 
L 131.642812 299.748209 
L 132.110756 299.633342 
L 134.735203 298.842808 
L 142.775496 296.956933 
L 144.438863 296.582582 
L 148.635227 295.343757 
L 150.248651 295.014803 
L 151.515652 294.797248 
L 154.55139 294.12641 
L 161.645144 292.592668 
L 163.77429 292.165331 
L 165.488286 291.881796 
L 168.221766 291.245103 
L 170.342395 290.781779 
L 172.359751 290.438488 
L 174.123754 290.052591 
L 187.338416 286.873544 
L 190.126736 286.120459 
L 192.517262 285.598327 
L 196.625183 284.428089 
L 198.692123 284.016866 
L 203.753218 282.656426 
L 206.627632 281.965092 
L 210.371946 280.963577 
L 211.834307 280.590653 
L 215.546958 279.602177 
L 217.681209 279.2054 
L 219.322054 278.775818 
L 223.007372 277.899766 
L 224.519475 277.625803 
L 235.252136 275.032796 
L 240.514331 273.975952 
L 244.211314 273.126567 
L 246.278217 272.680632 
L 248.230667 272.367639 
L 252.618299 271.421245 
L 253.054183 271.348146 
L 253.660582 270.710363 
L 254.821881 269.340602 
L 255.832356 268.113006 
L 256.300407 267.970186 
L 259.534671 266.893914 
L 259.887993 266.512553 
L 262.162228 263.401481 
L 263.283781 263.079864 
L 264.04789 262.807526 
L 264.857271 262.32739 
L 265.311486 261.808224 
L 266.725251 259.959853 
L 267.847025 258.677964 
L 268.65781 258.25343 
L 269.265732 257.845903 
L 269.671628 257.400218 
L 272.245119 253.940372 
L 273.060511 253.674847 
L 274.329962 253.103808 
L 274.532397 252.869769 
L 276.254419 250.392894 
L 277.227421 249.216266 
L 278.4026 248.692139 
L 278.856664 248.281669 
L 280.875368 245.40142 
L 281.838474 244.500729 
L 283.15975 244.109174 
L 284.086114 243.692838 
L 284.844249 243.155684 
L 285.40314 242.242477 
L 287.52511 239.792911 
L 288.909781 239.282511 
L 290.149853 238.512178 
L 292.827271 235.107301 
L 294.520898 234.442852 
L 295.026629 234.121965 
L 295.309789 233.741781 
L 295.884053 232.757023 
L 297.70761 230.417276 
L 298.581054 230.14956 
L 299.962986 229.506566 
L 300.719321 228.21348 
L 301.224121 227.503579 
L 302.190847 226.074259 
L 302.612033 225.68882 
L 304.209192 224.927841 
L 304.965835 223.632466 
L 305.420409 222.943061 
L 306.631103 221.121848 
L 306.834747 220.988219 
L 309.534902 220.146095 
L 310.408855 219.612189 
L 310.963888 218.598289 
L 312.682328 216.301203 
L 314.020304 215.934821 
L 315.900509 215.167607 
L 316.20305 214.738864 
L 317.175197 213.387669 
L 317.982721 212.238843 
L 318.543104 211.577893 
L 319.608288 211.273305 
L 321.178813 210.598389 
L 321.381329 210.369452 
L 323.702769 206.886592 
L 324.522669 206.663444 
L 325.640962 206.256615 
L 326.468743 205.722316 
L 327.966456 203.450992 
L 329.029386 202.147081 
L 330.640109 201.514389 
L 331.045307 201.156064 
L 333.474665 197.47282 
L 335.471588 196.985848 
L 337.251403 196.332388 
L 337.618958 196.063233 
L 339.081464 193.787624 
L 340.047384 192.713892 
L 341.893012 192.197593 
L 343.372577 191.544209 
L 345.743915 188.050261 
L 347.028801 187.694313 
L 348.319181 187.190388 
L 348.723138 186.871747 
L 349.857697 185.25276 
L 351.529386 183.268973 
L 353.822474 182.328804 
L 356.345285 178.618075 
L 357.17175 178.3407 
L 358.13949 177.858449 
L 358.636208 177.224493 
L 359.305825 176.16561 
L 360.974493 173.922926 
L 363.193138 173.330856 
L 364.644672 172.51444 
L 365.300573 171.405417 
L 367.171783 169.160607 
L 369.294823 168.435846 
L 370.11651 167.904481 
L 371.580156 165.783662 
L 371.841976 165.47902 
L 372.651332 164.47636 
L 373.262936 164.273589 
L 374.239105 163.838152 
L 374.899752 163.391999 
L 376.975083 160.696489 
L 377.834842 159.762371 
L 379.002354 159.28507 
L 379.763787 158.668634 
L 381.682353 156.20278 
L 382.743061 155.029784 
L 383.372511 154.756834 
L 384.199391 154.268805 
L 384.502115 153.900178 
L 385.070707 153.04786 
L 385.777716 152.148128 
L 387.110391 150.456718 
L 387.312448 150.345809 
L 387.973178 150.165638 
L 389.532265 149.601587 
L 390.346518 149.168865 
L 390.655487 148.878211 
L 391.210261 147.965102 
L 392.978947 145.66106 
L 393.704381 145.468417 
L 394.059698 145.361978 
L 394.059698 145.361978 
" clip-path="url(#pae40bd42b3)" style="fill: none; stroke: #0000ff; stroke-linecap: square"/>
   </g>
   <g id="line2d_63">
    <path d="M 54.18 271.420101 
L 394.072231 271.420101 
" clip-path="url(#pae40bd42b3)" style="fill: none; stroke-dasharray: 3.7,1.6; stroke-dashoffset: 0; stroke: #0000ff"/>
   </g>
   <g id="line2d_64">
    <path d="M 54.18 320.401817 
L 54.397329 320.304961 
L 55.356866 319.97399 
L 57.685797 319.34857 
L 60.104662 318.790581 
L 62.68439 318.055725 
L 64.859432 317.581912 
L 67.32992 316.899234 
L 71.629789 316.057284 
L 73.003752 315.852648 
L 74.328251 315.616244 
L 77.30889 314.957485 
L 79.478575 314.545216 
L 81.649298 314.013774 
L 86.943559 312.902909 
L 88.517817 312.608602 
L 90.40278 312.20899 
L 94.045137 311.429434 
L 94.902214 311.212752 
L 97.225542 310.600894 
L 100.465962 310.063914 
L 103.695933 309.280575 
L 105.511918 308.855844 
L 107.480275 308.32159 
L 109.84938 307.811854 
L 112.872956 306.982529 
L 115.342299 306.410095 
L 118.517662 305.595314 
L 119.886344 305.371774 
L 122.817279 304.52978 
L 124.986504 304.118132 
L 128.03677 303.290225 
L 130.019304 302.850384 
L 133.720114 301.91305 
L 134.627153 301.678368 
L 137.503865 300.870739 
L 139.422134 300.489181 
L 142.310234 299.658461 
L 143.597819 299.422874 
L 144.455003 299.26297 
L 147.481865 298.373062 
L 149.097128 298.061845 
L 151.368222 297.487318 
L 154.867283 296.514334 
L 157.202672 295.995244 
L 159.929297 295.255089 
L 161.89868 294.925426 
L 166.460319 293.840072 
L 169.563153 293.209398 
L 177.61793 291.389482 
L 181.527741 290.814496 
L 184.297919 290.33556 
L 186.176154 289.970061 
L 189.77546 289.099144 
L 191.540445 288.705234 
L 205.053488 285.250883 
L 206.162043 285.018087 
L 207.853749 284.634839 
L 212.917607 283.417852 
L 213.72865 283.205552 
L 216.096943 282.553956 
L 218.037565 282.060814 
L 219.952756 281.646342 
L 222.975854 280.777169 
L 229.955445 279.146299 
L 232.3746 278.653157 
L 248.78023 274.907878 
L 252.580977 274.1614 
L 255.354126 273.662992 
L 256.564431 273.420013 
L 261.461382 272.476073 
L 262.872786 272.22338 
L 267.728469 271.109386 
L 268.739882 270.455904 
L 270.662967 268.064382 
L 271.541711 267.800329 
L 272.607486 267.381464 
L 273.467188 266.612854 
L 273.938676 265.896575 
L 275.909085 263.383602 
L 277.694081 262.856804 
L 278.453355 262.157532 
L 280.879629 259.04428 
L 281.893585 258.36158 
L 282.39984 258.038437 
L 283.111204 257.2898 
L 283.767111 256.146991 
L 285.73579 253.866967 
L 286.343107 253.494589 
L 287.252834 252.424531 
L 287.958817 251.160141 
L 289.321946 249.468174 
L 289.627251 249.239433 
L 290.045277 249.106698 
L 291.428412 248.458831 
L 291.83225 247.870087 
L 292.437717 246.832136 
L 293.194775 245.951004 
L 294.306307 244.546573 
L 295.490324 244.034167 
L 295.894672 243.67159 
L 296.601089 242.724761 
L 297.811651 241.02429 
L 298.882053 239.828485 
L 300.105878 239.246653 
L 300.964384 238.329162 
L 301.51914 237.419465 
L 303.4474 235.112316 
L 304.316216 234.847707 
L 305.026001 234.434893 
L 305.651089 233.632835 
L 306.40719 232.239165 
L 307.164117 231.284998 
L 308.022339 230.378813 
L 309.54367 229.755268 
L 309.897364 229.449132 
L 311.117733 227.368707 
L 312.177736 225.877189 
L 312.431253 225.673753 
L 313.348748 225.340612 
L 314.110257 225.001366 
L 314.368678 224.664323 
L 314.987931 223.43761 
L 315.391686 222.805606 
L 316.959763 220.937796 
L 317.516369 220.729039 
L 317.92253 220.53547 
L 318.429772 220.225813 
L 319.195348 219.064099 
L 319.754554 218.100415 
L 321.220302 216.301868 
L 322.708006 215.86412 
L 323.229311 215.545316 
L 323.98608 214.532408 
L 324.893516 213.131117 
L 325.499624 212.401014 
L 326.275996 211.571755 
L 327.85432 210.852543 
L 328.461562 210.122265 
L 329.217997 208.686338 
L 330.783776 206.840693 
L 331.918121 206.465437 
L 332.474375 206.145205 
L 332.829188 205.807082 
L 334.544689 203.212865 
L 335.453453 202.153687 
L 336.571368 201.820013 
L 337.687319 201.23202 
L 338.066431 200.663674 
L 338.672282 199.497088 
L 340.237123 197.456903 
L 341.215091 197.149339 
L 342.383094 196.601216 
L 343.006262 195.636878 
L 343.712528 194.390901 
L 345.179012 192.711744 
L 346.83424 192.024825 
L 347.303211 191.45819 
L 348.010748 190.154181 
L 348.414711 189.623611 
L 349.893313 187.999173 
L 350.974146 187.621497 
L 351.78527 186.888221 
L 353.702495 184.014252 
L 354.460026 183.286994 
L 355.528615 182.950779 
L 356.553851 182.29238 
L 356.958514 181.583798 
L 357.563943 180.433848 
L 357.932391 180.0164 
L 358.638946 179.083548 
L 359.04403 178.608023 
L 359.874889 178.339577 
L 361.051938 177.668869 
L 361.667011 176.736387 
L 362.171634 176.00889 
L 363.889062 173.890502 
L 365.166953 173.32148 
L 365.521874 172.967647 
L 365.824226 172.607218 
L 366.3902 171.687099 
L 366.895403 170.96043 
L 367.551467 170.102607 
L 368.359822 169.17768 
L 369.83167 168.526858 
L 370.751638 167.249908 
L 371.356922 166.282092 
L 373.126817 164.403435 
L 373.989962 164.065966 
L 374.951596 163.21427 
L 375.379725 162.546833 
L 375.78316 161.949388 
L 377.146693 160.349775 
L 377.753576 159.747479 
L 378.788764 159.352043 
L 379.598215 158.676102 
L 381.94066 155.622736 
L 382.669374 155.020124 
L 384.62968 154.444746 
L 385.035714 154.077339 
L 385.641464 153.259713 
L 386.196038 152.386256 
L 388.128483 150.305645 
L 389.422968 149.708909 
L 390.151398 148.779294 
L 390.756518 147.787842 
L 392.171675 146.076033 
L 392.691627 145.603376 
L 393.503626 145.312656 
L 394.072231 144.951682 
L 394.072231 144.951682 
" clip-path="url(#pae40bd42b3)" style="fill: none; stroke: #008000; stroke-linecap: square"/>
   </g>
   <g id="line2d_65">
    <path d="M 54.18 271.420101 
L 394.087854 271.420101 
" clip-path="url(#pae40bd42b3)" style="fill: none; stroke-dasharray: 3.7,1.6; stroke-dashoffset: 0; stroke: #0000ff"/>
   </g>
   <g id="line2d_66">
    <path d="M 54.18 320.401817 
L 54.447914 320.292914 
L 55.808299 319.835912 
L 57.825063 319.173403 
L 60.863823 318.17408 
L 62.37653 317.913733 
L 63.334047 317.6736 
L 65.615244 317.010535 
L 68.756829 316.510404 
L 71.411347 316.107838 
L 73.679016 315.579972 
L 75.393403 315.341953 
L 77.718349 314.730936 
L 80.894115 314.027271 
L 81.652175 313.881943 
L 85.787352 312.841376 
L 87.10582 312.54067 
L 92.30153 311.288501 
L 93.208676 311.039558 
L 96.996436 309.98967 
L 101.085347 308.989365 
L 103.456598 308.396717 
L 105.298102 308.067567 
L 109.608446 306.795512 
L 112.634357 306.137625 
L 116.878291 304.986662 
L 118.653309 304.563937 
L 123.40806 303.348345 
L 124.57374 303.025234 
L 127.461028 302.160172 
L 128.569734 301.928651 
L 129.995642 301.595783 
L 133.496151 300.575331 
L 135.265938 300.226655 
L 137.686106 299.541403 
L 141.064244 298.768694 
L 142.230113 298.442051 
L 145.922633 297.340944 
L 147.508517 297.031189 
L 148.264248 296.809502 
L 150.289838 296.249474 
L 151.297449 295.987994 
L 155.706854 294.991854 
L 158.08027 294.435456 
L 160.349318 294.020527 
L 163.625417 293.222633 
L 165.088131 292.978063 
L 166.499674 292.787371 
L 170.387535 291.859577 
L 171.456004 291.694288 
L 172.7669 291.500664 
L 175.896393 290.781877 
L 178.17431 290.335353 
L 179.592828 290.019579 
L 183.940185 289.051163 
L 185.405511 288.739173 
L 189.083679 287.755985 
L 191.004082 287.331777 
L 193.781368 286.590946 
L 195.907133 286.194376 
L 196.775321 285.975099 
L 201.793264 284.676115 
L 203.206614 284.377284 
L 207.200247 283.267749 
L 209.635755 282.881624 
L 211.269153 282.441139 
L 213.74948 281.756041 
L 215.272517 281.442731 
L 218.455925 280.527595 
L 219.524734 280.352799 
L 221.164974 280.126838 
L 225.359537 279.15996 
L 227.743478 278.778108 
L 231.732409 277.890783 
L 234.010452 277.512343 
L 237.134941 276.767478 
L 239.825005 276.31075 
L 243.474922 275.603421 
L 245.401154 275.27221 
L 250.511355 274.320846 
L 265.256526 271.733879 
L 266.690731 271.54093 
L 268.120529 271.291236 
L 268.739158 270.456122 
L 270.454187 267.642464 
L 271.665511 266.142094 
L 272.674853 265.194033 
L 273.129068 264.534663 
L 273.784642 263.369211 
L 274.995708 261.748697 
L 276.864449 258.338467 
L 278.127315 256.501435 
L 278.934153 255.015096 
L 279.539343 253.947164 
L 281.077607 252.551543 
L 281.905615 250.892065 
L 283.750065 247.898454 
L 283.901285 247.622038 
L 285.514911 244.521127 
L 286.930697 242.609992 
L 287.283817 242.184237 
L 288.613232 240.579881 
L 289.219064 239.64028 
L 290.346541 238.127524 
L 291.406116 236.282391 
L 292.769371 234.03358 
L 293.449728 232.863625 
L 294.389751 231.145308 
L 295.705595 229.399734 
L 297.11822 226.9404 
L 297.8747 225.50262 
L 299.045668 223.812136 
L 299.701348 222.475332 
L 300.457557 221.035589 
L 301.780041 219.934133 
L 302.501201 218.568875 
L 303.055736 217.568831 
L 303.76909 216.465729 
L 304.122991 215.942093 
L 305.349221 214.058639 
L 306.862683 211.152017 
L 307.978509 209.525464 
L 308.28122 209.084794 
L 309.584738 208.270994 
L 311.049032 206.068038 
L 311.76992 204.928991 
L 313.082238 202.266798 
L 313.43527 201.778584 
L 314.606333 199.984517 
L 315.917511 197.489184 
L 316.374823 197.244025 
L 316.960575 196.870208 
L 317.364293 196.471697 
L 318.221999 194.779872 
L 318.978491 193.206446 
L 319.433588 192.540873 
L 319.855617 191.976048 
L 320.925157 190.151761 
L 321.73185 188.425168 
L 322.702983 186.958202 
L 323.00577 186.516595 
L 323.979445 184.518002 
L 324.685743 183.607346 
L 325.141361 183.085302 
L 325.613397 182.464298 
L 326.838236 180.266019 
L 327.815645 178.292043 
L 328.168979 177.843742 
L 329.228063 176.190903 
L 330.33782 173.920658 
L 331.726431 172.532429 
L 331.900571 172.388159 
L 333.010976 170.780717 
L 334.323256 168.627639 
L 334.576 168.355017 
L 336.059927 165.889 
L 337.530918 163.585078 
L 338.865482 161.995069 
L 340.398421 160.842023 
L 341.206776 159.640604 
L 341.426773 159.517136 
L 343.090229 157.924205 
L 343.557015 157.234092 
L 343.732539 157.106535 
L 345.197859 154.827677 
L 345.905264 154.309013 
L 346.56255 153.583783 
L 347.195223 152.595699 
L 348.662142 150.646482 
L 348.970034 150.188718 
L 349.222361 149.960108 
L 350.136482 148.700754 
L 350.7921 147.535694 
L 351.362655 146.593488 
L 352.574955 144.675767 
L 353.387181 143.399275 
L 354.549393 141.35873 
L 355.214258 140.720293 
L 356.254527 140.158826 
L 356.759516 139.554721 
L 356.918491 139.458541 
L 357.423039 138.490092 
L 358.179657 137.240856 
L 358.936999 136.079764 
L 360.133146 134.653802 
L 361.968104 131.505673 
L 362.474736 131.111306 
L 362.865783 130.870409 
L 363.421904 130.460571 
L 364.102135 129.833014 
L 366.171537 126.7613 
L 367.589595 124.904502 
L 368.510388 123.300505 
L 369.621039 122.133298 
L 370.935384 120.96513 
L 372.731226 119.078602 
L 374.447123 116.810668 
L 375.232716 115.997239 
L 375.495254 115.672526 
L 376.050734 114.975761 
L 377.224163 113.758981 
L 377.778906 112.880661 
L 378.082914 112.540184 
L 378.953569 111.683658 
L 380.009996 110.415953 
L 382.598551 106.990623 
L 385.5789 103.44925 
L 385.881687 103.076043 
L 387.792296 100.619479 
L 388.952424 98.63798 
L 389.47524 98.103976 
L 390.712442 96.604293 
L 391.469841 95.604653 
L 393.006418 94.348951 
L 393.764099 93.491531 
L 394.087854 93.225036 
L 394.087854 93.225036 
" clip-path="url(#pae40bd42b3)" style="fill: none; stroke: #ffa500; stroke-linecap: square"/>
   </g>
   <g id="patch_3">
    <path d="M 54.18 326.082538 
L 54.18 30.685 
" style="fill: none; stroke: #000000; stroke-width: 0.8; stroke-linejoin: miter; stroke-linecap: square"/>
   </g>
   <g id="patch_4">
    <path d="M 47.381679 320.401817 
L 400.894371 320.401817 
" style="fill: none; stroke: #000000; stroke-width: 0.8; stroke-linejoin: miter; stroke-linecap: square"/>
   </g>
  </g>
 </g>
 <defs>
  <clipPath id="pae40bd42b3">
   <rect x="47.381679" y="30.685" width="353.512692" height="295.397538"/>
  </clipPath>
 </defs>
</svg>
