<?xml version="1.0" encoding="utf-8" standalone="no"?>
<!DOCTYPE svg PUBLIC "-//W3C//DTD SVG 1.1//EN"
  "http://www.w3.org/Graphics/SVG/1.1/DTD/svg11.dtd">
<svg xmlns:xlink="http://www.w3.org/1999/xlink" width="490.136871pt" height="344.279942pt" viewBox="0 0 490.136871 344.279942" xmlns="http://www.w3.org/2000/svg" version="1.1">
 <metadata>
  <rdf:RDF xmlns:dc="http://purl.org/dc/elements/1.1/" xmlns:cc="http://creativecommons.org/ns#" xmlns:rdf="http://www.w3.org/1999/02/22-rdf-syntax-ns#">
   <cc:Work>
    <dc:type rdf:resource="http://purl.org/dc/dcmitype/StillImage"/>
    <dc:date>2022-10-05T14:01:43.231609</dc:date>
    <dc:format>image/svg+xml</dc:format>
    <dc:creator>
     <cc:Agent>
      <dc:title>Matplotlib v3.5.2, https://matplotlib.org/</dc:title>
     </cc:Agent>
    </dc:creator>
   </cc:Work>
  </rdf:RDF>
 </metadata>
 <defs>
  <style type="text/css">*{stroke-linejoin: round; stroke-linecap: butt}</style>
 </defs>
 <g id="figure_1">
  <g id="patch_1">
   <path d="M 0 344.279942 
L 490.136871 344.279942 
L 490.136871 0 
L 0 0 
z
" style="fill: #ffffff"/>
  </g>
  <g id="axes_1">
   <g id="patch_2">
    <path d="M 47.381679 326.082538 
L 400.894371 326.082538 
L 400.894371 30.685 
L 47.381679 30.685 
z
" style="fill: #ffffff"/>
   </g>
   <g id="matplotlib.axis_1">
    <g id="xtick_1">
     <g id="line2d_1">
      <defs>
       <path id="m49adcb556b" d="M 0 0 
L 0 3.5 
" style="stroke: #000000; stroke-width: 0.8"/>
      </defs>
      <g>
       <use xlink:href="#m49adcb556b" x="54.18" y="320.401817" style="stroke: #000000; stroke-width: 0.8"/>
      </g>
     </g>
    </g>
    <g id="xtick_2">
     <g id="line2d_2">
      <g>
       <use xlink:href="#m49adcb556b" x="99.507155" y="320.401817" style="stroke: #000000; stroke-width: 0.8"/>
      </g>
     </g>
     <g id="text_1">
      <!-- 0.2 -->
      <g transform="translate(91.555593 335.000254)scale(0.1 -0.1)">
       <defs>
        <path id="DejaVuSans-30" d="M 2034 4250 
Q 1547 4250 1301 3770 
Q 1056 3291 1056 2328 
Q 1056 1369 1301 889 
Q 1547 409 2034 409 
Q 2525 409 2770 889 
Q 3016 1369 3016 2328 
Q 3016 3291 2770 3770 
Q 2525 4250 2034 4250 
z
M 2034 4750 
Q 2819 4750 3233 4129 
Q 3647 3509 3647 2328 
Q 3647 1150 3233 529 
Q 2819 -91 2034 -91 
Q 1250 -91 836 529 
Q 422 1150 422 2328 
Q 422 3509 836 4129 
Q 1250 4750 2034 4750 
z
" transform="scale(0.015625)"/>
        <path id="DejaVuSans-2e" d="M 684 794 
L 1344 794 
L 1344 0 
L 684 0 
L 684 794 
z
" transform="scale(0.015625)"/>
        <path id="DejaVuSans-32" d="M 1228 531 
L 3431 531 
L 3431 0 
L 469 0 
L 469 531 
Q 828 903 1448 1529 
Q 2069 2156 2228 2338 
Q 2531 2678 2651 2914 
Q 2772 3150 2772 3378 
Q 2772 3750 2511 3984 
Q 2250 4219 1831 4219 
Q 1534 4219 1204 4116 
Q 875 4013 500 3803 
L 500 4441 
Q 881 4594 1212 4672 
Q 1544 4750 1819 4750 
Q 2544 4750 2975 4387 
Q 3406 4025 3406 3419 
Q 3406 3131 3298 2873 
Q 3191 2616 2906 2266 
Q 2828 2175 2409 1742 
Q 1991 1309 1228 531 
z
" transform="scale(0.015625)"/>
       </defs>
       <use xlink:href="#DejaVuSans-30"/>
       <use xlink:href="#DejaVuSans-2e" x="63.623047"/>
       <use xlink:href="#DejaVuSans-32" x="95.410156"/>
      </g>
     </g>
    </g>
    <g id="xtick_3">
     <g id="line2d_3">
      <g>
       <use xlink:href="#m49adcb556b" x="144.83431" y="320.401817" style="stroke: #000000; stroke-width: 0.8"/>
      </g>
     </g>
     <g id="text_2">
      <!-- 0.4 -->
      <g transform="translate(136.882748 335.000254)scale(0.1 -0.1)">
       <defs>
        <path id="DejaVuSans-34" d="M 2419 4116 
L 825 1625 
L 2419 1625 
L 2419 4116 
z
M 2253 4666 
L 3047 4666 
L 3047 1625 
L 3713 1625 
L 3713 1100 
L 3047 1100 
L 3047 0 
L 2419 0 
L 2419 1100 
L 313 1100 
L 313 1709 
L 2253 4666 
z
" transform="scale(0.015625)"/>
       </defs>
       <use xlink:href="#DejaVuSans-30"/>
       <use xlink:href="#DejaVuSans-2e" x="63.623047"/>
       <use xlink:href="#DejaVuSans-34" x="95.410156"/>
      </g>
     </g>
    </g>
    <g id="xtick_4">
     <g id="line2d_4">
      <g>
       <use xlink:href="#m49adcb556b" x="190.161466" y="320.401817" style="stroke: #000000; stroke-width: 0.8"/>
      </g>
     </g>
     <g id="text_3">
      <!-- 0.6 -->
      <g transform="translate(182.209903 335.000254)scale(0.1 -0.1)">
       <defs>
        <path id="DejaVuSans-36" d="M 2113 2584 
Q 1688 2584 1439 2293 
Q 1191 2003 1191 1497 
Q 1191 994 1439 701 
Q 1688 409 2113 409 
Q 2538 409 2786 701 
Q 3034 994 3034 1497 
Q 3034 2003 2786 2293 
Q 2538 2584 2113 2584 
z
M 3366 4563 
L 3366 3988 
Q 3128 4100 2886 4159 
Q 2644 4219 2406 4219 
Q 1781 4219 1451 3797 
Q 1122 3375 1075 2522 
Q 1259 2794 1537 2939 
Q 1816 3084 2150 3084 
Q 2853 3084 3261 2657 
Q 3669 2231 3669 1497 
Q 3669 778 3244 343 
Q 2819 -91 2113 -91 
Q 1303 -91 875 529 
Q 447 1150 447 2328 
Q 447 3434 972 4092 
Q 1497 4750 2381 4750 
Q 2619 4750 2861 4703 
Q 3103 4656 3366 4563 
z
" transform="scale(0.015625)"/>
       </defs>
       <use xlink:href="#DejaVuSans-30"/>
       <use xlink:href="#DejaVuSans-2e" x="63.623047"/>
       <use xlink:href="#DejaVuSans-36" x="95.410156"/>
      </g>
     </g>
    </g>
    <g id="xtick_5">
     <g id="line2d_5">
      <g>
       <use xlink:href="#m49adcb556b" x="235.488621" y="320.401817" style="stroke: #000000; stroke-width: 0.8"/>
      </g>
     </g>
     <g id="text_4">
      <!-- 0.8 -->
      <g transform="translate(227.537058 335.000254)scale(0.1 -0.1)">
       <defs>
        <path id="DejaVuSans-38" d="M 2034 2216 
Q 1584 2216 1326 1975 
Q 1069 1734 1069 1313 
Q 1069 891 1326 650 
Q 1584 409 2034 409 
Q 2484 409 2743 651 
Q 3003 894 3003 1313 
Q 3003 1734 2745 1975 
Q 2488 2216 2034 2216 
z
M 1403 2484 
Q 997 2584 770 2862 
Q 544 3141 544 3541 
Q 544 4100 942 4425 
Q 1341 4750 2034 4750 
Q 2731 4750 3128 4425 
Q 3525 4100 3525 3541 
Q 3525 3141 3298 2862 
Q 3072 2584 2669 2484 
Q 3125 2378 3379 2068 
Q 3634 1759 3634 1313 
Q 3634 634 3220 271 
Q 2806 -91 2034 -91 
Q 1263 -91 848 271 
Q 434 634 434 1313 
Q 434 1759 690 2068 
Q 947 2378 1403 2484 
z
M 1172 3481 
Q 1172 3119 1398 2916 
Q 1625 2713 2034 2713 
Q 2441 2713 2670 2916 
Q 2900 3119 2900 3481 
Q 2900 3844 2670 4047 
Q 2441 4250 2034 4250 
Q 1625 4250 1398 4047 
Q 1172 3844 1172 3481 
z
" transform="scale(0.015625)"/>
       </defs>
       <use xlink:href="#DejaVuSans-30"/>
       <use xlink:href="#DejaVuSans-2e" x="63.623047"/>
       <use xlink:href="#DejaVuSans-38" x="95.410156"/>
      </g>
     </g>
    </g>
    <g id="xtick_6">
     <g id="line2d_6">
      <g>
       <use xlink:href="#m49adcb556b" x="280.815776" y="320.401817" style="stroke: #000000; stroke-width: 0.8"/>
      </g>
     </g>
     <g id="text_5">
      <!-- 1.0 -->
      <g transform="translate(272.864214 335.000254)scale(0.1 -0.1)">
       <defs>
        <path id="DejaVuSans-31" d="M 794 531 
L 1825 531 
L 1825 4091 
L 703 3866 
L 703 4441 
L 1819 4666 
L 2450 4666 
L 2450 531 
L 3481 531 
L 3481 0 
L 794 0 
L 794 531 
z
" transform="scale(0.015625)"/>
       </defs>
       <use xlink:href="#DejaVuSans-31"/>
       <use xlink:href="#DejaVuSans-2e" x="63.623047"/>
       <use xlink:href="#DejaVuSans-30" x="95.410156"/>
      </g>
     </g>
    </g>
    <g id="xtick_7">
     <g id="line2d_7">
      <g>
       <use xlink:href="#m49adcb556b" x="326.142931" y="320.401817" style="stroke: #000000; stroke-width: 0.8"/>
      </g>
     </g>
     <g id="text_6">
      <!-- 1.2 -->
      <g transform="translate(318.191369 335.000254)scale(0.1 -0.1)">
       <use xlink:href="#DejaVuSans-31"/>
       <use xlink:href="#DejaVuSans-2e" x="63.623047"/>
       <use xlink:href="#DejaVuSans-32" x="95.410156"/>
      </g>
     </g>
    </g>
    <g id="xtick_8">
     <g id="line2d_8">
      <g>
       <use xlink:href="#m49adcb556b" x="371.470087" y="320.401817" style="stroke: #000000; stroke-width: 0.8"/>
      </g>
     </g>
     <g id="text_7">
      <!-- 1.4 -->
      <g transform="translate(363.518524 335.000254)scale(0.1 -0.1)">
       <use xlink:href="#DejaVuSans-31"/>
       <use xlink:href="#DejaVuSans-2e" x="63.623047"/>
       <use xlink:href="#DejaVuSans-34" x="95.410156"/>
      </g>
     </g>
    </g>
    <g id="xtick_9">
     <g id="line2d_9">
      <defs>
       <path id="m287cca44b0" d="M 0 0 
L 0 2 
" style="stroke: #000000; stroke-width: 0.6"/>
      </defs>
      <g>
       <use xlink:href="#m287cca44b0" x="65.511789" y="320.401817" style="stroke: #000000; stroke-width: 0.6"/>
      </g>
     </g>
    </g>
    <g id="xtick_10">
     <g id="line2d_10">
      <g>
       <use xlink:href="#m287cca44b0" x="76.843578" y="320.401817" style="stroke: #000000; stroke-width: 0.6"/>
      </g>
     </g>
    </g>
    <g id="xtick_11">
     <g id="line2d_11">
      <g>
       <use xlink:href="#m287cca44b0" x="88.175366" y="320.401817" style="stroke: #000000; stroke-width: 0.6"/>
      </g>
     </g>
    </g>
    <g id="xtick_12">
     <g id="line2d_12">
      <g>
       <use xlink:href="#m287cca44b0" x="110.838944" y="320.401817" style="stroke: #000000; stroke-width: 0.6"/>
      </g>
     </g>
    </g>
    <g id="xtick_13">
     <g id="line2d_13">
      <g>
       <use xlink:href="#m287cca44b0" x="122.170733" y="320.401817" style="stroke: #000000; stroke-width: 0.6"/>
      </g>
     </g>
    </g>
    <g id="xtick_14">
     <g id="line2d_14">
      <g>
       <use xlink:href="#m287cca44b0" x="133.502522" y="320.401817" style="stroke: #000000; stroke-width: 0.6"/>
      </g>
     </g>
    </g>
    <g id="xtick_15">
     <g id="line2d_15">
      <g>
       <use xlink:href="#m287cca44b0" x="156.166099" y="320.401817" style="stroke: #000000; stroke-width: 0.6"/>
      </g>
     </g>
    </g>
    <g id="xtick_16">
     <g id="line2d_16">
      <g>
       <use xlink:href="#m287cca44b0" x="167.497888" y="320.401817" style="stroke: #000000; stroke-width: 0.6"/>
      </g>
     </g>
    </g>
    <g id="xtick_17">
     <g id="line2d_17">
      <g>
       <use xlink:href="#m287cca44b0" x="178.829677" y="320.401817" style="stroke: #000000; stroke-width: 0.6"/>
      </g>
     </g>
    </g>
    <g id="xtick_18">
     <g id="line2d_18">
      <g>
       <use xlink:href="#m287cca44b0" x="201.493255" y="320.401817" style="stroke: #000000; stroke-width: 0.6"/>
      </g>
     </g>
    </g>
    <g id="xtick_19">
     <g id="line2d_19">
      <g>
       <use xlink:href="#m287cca44b0" x="212.825043" y="320.401817" style="stroke: #000000; stroke-width: 0.6"/>
      </g>
     </g>
    </g>
    <g id="xtick_20">
     <g id="line2d_20">
      <g>
       <use xlink:href="#m287cca44b0" x="224.156832" y="320.401817" style="stroke: #000000; stroke-width: 0.6"/>
      </g>
     </g>
    </g>
    <g id="xtick_21">
     <g id="line2d_21">
      <g>
       <use xlink:href="#m287cca44b0" x="246.82041" y="320.401817" style="stroke: #000000; stroke-width: 0.6"/>
      </g>
     </g>
    </g>
    <g id="xtick_22">
     <g id="line2d_22">
      <g>
       <use xlink:href="#m287cca44b0" x="258.152199" y="320.401817" style="stroke: #000000; stroke-width: 0.6"/>
      </g>
     </g>
    </g>
    <g id="xtick_23">
     <g id="line2d_23">
      <g>
       <use xlink:href="#m287cca44b0" x="269.483987" y="320.401817" style="stroke: #000000; stroke-width: 0.6"/>
      </g>
     </g>
    </g>
    <g id="xtick_24">
     <g id="line2d_24">
      <g>
       <use xlink:href="#m287cca44b0" x="292.147565" y="320.401817" style="stroke: #000000; stroke-width: 0.6"/>
      </g>
     </g>
    </g>
    <g id="xtick_25">
     <g id="line2d_25">
      <g>
       <use xlink:href="#m287cca44b0" x="303.479354" y="320.401817" style="stroke: #000000; stroke-width: 0.6"/>
      </g>
     </g>
    </g>
    <g id="xtick_26">
     <g id="line2d_26">
      <g>
       <use xlink:href="#m287cca44b0" x="314.811143" y="320.401817" style="stroke: #000000; stroke-width: 0.6"/>
      </g>
     </g>
    </g>
    <g id="xtick_27">
     <g id="line2d_27">
      <g>
       <use xlink:href="#m287cca44b0" x="337.47472" y="320.401817" style="stroke: #000000; stroke-width: 0.6"/>
      </g>
     </g>
    </g>
    <g id="xtick_28">
     <g id="line2d_28">
      <g>
       <use xlink:href="#m287cca44b0" x="348.806509" y="320.401817" style="stroke: #000000; stroke-width: 0.6"/>
      </g>
     </g>
    </g>
    <g id="xtick_29">
     <g id="line2d_29">
      <g>
       <use xlink:href="#m287cca44b0" x="360.138298" y="320.401817" style="stroke: #000000; stroke-width: 0.6"/>
      </g>
     </g>
    </g>
    <g id="xtick_30">
     <g id="line2d_30">
      <g>
       <use xlink:href="#m287cca44b0" x="382.801875" y="320.401817" style="stroke: #000000; stroke-width: 0.6"/>
      </g>
     </g>
    </g>
    <g id="xtick_31">
     <g id="line2d_31">
      <g>
       <use xlink:href="#m287cca44b0" x="394.133664" y="320.401817" style="stroke: #000000; stroke-width: 0.6"/>
      </g>
     </g>
    </g>
    <g id="text_8">
     <!-- Time in h -->
     <g transform="translate(408.894371 320.401817)scale(0.16 -0.16)">
      <defs>
       <path id="DejaVuSans-54" d="M -19 4666 
L 3928 4666 
L 3928 4134 
L 2272 4134 
L 2272 0 
L 1638 0 
L 1638 4134 
L -19 4134 
L -19 4666 
z
" transform="scale(0.015625)"/>
       <path id="DejaVuSans-69" d="M 603 3500 
L 1178 3500 
L 1178 0 
L 603 0 
L 603 3500 
z
M 603 4863 
L 1178 4863 
L 1178 4134 
L 603 4134 
L 603 4863 
z
" transform="scale(0.015625)"/>
       <path id="DejaVuSans-6d" d="M 3328 2828 
Q 3544 3216 3844 3400 
Q 4144 3584 4550 3584 
Q 5097 3584 5394 3201 
Q 5691 2819 5691 2113 
L 5691 0 
L 5113 0 
L 5113 2094 
Q 5113 2597 4934 2840 
Q 4756 3084 4391 3084 
Q 3944 3084 3684 2787 
Q 3425 2491 3425 1978 
L 3425 0 
L 2847 0 
L 2847 2094 
Q 2847 2600 2669 2842 
Q 2491 3084 2119 3084 
Q 1678 3084 1418 2786 
Q 1159 2488 1159 1978 
L 1159 0 
L 581 0 
L 581 3500 
L 1159 3500 
L 1159 2956 
Q 1356 3278 1631 3431 
Q 1906 3584 2284 3584 
Q 2666 3584 2933 3390 
Q 3200 3197 3328 2828 
z
" transform="scale(0.015625)"/>
       <path id="DejaVuSans-65" d="M 3597 1894 
L 3597 1613 
L 953 1613 
Q 991 1019 1311 708 
Q 1631 397 2203 397 
Q 2534 397 2845 478 
Q 3156 559 3463 722 
L 3463 178 
Q 3153 47 2828 -22 
Q 2503 -91 2169 -91 
Q 1331 -91 842 396 
Q 353 884 353 1716 
Q 353 2575 817 3079 
Q 1281 3584 2069 3584 
Q 2775 3584 3186 3129 
Q 3597 2675 3597 1894 
z
M 3022 2063 
Q 3016 2534 2758 2815 
Q 2500 3097 2075 3097 
Q 1594 3097 1305 2825 
Q 1016 2553 972 2059 
L 3022 2063 
z
" transform="scale(0.015625)"/>
       <path id="DejaVuSans-20" transform="scale(0.015625)"/>
       <path id="DejaVuSans-6e" d="M 3513 2113 
L 3513 0 
L 2938 0 
L 2938 2094 
Q 2938 2591 2744 2837 
Q 2550 3084 2163 3084 
Q 1697 3084 1428 2787 
Q 1159 2491 1159 1978 
L 1159 0 
L 581 0 
L 581 3500 
L 1159 3500 
L 1159 2956 
Q 1366 3272 1645 3428 
Q 1925 3584 2291 3584 
Q 2894 3584 3203 3211 
Q 3513 2838 3513 2113 
z
" transform="scale(0.015625)"/>
       <path id="DejaVuSans-68" d="M 3513 2113 
L 3513 0 
L 2938 0 
L 2938 2094 
Q 2938 2591 2744 2837 
Q 2550 3084 2163 3084 
Q 1697 3084 1428 2787 
Q 1159 2491 1159 1978 
L 1159 0 
L 581 0 
L 581 4863 
L 1159 4863 
L 1159 2956 
Q 1366 3272 1645 3428 
Q 1925 3584 2291 3584 
Q 2894 3584 3203 3211 
Q 3513 2838 3513 2113 
z
" transform="scale(0.015625)"/>
      </defs>
      <use xlink:href="#DejaVuSans-54"/>
      <use xlink:href="#DejaVuSans-69" x="57.958984"/>
      <use xlink:href="#DejaVuSans-6d" x="85.742188"/>
      <use xlink:href="#DejaVuSans-65" x="183.154297"/>
      <use xlink:href="#DejaVuSans-20" x="244.677734"/>
      <use xlink:href="#DejaVuSans-69" x="276.464844"/>
      <use xlink:href="#DejaVuSans-6e" x="304.248047"/>
      <use xlink:href="#DejaVuSans-20" x="367.626953"/>
      <use xlink:href="#DejaVuSans-68" x="399.414062"/>
     </g>
    </g>
   </g>
   <g id="matplotlib.axis_2">
    <g id="ytick_1">
     <g id="line2d_32">
      <defs>
       <path id="mfcd7c273ea" d="M 0 0 
L -3.5 0 
" style="stroke: #000000; stroke-width: 0.8"/>
      </defs>
      <g>
       <use xlink:href="#mfcd7c273ea" x="54.18" y="320.401817" style="stroke: #000000; stroke-width: 0.8"/>
      </g>
     </g>
    </g>
    <g id="ytick_2">
     <g id="line2d_33">
      <g>
       <use xlink:href="#mfcd7c273ea" x="54.18" y="270.804207" style="stroke: #000000; stroke-width: 0.8"/>
      </g>
     </g>
     <g id="text_9">
      <!-- 0.5 -->
      <g transform="translate(31.276875 274.603426)scale(0.1 -0.1)">
       <defs>
        <path id="DejaVuSans-35" d="M 691 4666 
L 3169 4666 
L 3169 4134 
L 1269 4134 
L 1269 2991 
Q 1406 3038 1543 3061 
Q 1681 3084 1819 3084 
Q 2600 3084 3056 2656 
Q 3513 2228 3513 1497 
Q 3513 744 3044 326 
Q 2575 -91 1722 -91 
Q 1428 -91 1123 -41 
Q 819 9 494 109 
L 494 744 
Q 775 591 1075 516 
Q 1375 441 1709 441 
Q 2250 441 2565 725 
Q 2881 1009 2881 1497 
Q 2881 1984 2565 2268 
Q 2250 2553 1709 2553 
Q 1456 2553 1204 2497 
Q 953 2441 691 2322 
L 691 4666 
z
" transform="scale(0.015625)"/>
       </defs>
       <use xlink:href="#DejaVuSans-30"/>
       <use xlink:href="#DejaVuSans-2e" x="63.623047"/>
       <use xlink:href="#DejaVuSans-35" x="95.410156"/>
      </g>
     </g>
    </g>
    <g id="ytick_3">
     <g id="line2d_34">
      <g>
       <use xlink:href="#mfcd7c273ea" x="54.18" y="221.206598" style="stroke: #000000; stroke-width: 0.8"/>
      </g>
     </g>
     <g id="text_10">
      <!-- 1.0 -->
      <g transform="translate(31.276875 225.005817)scale(0.1 -0.1)">
       <use xlink:href="#DejaVuSans-31"/>
       <use xlink:href="#DejaVuSans-2e" x="63.623047"/>
       <use xlink:href="#DejaVuSans-30" x="95.410156"/>
      </g>
     </g>
    </g>
    <g id="ytick_4">
     <g id="line2d_35">
      <g>
       <use xlink:href="#mfcd7c273ea" x="54.18" y="171.608989" style="stroke: #000000; stroke-width: 0.8"/>
      </g>
     </g>
     <g id="text_11">
      <!-- 1.5 -->
      <g transform="translate(31.276875 175.408208)scale(0.1 -0.1)">
       <use xlink:href="#DejaVuSans-31"/>
       <use xlink:href="#DejaVuSans-2e" x="63.623047"/>
       <use xlink:href="#DejaVuSans-35" x="95.410156"/>
      </g>
     </g>
    </g>
    <g id="ytick_5">
     <g id="line2d_36">
      <g>
       <use xlink:href="#mfcd7c273ea" x="54.18" y="122.011379" style="stroke: #000000; stroke-width: 0.8"/>
      </g>
     </g>
     <g id="text_12">
      <!-- 2.0 -->
      <g transform="translate(31.276875 125.810598)scale(0.1 -0.1)">
       <use xlink:href="#DejaVuSans-32"/>
       <use xlink:href="#DejaVuSans-2e" x="63.623047"/>
       <use xlink:href="#DejaVuSans-30" x="95.410156"/>
      </g>
     </g>
    </g>
    <g id="ytick_6">
     <g id="line2d_37">
      <g>
       <use xlink:href="#mfcd7c273ea" x="54.18" y="72.41377" style="stroke: #000000; stroke-width: 0.8"/>
      </g>
     </g>
     <g id="text_13">
      <!-- 2.5 -->
      <g transform="translate(31.276875 76.212989)scale(0.1 -0.1)">
       <use xlink:href="#DejaVuSans-32"/>
       <use xlink:href="#DejaVuSans-2e" x="63.623047"/>
       <use xlink:href="#DejaVuSans-35" x="95.410156"/>
      </g>
     </g>
    </g>
    <g id="ytick_7">
     <g id="line2d_38">
      <defs>
       <path id="mf1449af748" d="M 0 0 
L -2 0 
" style="stroke: #000000; stroke-width: 0.6"/>
      </defs>
      <g>
       <use xlink:href="#mf1449af748" x="54.18" y="310.482295" style="stroke: #000000; stroke-width: 0.6"/>
      </g>
     </g>
    </g>
    <g id="ytick_8">
     <g id="line2d_39">
      <g>
       <use xlink:href="#mf1449af748" x="54.18" y="300.562773" style="stroke: #000000; stroke-width: 0.6"/>
      </g>
     </g>
    </g>
    <g id="ytick_9">
     <g id="line2d_40">
      <g>
       <use xlink:href="#mf1449af748" x="54.18" y="290.643251" style="stroke: #000000; stroke-width: 0.6"/>
      </g>
     </g>
    </g>
    <g id="ytick_10">
     <g id="line2d_41">
      <g>
       <use xlink:href="#mf1449af748" x="54.18" y="280.723729" style="stroke: #000000; stroke-width: 0.6"/>
      </g>
     </g>
    </g>
    <g id="ytick_11">
     <g id="line2d_42">
      <g>
       <use xlink:href="#mf1449af748" x="54.18" y="260.884685" style="stroke: #000000; stroke-width: 0.6"/>
      </g>
     </g>
    </g>
    <g id="ytick_12">
     <g id="line2d_43">
      <g>
       <use xlink:href="#mf1449af748" x="54.18" y="250.965164" style="stroke: #000000; stroke-width: 0.6"/>
      </g>
     </g>
    </g>
    <g id="ytick_13">
     <g id="line2d_44">
      <g>
       <use xlink:href="#mf1449af748" x="54.18" y="241.045642" style="stroke: #000000; stroke-width: 0.6"/>
      </g>
     </g>
    </g>
    <g id="ytick_14">
     <g id="line2d_45">
      <g>
       <use xlink:href="#mf1449af748" x="54.18" y="231.12612" style="stroke: #000000; stroke-width: 0.6"/>
      </g>
     </g>
    </g>
    <g id="ytick_15">
     <g id="line2d_46">
      <g>
       <use xlink:href="#mf1449af748" x="54.18" y="211.287076" style="stroke: #000000; stroke-width: 0.6"/>
      </g>
     </g>
    </g>
    <g id="ytick_16">
     <g id="line2d_47">
      <g>
       <use xlink:href="#mf1449af748" x="54.18" y="201.367554" style="stroke: #000000; stroke-width: 0.6"/>
      </g>
     </g>
    </g>
    <g id="ytick_17">
     <g id="line2d_48">
      <g>
       <use xlink:href="#mf1449af748" x="54.18" y="191.448032" style="stroke: #000000; stroke-width: 0.6"/>
      </g>
     </g>
    </g>
    <g id="ytick_18">
     <g id="line2d_49">
      <g>
       <use xlink:href="#mf1449af748" x="54.18" y="181.528511" style="stroke: #000000; stroke-width: 0.6"/>
      </g>
     </g>
    </g>
    <g id="ytick_19">
     <g id="line2d_50">
      <g>
       <use xlink:href="#mf1449af748" x="54.18" y="161.689467" style="stroke: #000000; stroke-width: 0.6"/>
      </g>
     </g>
    </g>
    <g id="ytick_20">
     <g id="line2d_51">
      <g>
       <use xlink:href="#mf1449af748" x="54.18" y="151.769945" style="stroke: #000000; stroke-width: 0.6"/>
      </g>
     </g>
    </g>
    <g id="ytick_21">
     <g id="line2d_52">
      <g>
       <use xlink:href="#mf1449af748" x="54.18" y="141.850423" style="stroke: #000000; stroke-width: 0.6"/>
      </g>
     </g>
    </g>
    <g id="ytick_22">
     <g id="line2d_53">
      <g>
       <use xlink:href="#mf1449af748" x="54.18" y="131.930901" style="stroke: #000000; stroke-width: 0.6"/>
      </g>
     </g>
    </g>
    <g id="ytick_23">
     <g id="line2d_54">
      <g>
       <use xlink:href="#mf1449af748" x="54.18" y="112.091858" style="stroke: #000000; stroke-width: 0.6"/>
      </g>
     </g>
    </g>
    <g id="ytick_24">
     <g id="line2d_55">
      <g>
       <use xlink:href="#mf1449af748" x="54.18" y="102.172336" style="stroke: #000000; stroke-width: 0.6"/>
      </g>
     </g>
    </g>
    <g id="ytick_25">
     <g id="line2d_56">
      <g>
       <use xlink:href="#mf1449af748" x="54.18" y="92.252814" style="stroke: #000000; stroke-width: 0.6"/>
      </g>
     </g>
    </g>
    <g id="ytick_26">
     <g id="line2d_57">
      <g>
       <use xlink:href="#mf1449af748" x="54.18" y="82.333292" style="stroke: #000000; stroke-width: 0.6"/>
      </g>
     </g>
    </g>
    <g id="ytick_27">
     <g id="line2d_58">
      <g>
       <use xlink:href="#mf1449af748" x="54.18" y="62.494248" style="stroke: #000000; stroke-width: 0.6"/>
      </g>
     </g>
    </g>
    <g id="ytick_28">
     <g id="line2d_59">
      <g>
       <use xlink:href="#mf1449af748" x="54.18" y="52.574726" style="stroke: #000000; stroke-width: 0.6"/>
      </g>
     </g>
    </g>
    <g id="ytick_29">
     <g id="line2d_60">
      <g>
       <use xlink:href="#mf1449af748" x="54.18" y="42.655205" style="stroke: #000000; stroke-width: 0.6"/>
      </g>
     </g>
    </g>
    <g id="ytick_30">
     <g id="line2d_61">
      <g>
       <use xlink:href="#mf1449af748" x="54.18" y="32.735683" style="stroke: #000000; stroke-width: 0.6"/>
      </g>
     </g>
    </g>
    <g id="text_14">
     <!-- Slots in 1e7 -->
     <g transform="translate(7.2 19.3575)scale(0.16 -0.16)">
      <defs>
       <path id="DejaVuSans-53" d="M 3425 4513 
L 3425 3897 
Q 3066 4069 2747 4153 
Q 2428 4238 2131 4238 
Q 1616 4238 1336 4038 
Q 1056 3838 1056 3469 
Q 1056 3159 1242 3001 
Q 1428 2844 1947 2747 
L 2328 2669 
Q 3034 2534 3370 2195 
Q 3706 1856 3706 1288 
Q 3706 609 3251 259 
Q 2797 -91 1919 -91 
Q 1588 -91 1214 -16 
Q 841 59 441 206 
L 441 856 
Q 825 641 1194 531 
Q 1563 422 1919 422 
Q 2459 422 2753 634 
Q 3047 847 3047 1241 
Q 3047 1584 2836 1778 
Q 2625 1972 2144 2069 
L 1759 2144 
Q 1053 2284 737 2584 
Q 422 2884 422 3419 
Q 422 4038 858 4394 
Q 1294 4750 2059 4750 
Q 2388 4750 2728 4690 
Q 3069 4631 3425 4513 
z
" transform="scale(0.015625)"/>
       <path id="DejaVuSans-6c" d="M 603 4863 
L 1178 4863 
L 1178 0 
L 603 0 
L 603 4863 
z
" transform="scale(0.015625)"/>
       <path id="DejaVuSans-6f" d="M 1959 3097 
Q 1497 3097 1228 2736 
Q 959 2375 959 1747 
Q 959 1119 1226 758 
Q 1494 397 1959 397 
Q 2419 397 2687 759 
Q 2956 1122 2956 1747 
Q 2956 2369 2687 2733 
Q 2419 3097 1959 3097 
z
M 1959 3584 
Q 2709 3584 3137 3096 
Q 3566 2609 3566 1747 
Q 3566 888 3137 398 
Q 2709 -91 1959 -91 
Q 1206 -91 779 398 
Q 353 888 353 1747 
Q 353 2609 779 3096 
Q 1206 3584 1959 3584 
z
" transform="scale(0.015625)"/>
       <path id="DejaVuSans-74" d="M 1172 4494 
L 1172 3500 
L 2356 3500 
L 2356 3053 
L 1172 3053 
L 1172 1153 
Q 1172 725 1289 603 
Q 1406 481 1766 481 
L 2356 481 
L 2356 0 
L 1766 0 
Q 1100 0 847 248 
Q 594 497 594 1153 
L 594 3053 
L 172 3053 
L 172 3500 
L 594 3500 
L 594 4494 
L 1172 4494 
z
" transform="scale(0.015625)"/>
       <path id="DejaVuSans-73" d="M 2834 3397 
L 2834 2853 
Q 2591 2978 2328 3040 
Q 2066 3103 1784 3103 
Q 1356 3103 1142 2972 
Q 928 2841 928 2578 
Q 928 2378 1081 2264 
Q 1234 2150 1697 2047 
L 1894 2003 
Q 2506 1872 2764 1633 
Q 3022 1394 3022 966 
Q 3022 478 2636 193 
Q 2250 -91 1575 -91 
Q 1294 -91 989 -36 
Q 684 19 347 128 
L 347 722 
Q 666 556 975 473 
Q 1284 391 1588 391 
Q 1994 391 2212 530 
Q 2431 669 2431 922 
Q 2431 1156 2273 1281 
Q 2116 1406 1581 1522 
L 1381 1569 
Q 847 1681 609 1914 
Q 372 2147 372 2553 
Q 372 3047 722 3315 
Q 1072 3584 1716 3584 
Q 2034 3584 2315 3537 
Q 2597 3491 2834 3397 
z
" transform="scale(0.015625)"/>
       <path id="DejaVuSans-37" d="M 525 4666 
L 3525 4666 
L 3525 4397 
L 1831 0 
L 1172 0 
L 2766 4134 
L 525 4134 
L 525 4666 
z
" transform="scale(0.015625)"/>
      </defs>
      <use xlink:href="#DejaVuSans-53"/>
      <use xlink:href="#DejaVuSans-6c" x="63.476562"/>
      <use xlink:href="#DejaVuSans-6f" x="91.259766"/>
      <use xlink:href="#DejaVuSans-74" x="152.441406"/>
      <use xlink:href="#DejaVuSans-73" x="191.650391"/>
      <use xlink:href="#DejaVuSans-20" x="243.75"/>
      <use xlink:href="#DejaVuSans-69" x="275.537109"/>
      <use xlink:href="#DejaVuSans-6e" x="303.320312"/>
      <use xlink:href="#DejaVuSans-20" x="366.699219"/>
      <use xlink:href="#DejaVuSans-31" x="398.486328"/>
      <use xlink:href="#DejaVuSans-65" x="462.109375"/>
      <use xlink:href="#DejaVuSans-37" x="523.632812"/>
     </g>
    </g>
   </g>
   <g id="line2d_62">
    <path d="M 54.18 275.835389 
L 394.09605 275.835389 
" clip-path="url(#p591bd2d8f2)" style="fill: none; stroke-dasharray: 3.7,1.6; stroke-dashoffset: 0; stroke: #0000ff"/>
   </g>
   <g id="line2d_63">
    <path d="M 54.18 320.401817 
L 54.396979 320.310567 
L 56.009209 319.72472 
L 63.929921 317.317024 
L 66.401303 316.764893 
L 68.225324 316.435039 
L 73.315274 315.21231 
L 75.133327 314.873508 
L 79.80407 313.722189 
L 82.072946 313.249236 
L 86.676316 312.11362 
L 87.836741 311.836498 
L 91.97997 310.809768 
L 94.15998 310.335416 
L 98.253198 309.260636 
L 100.016865 308.865432 
L 110.404704 306.155379 
L 111.369083 305.933708 
L 116.223288 304.578027 
L 118.006212 304.162706 
L 122.666713 302.7842 
L 124.329797 302.414371 
L 127.051832 301.60831 
L 127.505462 301.48884 
L 129.420704 300.989977 
L 131.285501 300.554976 
L 135.25412 299.385276 
L 146.881921 296.531152 
L 173.697163 290.106674 
L 179.613547 288.437278 
L 181.896292 287.899204 
L 188.892475 286.001966 
L 191.059818 285.485229 
L 195.091474 284.307236 
L 197.580325 283.667397 
L 198.991605 283.390801 
L 205.855653 281.657146 
L 211.543047 280.297477 
L 214.11365 279.686276 
L 221.200935 278.186177 
L 230.819697 276.14836 
L 232.331736 275.843404 
L 232.821689 275.753057 
L 233.490049 275.215617 
L 234.506318 274.098282 
L 235.757762 272.582778 
L 236.947693 271.765211 
L 237.02602 271.713629 
L 237.543951 271.550155 
L 238.482069 270.537967 
L 238.950732 270.011836 
L 239.215026 269.912442 
L 240.700729 268.404477 
L 241.099009 268.222156 
L 242.352395 267.327812 
L 242.670543 267.250836 
L 243.68686 266.14223 
L 245.249837 264.205146 
L 247.526381 261.907944 
L 249.325285 259.657313 
L 250.88831 257.964378 
L 252.685925 255.610188 
L 253.16664 255.187656 
L 255.202759 252.867381 
L 257.236282 250.62048 
L 258.127717 249.820669 
L 260.316421 247.065383 
L 260.708163 246.759713 
L 262.505739 244.998016 
L 264.615891 242.524265 
L 266.430925 240.482768 
L 267.915145 238.547638 
L 269.645343 236.832117 
L 271.755778 234.011858 
L 273.022309 232.895534 
L 274.833351 230.303038 
L 275.223941 229.831473 
L 276.318459 228.868794 
L 277.108315 227.9214 
L 278.90594 225.566565 
L 280.334598 224.212957 
L 282.602761 221.279883 
L 283.974316 220.026244 
L 286.162541 217.05007 
L 286.63661 216.672484 
L 288.605234 214.419998 
L 289.856922 212.767029 
L 291.381374 211.342983 
L 293.491975 208.527306 
L 295.080674 206.932267 
L 297.112997 204.188458 
L 297.50385 203.878056 
L 298.994101 202.238994 
L 301.03383 199.658897 
L 302.308099 198.459944 
L 304.442509 195.653612 
L 305.305481 194.878739 
L 306.256186 193.857683 
L 308.39084 191.186187 
L 310.06413 189.654077 
L 312.565546 186.698992 
L 313.681668 185.74155 
L 316.026937 182.689789 
L 316.418474 182.365083 
L 318.060734 180.640059 
L 320.281316 178.08107 
L 321.537874 176.997749 
L 322.866494 175.492571 
L 324.54157 173.794438 
L 327.123332 171.185921 
L 328.295386 169.856894 
L 330.218694 168.413008 
L 332.490125 165.62835 
L 332.802789 165.427182 
L 334.212448 164.216673 
L 335.859714 162.128773 
L 336.196655 161.717083 
L 336.665328 161.202914 
L 338.214644 159.952668 
L 340.580346 157.067396 
L 342.238482 155.756482 
L 342.809779 155.12435 
L 343.228921 154.656536 
L 344.715425 152.800861 
L 346.474321 151.347254 
L 349.079346 148.338534 
L 349.470581 148.052594 
L 351.520087 146.054922 
L 352.926888 144.550081 
L 353.631928 143.942292 
L 355.31561 142.459631 
L 357.504538 140.109676 
L 358.051801 139.750708 
L 361.525 137.186512 
L 362.933391 135.8433 
L 363.324284 135.531192 
L 365.126242 134.342714 
L 367.021622 132.508842 
L 368.116569 131.359418 
L 370.164748 129.993252 
L 371.181486 129.079376 
L 373.933104 126.721099 
L 375.382986 125.708385 
L 378.375987 122.808373 
L 380.575473 121.242517 
L 382.529752 119.129451 
L 383.431961 118.364447 
L 384.775227 117.423739 
L 385.645996 116.763566 
L 388.567334 114.198099 
L 391.747531 112.310077 
L 394.09605 110.614553 
L 394.09605 110.614553 
" clip-path="url(#p591bd2d8f2)" style="fill: none; stroke: #ff0000; stroke-linecap: square"/>
   </g>
   <g id="line2d_64">
    <path d="M 54.18 275.835389 
L 393.980049 275.835389 
" clip-path="url(#p591bd2d8f2)" style="fill: none; stroke-dasharray: 3.7,1.6; stroke-dashoffset: 0; stroke: #0000ff"/>
   </g>
   <g id="line2d_65">
    <path d="M 54.18 320.401817 
L 54.345841 320.315606 
L 55.45409 319.830363 
L 56.468581 319.496164 
L 59.609261 318.335461 
L 61.883652 317.492262 
L 64.158698 316.859387 
L 66.640945 316.316719 
L 70.168474 315.354556 
L 72.041317 314.935575 
L 74.923677 314.081514 
L 76.688219 313.661204 
L 77.49479 313.466742 
L 81.192687 312.316752 
L 83.057219 311.869272 
L 86.194375 310.912088 
L 87.758375 310.610812 
L 92.940453 309.058923 
L 94.363707 308.629745 
L 97.959491 307.439987 
L 99.925185 306.920631 
L 103.464883 305.793337 
L 105.336259 305.290357 
L 108.539542 304.272724 
L 110.605415 303.737198 
L 114.195546 302.571228 
L 116.031887 302.073962 
L 118.401534 301.317083 
L 119.006381 301.114735 
L 120.217271 300.831929 
L 122.082471 300.340893 
L 125.882152 299.018988 
L 129.058698 298.095946 
L 132.769814 297.112277 
L 133.829916 296.833033 
L 137.31915 295.845207 
L 138.679556 295.529855 
L 140.104 295.157556 
L 143.646544 294.193091 
L 145.782007 293.720336 
L 149.209942 292.763747 
L 150.671246 292.48601 
L 152.132946 292.090351 
L 155.792503 290.920154 
L 156.709075 290.71736 
L 158.488562 290.228982 
L 163.23446 288.825151 
L 164.44353 288.457038 
L 168.546853 287.207922 
L 170.373953 286.711381 
L 174.036828 285.590088 
L 175.800413 285.101432 
L 179.038408 284.034925 
L 181.681441 283.377122 
L 185.259353 282.39863 
L 188.12214 281.681737 
L 191.258213 280.799246 
L 193.262806 280.314628 
L 200.832573 278.422311 
L 213.249142 275.743534 
L 213.75352 274.985881 
L 214.766229 272.808546 
L 216.789073 268.339008 
L 217.343833 267.331184 
L 218.306519 265.999389 
L 218.659454 265.229634 
L 219.567363 263.302073 
L 219.970611 262.554696 
L 221.382017 259.628438 
L 222.289857 257.637441 
L 222.89476 256.412469 
L 224.309308 254.746793 
L 226.640043 250.547988 
L 227.699023 249.05138 
L 228.506073 247.645516 
L 228.722756 247.482529 
L 229.58078 246.153005 
L 229.884963 245.914718 
L 230.285529 245.76664 
L 231.143887 244.952435 
L 231.952165 243.391589 
L 232.406154 242.500707 
L 233.977817 238.982441 
L 237.340172 231.267562 
L 238.926018 228.520321 
L 240.186195 225.519259 
L 242.562232 220.205837 
L 242.864533 219.499548 
L 244.277903 216.214589 
L 245.021255 215.230423 
L 245.576267 214.237142 
L 250.715819 202.538574 
L 251.876094 200.554828 
L 254.506781 194.491907 
L 254.758838 193.909661 
L 257.33947 188.299775 
L 259.125939 185.603252 
L 260.134374 183.189941 
L 260.327713 182.990827 
L 262.373441 178.449134 
L 263.850036 175.70963 
L 264.264421 175.233969 
L 265.532901 173.623187 
L 270.944926 163.067209 
L 272.25743 160.418488 
L 272.613248 160.098128 
L 273.118149 159.484982 
L 273.975732 158.128378 
L 274.93466 156.189955 
L 279.40935 147.340531 
L 279.973824 146.602003 
L 281.184494 145.302546 
L 281.537819 144.821409 
L 283.003781 142.260972 
L 283.962803 140.684383 
L 286.603563 137.076792 
L 287.612898 135.980348 
L 290.027293 132.708473 
L 291.643835 130.16358 
L 291.801618 130.000354 
L 292.733406 128.599271 
L 293.094544 128.232904 
L 294.579411 126.418296 
L 296.802689 122.918252 
L 297.611004 121.761546 
L 298.11605 121.034386 
L 299.427755 118.906827 
L 300.610598 117.525405 
L 301.529065 116.904205 
L 302.033405 116.239368 
L 302.84111 114.985382 
L 303.295603 114.390558 
L 303.719367 113.906852 
L 305.553449 111.896354 
L 306.058047 111.248996 
L 309.31639 107.9588 
L 311.691218 105.86835 
L 312.731407 105.286659 
L 314.163078 103.758666 
L 314.827164 102.999852 
L 316.54988 101.061131 
L 317.058904 100.570472 
L 317.557257 100.140044 
L 318.213984 99.597773 
L 319.527125 98.237708 
L 320.538883 97.136829 
L 321.047164 96.868883 
L 322.18402 96.159221 
L 322.590353 95.875731 
L 322.830385 95.718159 
L 326.326997 92.596228 
L 326.784846 92.420394 
L 329.712048 90.040007 
L 330.070592 89.85593 
L 332.625143 87.741455 
L 333.203649 87.286466 
L 333.397782 87.203787 
L 333.903457 86.701284 
L 335.909404 84.928259 
L 336.47061 84.688008 
L 338.432615 83.304284 
L 338.849996 82.998793 
L 339.102626 82.762073 
L 340.466948 81.311423 
L 340.671481 81.111445 
L 342.118412 79.615313 
L 343.295004 78.72086 
L 343.802007 78.612807 
L 344.611487 78.16996 
L 345.775627 77.163267 
L 346.282441 76.747441 
L 346.888547 76.19283 
L 347.183174 76.015856 
L 347.841204 75.491441 
L 348.5334 75.077063 
L 349.143749 74.592087 
L 349.705693 74.479322 
L 350.484659 73.992561 
L 353.531884 71.021149 
L 353.936315 70.67097 
L 354.400088 70.348754 
L 355.461291 69.770118 
L 356.017002 69.415277 
L 356.370761 69.032185 
L 356.85551 68.44373 
L 357.107598 68.148743 
L 358.170149 66.963181 
L 359.358834 65.894472 
L 359.66687 65.706606 
L 360.87895 64.445924 
L 362.552328 63.145138 
L 363.059142 62.602887 
L 364.627493 61.589677 
L 364.920508 61.481912 
L 366.71428 59.96847 
L 368.641483 58.697938 
L 369.082007 58.338068 
L 370.034544 57.521523 
L 370.287199 57.317776 
L 370.641494 57.176462 
L 372.033547 55.901972 
L 372.252893 55.757108 
L 373.43466 54.709586 
L 374.402886 54.225206 
L 374.967612 54.038302 
L 375.672248 53.642751 
L 376.431194 53.014469 
L 376.777821 52.883234 
L 377.588113 52.232801 
L 379.03427 50.97323 
L 379.469366 50.837441 
L 380.688365 50.222123 
L 381.695345 49.522817 
L 384.197064 47.466302 
L 384.753493 46.954464 
L 385.462334 46.434761 
L 387.722585 44.862943 
L 388.177279 44.455052 
L 388.641354 44.28026 
L 389.046069 43.912861 
L 389.904276 43.011067 
L 391.344118 41.847845 
L 392.543506 41.213303 
L 393.018604 40.916431 
L 393.674702 40.356326 
L 393.980049 40.162895 
L 393.980049 40.162895 
" clip-path="url(#p591bd2d8f2)" style="fill: none; stroke: #0000ff; stroke-linecap: square"/>
   </g>
   <g id="line2d_66">
    <path d="M 54.18 275.835389 
L 394.093311 275.835389 
" clip-path="url(#p591bd2d8f2)" style="fill: none; stroke-dasharray: 3.7,1.6; stroke-dashoffset: 0; stroke: #0000ff"/>
   </g>
   <g id="line2d_67">
    <path d="M 54.18 320.401817 
L 54.446864 320.304189 
L 58.311192 319.251033 
L 60.146665 318.716649 
L 64.093036 317.607329 
L 67.836159 316.726425 
L 69.801664 316.420001 
L 77.335258 314.599154 
L 78.0426 314.469506 
L 82.698134 313.420249 
L 85.782565 312.680619 
L 87.047274 312.372787 
L 89.628694 311.835893 
L 90.893749 311.54168 
L 109.016005 307.065644 
L 110.531532 306.726288 
L 111.746583 306.493526 
L 116.29 305.369505 
L 118.325668 304.909785 
L 122.998337 303.75913 
L 123.86017 303.566999 
L 127.560723 302.565683 
L 129.123717 302.297806 
L 130.944364 301.787209 
L 135.247019 300.67901 
L 137.565302 300.177598 
L 141.185682 299.373878 
L 141.82076 299.249269 
L 143.490159 298.981482 
L 144.598956 298.686198 
L 147.735614 297.819301 
L 180.983258 291.334671 
L 183.770154 290.702381 
L 185.839459 290.283817 
L 190.291353 289.188117 
L 191.45057 289.008048 
L 195.112236 288.045229 
L 196.992054 287.618243 
L 199.478104 287.103658 
L 202.154005 286.434388 
L 204.322343 285.968468 
L 205.685053 285.693221 
L 209.732044 284.620901 
L 211.698783 284.22042 
L 214.638041 283.491891 
L 223.125016 281.720284 
L 224.536321 281.4817 
L 236.429336 278.866795 
L 239.270347 278.384706 
L 241.490981 277.9627 
L 253.276149 275.593551 
L 255.497771 273.179139 
L 255.910519 272.821838 
L 257.557645 272.370301 
L 259.605387 271.684267 
L 259.958719 271.303754 
L 261.879318 268.858989 
L 262.284606 268.522717 
L 264.473215 267.801965 
L 265.080247 267.390305 
L 266.746271 265.408186 
L 267.868156 264.241848 
L 268.729517 263.833759 
L 269.591136 263.213789 
L 272.164988 259.983338 
L 272.979857 259.726968 
L 273.944885 259.380013 
L 274.554189 258.957213 
L 276.377228 256.575149 
L 277.24948 255.633043 
L 278.475151 255.126165 
L 278.828501 254.860272 
L 280.039744 253.172089 
L 280.59519 252.554529 
L 281.554055 251.405134 
L 282.927499 251.059736 
L 284.058368 250.635994 
L 284.917575 250.024059 
L 285.325136 249.407699 
L 287.496709 247.07191 
L 288.882235 246.61831 
L 290.108536 245.962749 
L 290.475937 245.436885 
L 290.879884 244.9519 
L 293.003852 242.740967 
L 293.872597 242.445058 
L 294.696991 242.112238 
L 295.333636 241.553452 
L 295.907956 240.657461 
L 297.731694 238.528623 
L 298.70648 238.254179 
L 299.936634 237.742223 
L 300.188974 237.413777 
L 302.316341 234.446898 
L 302.585716 234.24199 
L 303.767521 233.768681 
L 304.334797 233.392314 
L 306.910494 229.936888 
L 309.50925 229.209262 
L 310.484697 228.594023 
L 310.938844 227.841736 
L 312.707893 225.684994 
L 314.147566 225.323388 
L 315.520796 224.871018 
L 315.976756 224.61068 
L 316.394074 224.031985 
L 316.898471 223.376315 
L 317.756168 222.311821 
L 318.518413 221.402638 
L 321.205218 220.496241 
L 321.407755 220.287941 
L 323.729424 217.119031 
L 324.600064 216.903837 
L 326.34426 216.258145 
L 326.677767 215.841793 
L 327.28301 214.85116 
L 328.801382 212.975488 
L 329.006185 212.81998 
L 330.44881 212.332931 
L 331.224175 211.690801 
L 333.552851 208.545122 
L 335.60077 208.085342 
L 337.532292 207.378626 
L 337.747797 207.080505 
L 338.151247 206.416452 
L 339.311496 204.947301 
L 339.974431 204.24497 
L 342.226637 203.674061 
L 343.552689 202.980548 
L 344.107607 202.081175 
L 345.874358 199.959131 
L 347.159685 199.627938 
L 348.651264 199.019286 
L 349.010972 198.643584 
L 349.431136 197.980117 
L 351.507328 195.641659 
L 352.93665 195.2176 
L 353.801706 194.824945 
L 354.205137 194.28078 
L 354.810418 193.336709 
L 356.5294 191.359025 
L 357.964357 190.821515 
L 358.371319 190.468926 
L 360.800087 187.367726 
L 361.157177 187.101963 
L 362.613733 186.767595 
L 363.844347 186.342613 
L 364.82653 185.546472 
L 365.331342 184.836185 
L 367.202736 182.793726 
L 369.376847 182.110142 
L 370.097354 181.722566 
L 371.611545 179.721184 
L 371.873391 179.444002 
L 372.733298 178.524433 
L 374.321964 177.926107 
L 374.981959 177.481266 
L 377.816468 174.261697 
L 379.543325 173.507972 
L 380.048119 172.978944 
L 380.502221 172.299993 
L 381.159263 171.590638 
L 382.775554 169.936676 
L 383.556743 169.637097 
L 384.333134 169.147459 
L 385.153914 168.061778 
L 385.45663 167.702165 
L 386.516782 166.512666 
L 387.446215 165.641514 
L 389.767482 164.925215 
L 390.638361 164.419051 
L 391.647193 163.026866 
L 392.759125 161.688991 
L 393.114068 161.39201 
L 394.093311 161.140342 
L 394.093311 161.140342 
" clip-path="url(#p591bd2d8f2)" style="fill: none; stroke: #008000; stroke-linecap: square"/>
   </g>
   <g id="line2d_68">
    <path d="M 54.18 275.835389 
L 394.094544 275.835389 
" clip-path="url(#p591bd2d8f2)" style="fill: none; stroke-dasharray: 3.7,1.6; stroke-dashoffset: 0; stroke: #0000ff"/>
   </g>
   <g id="line2d_69">
    <path d="M 54.18 320.401817 
L 54.396311 320.291293 
L 55.656085 319.753992 
L 62.395698 317.328788 
L 65.531651 316.473815 
L 81.221507 311.990241 
L 82.130921 311.713327 
L 84.252307 311.09054 
L 87.390055 310.117256 
L 90.427389 309.159477 
L 91.888775 308.845931 
L 100.67664 305.855522 
L 101.08075 305.744959 
L 103.604547 304.951616 
L 105.125091 304.584514 
L 119.183881 299.933359 
L 121.206857 299.406534 
L 126.345987 297.717993 
L 143.282365 293.050511 
L 145.602228 292.423359 
L 157.934261 288.605037 
L 159.043089 288.311092 
L 160.123903 288.039009 
L 163.269551 287.065418 
L 168.636047 285.389654 
L 172.720433 284.061976 
L 173.728194 283.742736 
L 175.643789 283.193601 
L 177.123172 282.799062 
L 188.791018 279.513676 
L 194.398428 278.157936 
L 198.637253 277.119005 
L 200.376614 276.754581 
L 202.091132 276.371727 
L 204.989225 275.658821 
L 205.796325 274.583148 
L 208.577285 269.586288 
L 209.485005 268.017814 
L 210.140908 266.928452 
L 213.274475 261.478101 
L 214.824833 259.263399 
L 215.039407 259.106006 
L 216.313358 257.025307 
L 217.575166 255.093669 
L 217.757538 254.997945 
L 218.515572 253.531751 
L 220.282594 250.475496 
L 220.514078 250.123988 
L 222.148191 247.027798 
L 222.40043 246.681964 
L 224.420195 243.089797 
L 226.75603 238.62258 
L 228.59307 234.852854 
L 230.109182 231.6623 
L 230.764713 230.263875 
L 231.219212 229.444999 
L 238.551005 214.699501 
L 239.87221 212.167602 
L 242.77267 206.050491 
L 243.781186 204.00707 
L 244.494831 202.627185 
L 245.827789 199.8052 
L 247.097604 197.255873 
L 247.853907 195.770732 
L 248.073315 195.578452 
L 252.444024 187.038051 
L 252.751065 186.556151 
L 255.554367 181.204093 
L 256.221438 179.913226 
L 256.725589 178.97844 
L 257.482358 177.71013 
L 266.006828 163.578749 
L 276.522117 145.491661 
L 277.026187 144.74856 
L 280.311864 139.829221 
L 283.702732 135.756861 
L 293.125656 122.933756 
L 294.012589 121.76856 
L 298.968439 114.987584 
L 299.68972 114.189341 
L 302.372207 111.343588 
L 302.927936 110.821286 
L 304.651514 109.342325 
L 305.351768 108.710759 
L 306.160719 108.053164 
L 308.807618 105.740388 
L 311.489902 103.125046 
L 313.307332 101.325496 
L 324.026267 92.632722 
L 324.677637 92.16211 
L 326.392162 90.659411 
L 326.646623 90.428088 
L 327.206905 89.936943 
L 328.700755 88.8378 
L 329.308756 88.361356 
L 330.072632 87.761334 
L 331.278718 86.686018 
L 332.29003 85.701674 
L 333.969892 84.063227 
L 334.250575 83.866543 
L 334.555154 83.55258 
L 335.021243 83.051674 
L 335.306936 82.847798 
L 335.762311 82.409672 
L 337.182417 81.056808 
L 338.243551 79.96699 
L 339.588307 78.856262 
L 340.034905 78.701428 
L 340.844032 78.061867 
L 343.171878 76.315684 
L 344.272981 75.528629 
L 345.023807 75.024588 
L 345.579524 74.479769 
L 345.980575 74.246194 
L 346.586731 73.707177 
L 347.24305 73.058132 
L 348.860675 71.560791 
L 349.161666 71.43386 
L 349.907783 70.999544 
L 352.008696 69.261346 
L 354.150593 67.046228 
L 354.436312 66.86962 
L 356.293516 65.243017 
L 357.742248 63.887177 
L 359.189374 62.559638 
L 360.605589 61.602176 
L 360.952556 61.448374 
L 361.611191 60.914098 
L 363.406222 59.478783 
L 364.692223 58.399589 
L 365.301363 57.940245 
L 366.014844 57.417764 
L 367.645545 56.135676 
L 369.338892 54.770512 
L 370.803973 53.859751 
L 371.890036 53.177447 
L 372.507122 52.876677 
L 373.722727 51.977403 
L 374.812889 51.064836 
L 376.442136 49.865328 
L 379.766864 47.497499 
L 380.783086 46.702697 
L 384.392462 43.788669 
L 387.473248 41.159926 
L 388.439145 40.336378 
L 388.695325 40.151626 
L 388.921954 40.069156 
L 389.661719 39.510696 
L 390.118358 39.214926 
L 390.877324 38.588974 
L 391.38473 38.251949 
L 393.196966 36.926651 
L 393.992691 36.44611 
L 394.094544 36.365722 
L 394.094544 36.365722 
" clip-path="url(#p591bd2d8f2)" style="fill: none; stroke: #ffa500; stroke-linecap: square"/>
   </g>
   <g id="patch_3">
    <path d="M 54.18 326.082538 
L 54.18 30.685 
" style="fill: none; stroke: #000000; stroke-width: 0.8; stroke-linejoin: miter; stroke-linecap: square"/>
   </g>
   <g id="patch_4">
    <path d="M 47.381679 320.401817 
L 400.894371 320.401817 
" style="fill: none; stroke: #000000; stroke-width: 0.8; stroke-linejoin: miter; stroke-linecap: square"/>
   </g>
  </g>
 </g>
 <defs>
  <clipPath id="p591bd2d8f2">
   <rect x="47.381679" y="30.685" width="353.512692" height="295.397538"/>
  </clipPath>
 </defs>
</svg>
