<?xml version="1.0" encoding="utf-8" standalone="no"?>
<!DOCTYPE svg PUBLIC "-//W3C//DTD SVG 1.1//EN"
  "http://www.w3.org/Graphics/SVG/1.1/DTD/svg11.dtd">
<svg xmlns:xlink="http://www.w3.org/1999/xlink" width="490.136871pt" height="344.279942pt" viewBox="0 0 490.136871 344.279942" xmlns="http://www.w3.org/2000/svg" version="1.1">
 <metadata>
  <rdf:RDF xmlns:dc="http://purl.org/dc/elements/1.1/" xmlns:cc="http://creativecommons.org/ns#" xmlns:rdf="http://www.w3.org/1999/02/22-rdf-syntax-ns#">
   <cc:Work>
    <dc:type rdf:resource="http://purl.org/dc/dcmitype/StillImage"/>
    <dc:date>2022-09-21T13:57:52.592654</dc:date>
    <dc:format>image/svg+xml</dc:format>
    <dc:creator>
     <cc:Agent>
      <dc:title>Matplotlib v3.5.2, https://matplotlib.org/</dc:title>
     </cc:Agent>
    </dc:creator>
   </cc:Work>
  </rdf:RDF>
 </metadata>
 <defs>
  <style type="text/css">*{stroke-linejoin: round; stroke-linecap: butt}</style>
 </defs>
 <g id="figure_1">
  <g id="patch_1">
   <path d="M 0 344.279942 
L 490.136871 344.279942 
L 490.136871 0 
L 0 0 
z
" style="fill: #ffffff"/>
  </g>
  <g id="axes_1">
   <g id="patch_2">
    <path d="M 47.381679 326.082538 
L 400.894371 326.082538 
L 400.894371 30.685 
L 47.381679 30.685 
z
" style="fill: #ffffff"/>
   </g>
   <g id="matplotlib.axis_1">
    <g id="xtick_1">
     <g id="line2d_1">
      <defs>
       <path id="mf0de113127" d="M 0 0 
L 0 3.5 
" style="stroke: #000000; stroke-width: 0.8"/>
      </defs>
      <g>
       <use xlink:href="#mf0de113127" x="54.18" y="320.401817" style="stroke: #000000; stroke-width: 0.8"/>
      </g>
     </g>
    </g>
    <g id="xtick_2">
     <g id="line2d_2">
      <g>
       <use xlink:href="#mf0de113127" x="151.303299" y="320.401817" style="stroke: #000000; stroke-width: 0.8"/>
      </g>
     </g>
     <g id="text_1">
      <!-- 0.5 -->
      <g transform="translate(143.351737 335.000254)scale(0.1 -0.1)">
       <defs>
        <path id="DejaVuSans-30" d="M 2034 4250 
Q 1547 4250 1301 3770 
Q 1056 3291 1056 2328 
Q 1056 1369 1301 889 
Q 1547 409 2034 409 
Q 2525 409 2770 889 
Q 3016 1369 3016 2328 
Q 3016 3291 2770 3770 
Q 2525 4250 2034 4250 
z
M 2034 4750 
Q 2819 4750 3233 4129 
Q 3647 3509 3647 2328 
Q 3647 1150 3233 529 
Q 2819 -91 2034 -91 
Q 1250 -91 836 529 
Q 422 1150 422 2328 
Q 422 3509 836 4129 
Q 1250 4750 2034 4750 
z
" transform="scale(0.015625)"/>
        <path id="DejaVuSans-2e" d="M 684 794 
L 1344 794 
L 1344 0 
L 684 0 
L 684 794 
z
" transform="scale(0.015625)"/>
        <path id="DejaVuSans-35" d="M 691 4666 
L 3169 4666 
L 3169 4134 
L 1269 4134 
L 1269 2991 
Q 1406 3038 1543 3061 
Q 1681 3084 1819 3084 
Q 2600 3084 3056 2656 
Q 3513 2228 3513 1497 
Q 3513 744 3044 326 
Q 2575 -91 1722 -91 
Q 1428 -91 1123 -41 
Q 819 9 494 109 
L 494 744 
Q 775 591 1075 516 
Q 1375 441 1709 441 
Q 2250 441 2565 725 
Q 2881 1009 2881 1497 
Q 2881 1984 2565 2268 
Q 2250 2553 1709 2553 
Q 1456 2553 1204 2497 
Q 953 2441 691 2322 
L 691 4666 
z
" transform="scale(0.015625)"/>
       </defs>
       <use xlink:href="#DejaVuSans-30"/>
       <use xlink:href="#DejaVuSans-2e" x="63.623047"/>
       <use xlink:href="#DejaVuSans-35" x="95.410156"/>
      </g>
     </g>
    </g>
    <g id="xtick_3">
     <g id="line2d_3">
      <g>
       <use xlink:href="#mf0de113127" x="248.426598" y="320.401817" style="stroke: #000000; stroke-width: 0.8"/>
      </g>
     </g>
     <g id="text_2">
      <!-- 1.0 -->
      <g transform="translate(240.475036 335.000254)scale(0.1 -0.1)">
       <defs>
        <path id="DejaVuSans-31" d="M 794 531 
L 1825 531 
L 1825 4091 
L 703 3866 
L 703 4441 
L 1819 4666 
L 2450 4666 
L 2450 531 
L 3481 531 
L 3481 0 
L 794 0 
L 794 531 
z
" transform="scale(0.015625)"/>
       </defs>
       <use xlink:href="#DejaVuSans-31"/>
       <use xlink:href="#DejaVuSans-2e" x="63.623047"/>
       <use xlink:href="#DejaVuSans-30" x="95.410156"/>
      </g>
     </g>
    </g>
    <g id="xtick_4">
     <g id="line2d_4">
      <g>
       <use xlink:href="#mf0de113127" x="345.549897" y="320.401817" style="stroke: #000000; stroke-width: 0.8"/>
      </g>
     </g>
     <g id="text_3">
      <!-- 1.5 -->
      <g transform="translate(337.598335 335.000254)scale(0.1 -0.1)">
       <use xlink:href="#DejaVuSans-31"/>
       <use xlink:href="#DejaVuSans-2e" x="63.623047"/>
       <use xlink:href="#DejaVuSans-35" x="95.410156"/>
      </g>
     </g>
    </g>
    <g id="xtick_5">
     <g id="line2d_5">
      <defs>
       <path id="mcd46ad886a" d="M 0 0 
L 0 2 
" style="stroke: #000000; stroke-width: 0.6"/>
      </defs>
      <g>
       <use xlink:href="#mcd46ad886a" x="73.60466" y="320.401817" style="stroke: #000000; stroke-width: 0.6"/>
      </g>
     </g>
    </g>
    <g id="xtick_6">
     <g id="line2d_6">
      <g>
       <use xlink:href="#mcd46ad886a" x="93.02932" y="320.401817" style="stroke: #000000; stroke-width: 0.6"/>
      </g>
     </g>
    </g>
    <g id="xtick_7">
     <g id="line2d_7">
      <g>
       <use xlink:href="#mcd46ad886a" x="112.453979" y="320.401817" style="stroke: #000000; stroke-width: 0.6"/>
      </g>
     </g>
    </g>
    <g id="xtick_8">
     <g id="line2d_8">
      <g>
       <use xlink:href="#mcd46ad886a" x="131.878639" y="320.401817" style="stroke: #000000; stroke-width: 0.6"/>
      </g>
     </g>
    </g>
    <g id="xtick_9">
     <g id="line2d_9">
      <g>
       <use xlink:href="#mcd46ad886a" x="170.727959" y="320.401817" style="stroke: #000000; stroke-width: 0.6"/>
      </g>
     </g>
    </g>
    <g id="xtick_10">
     <g id="line2d_10">
      <g>
       <use xlink:href="#mcd46ad886a" x="190.152619" y="320.401817" style="stroke: #000000; stroke-width: 0.6"/>
      </g>
     </g>
    </g>
    <g id="xtick_11">
     <g id="line2d_11">
      <g>
       <use xlink:href="#mcd46ad886a" x="209.577279" y="320.401817" style="stroke: #000000; stroke-width: 0.6"/>
      </g>
     </g>
    </g>
    <g id="xtick_12">
     <g id="line2d_12">
      <g>
       <use xlink:href="#mcd46ad886a" x="229.001938" y="320.401817" style="stroke: #000000; stroke-width: 0.6"/>
      </g>
     </g>
    </g>
    <g id="xtick_13">
     <g id="line2d_13">
      <g>
       <use xlink:href="#mcd46ad886a" x="267.851258" y="320.401817" style="stroke: #000000; stroke-width: 0.6"/>
      </g>
     </g>
    </g>
    <g id="xtick_14">
     <g id="line2d_14">
      <g>
       <use xlink:href="#mcd46ad886a" x="287.275918" y="320.401817" style="stroke: #000000; stroke-width: 0.6"/>
      </g>
     </g>
    </g>
    <g id="xtick_15">
     <g id="line2d_15">
      <g>
       <use xlink:href="#mcd46ad886a" x="306.700578" y="320.401817" style="stroke: #000000; stroke-width: 0.6"/>
      </g>
     </g>
    </g>
    <g id="xtick_16">
     <g id="line2d_16">
      <g>
       <use xlink:href="#mcd46ad886a" x="326.125237" y="320.401817" style="stroke: #000000; stroke-width: 0.6"/>
      </g>
     </g>
    </g>
    <g id="xtick_17">
     <g id="line2d_17">
      <g>
       <use xlink:href="#mcd46ad886a" x="364.974557" y="320.401817" style="stroke: #000000; stroke-width: 0.6"/>
      </g>
     </g>
    </g>
    <g id="xtick_18">
     <g id="line2d_18">
      <g>
       <use xlink:href="#mcd46ad886a" x="384.399217" y="320.401817" style="stroke: #000000; stroke-width: 0.6"/>
      </g>
     </g>
    </g>
    <g id="text_4">
     <!-- Time in h -->
     <g transform="translate(408.894371 320.401817)scale(0.16 -0.16)">
      <defs>
       <path id="DejaVuSans-54" d="M -19 4666 
L 3928 4666 
L 3928 4134 
L 2272 4134 
L 2272 0 
L 1638 0 
L 1638 4134 
L -19 4134 
L -19 4666 
z
" transform="scale(0.015625)"/>
       <path id="DejaVuSans-69" d="M 603 3500 
L 1178 3500 
L 1178 0 
L 603 0 
L 603 3500 
z
M 603 4863 
L 1178 4863 
L 1178 4134 
L 603 4134 
L 603 4863 
z
" transform="scale(0.015625)"/>
       <path id="DejaVuSans-6d" d="M 3328 2828 
Q 3544 3216 3844 3400 
Q 4144 3584 4550 3584 
Q 5097 3584 5394 3201 
Q 5691 2819 5691 2113 
L 5691 0 
L 5113 0 
L 5113 2094 
Q 5113 2597 4934 2840 
Q 4756 3084 4391 3084 
Q 3944 3084 3684 2787 
Q 3425 2491 3425 1978 
L 3425 0 
L 2847 0 
L 2847 2094 
Q 2847 2600 2669 2842 
Q 2491 3084 2119 3084 
Q 1678 3084 1418 2786 
Q 1159 2488 1159 1978 
L 1159 0 
L 581 0 
L 581 3500 
L 1159 3500 
L 1159 2956 
Q 1356 3278 1631 3431 
Q 1906 3584 2284 3584 
Q 2666 3584 2933 3390 
Q 3200 3197 3328 2828 
z
" transform="scale(0.015625)"/>
       <path id="DejaVuSans-65" d="M 3597 1894 
L 3597 1613 
L 953 1613 
Q 991 1019 1311 708 
Q 1631 397 2203 397 
Q 2534 397 2845 478 
Q 3156 559 3463 722 
L 3463 178 
Q 3153 47 2828 -22 
Q 2503 -91 2169 -91 
Q 1331 -91 842 396 
Q 353 884 353 1716 
Q 353 2575 817 3079 
Q 1281 3584 2069 3584 
Q 2775 3584 3186 3129 
Q 3597 2675 3597 1894 
z
M 3022 2063 
Q 3016 2534 2758 2815 
Q 2500 3097 2075 3097 
Q 1594 3097 1305 2825 
Q 1016 2553 972 2059 
L 3022 2063 
z
" transform="scale(0.015625)"/>
       <path id="DejaVuSans-20" transform="scale(0.015625)"/>
       <path id="DejaVuSans-6e" d="M 3513 2113 
L 3513 0 
L 2938 0 
L 2938 2094 
Q 2938 2591 2744 2837 
Q 2550 3084 2163 3084 
Q 1697 3084 1428 2787 
Q 1159 2491 1159 1978 
L 1159 0 
L 581 0 
L 581 3500 
L 1159 3500 
L 1159 2956 
Q 1366 3272 1645 3428 
Q 1925 3584 2291 3584 
Q 2894 3584 3203 3211 
Q 3513 2838 3513 2113 
z
" transform="scale(0.015625)"/>
       <path id="DejaVuSans-68" d="M 3513 2113 
L 3513 0 
L 2938 0 
L 2938 2094 
Q 2938 2591 2744 2837 
Q 2550 3084 2163 3084 
Q 1697 3084 1428 2787 
Q 1159 2491 1159 1978 
L 1159 0 
L 581 0 
L 581 4863 
L 1159 4863 
L 1159 2956 
Q 1366 3272 1645 3428 
Q 1925 3584 2291 3584 
Q 2894 3584 3203 3211 
Q 3513 2838 3513 2113 
z
" transform="scale(0.015625)"/>
      </defs>
      <use xlink:href="#DejaVuSans-54"/>
      <use xlink:href="#DejaVuSans-69" x="57.958984"/>
      <use xlink:href="#DejaVuSans-6d" x="85.742188"/>
      <use xlink:href="#DejaVuSans-65" x="183.154297"/>
      <use xlink:href="#DejaVuSans-20" x="244.677734"/>
      <use xlink:href="#DejaVuSans-69" x="276.464844"/>
      <use xlink:href="#DejaVuSans-6e" x="304.248047"/>
      <use xlink:href="#DejaVuSans-20" x="367.626953"/>
      <use xlink:href="#DejaVuSans-68" x="399.414062"/>
     </g>
    </g>
   </g>
   <g id="matplotlib.axis_2">
    <g id="ytick_1">
     <g id="line2d_19">
      <defs>
       <path id="m55453c5504" d="M 0 0 
L -3.5 0 
" style="stroke: #000000; stroke-width: 0.8"/>
      </defs>
      <g>
       <use xlink:href="#m55453c5504" x="54.18" y="320.401817" style="stroke: #000000; stroke-width: 0.8"/>
      </g>
     </g>
    </g>
    <g id="ytick_2">
     <g id="line2d_20">
      <g>
       <use xlink:href="#m55453c5504" x="54.18" y="252.282192" style="stroke: #000000; stroke-width: 0.8"/>
      </g>
     </g>
     <g id="text_5">
      <!-- 0.5 -->
      <g transform="translate(31.276875 256.081411)scale(0.1 -0.1)">
       <use xlink:href="#DejaVuSans-30"/>
       <use xlink:href="#DejaVuSans-2e" x="63.623047"/>
       <use xlink:href="#DejaVuSans-35" x="95.410156"/>
      </g>
     </g>
    </g>
    <g id="ytick_3">
     <g id="line2d_21">
      <g>
       <use xlink:href="#m55453c5504" x="54.18" y="184.162568" style="stroke: #000000; stroke-width: 0.8"/>
      </g>
     </g>
     <g id="text_6">
      <!-- 1.0 -->
      <g transform="translate(31.276875 187.961787)scale(0.1 -0.1)">
       <use xlink:href="#DejaVuSans-31"/>
       <use xlink:href="#DejaVuSans-2e" x="63.623047"/>
       <use xlink:href="#DejaVuSans-30" x="95.410156"/>
      </g>
     </g>
    </g>
    <g id="ytick_4">
     <g id="line2d_22">
      <g>
       <use xlink:href="#m55453c5504" x="54.18" y="116.042944" style="stroke: #000000; stroke-width: 0.8"/>
      </g>
     </g>
     <g id="text_7">
      <!-- 1.5 -->
      <g transform="translate(31.276875 119.842163)scale(0.1 -0.1)">
       <use xlink:href="#DejaVuSans-31"/>
       <use xlink:href="#DejaVuSans-2e" x="63.623047"/>
       <use xlink:href="#DejaVuSans-35" x="95.410156"/>
      </g>
     </g>
    </g>
    <g id="ytick_5">
     <g id="line2d_23">
      <g>
       <use xlink:href="#m55453c5504" x="54.18" y="47.92332" style="stroke: #000000; stroke-width: 0.8"/>
      </g>
     </g>
     <g id="text_8">
      <!-- 2.0 -->
      <g transform="translate(31.276875 51.722538)scale(0.1 -0.1)">
       <defs>
        <path id="DejaVuSans-32" d="M 1228 531 
L 3431 531 
L 3431 0 
L 469 0 
L 469 531 
Q 828 903 1448 1529 
Q 2069 2156 2228 2338 
Q 2531 2678 2651 2914 
Q 2772 3150 2772 3378 
Q 2772 3750 2511 3984 
Q 2250 4219 1831 4219 
Q 1534 4219 1204 4116 
Q 875 4013 500 3803 
L 500 4441 
Q 881 4594 1212 4672 
Q 1544 4750 1819 4750 
Q 2544 4750 2975 4387 
Q 3406 4025 3406 3419 
Q 3406 3131 3298 2873 
Q 3191 2616 2906 2266 
Q 2828 2175 2409 1742 
Q 1991 1309 1228 531 
z
" transform="scale(0.015625)"/>
       </defs>
       <use xlink:href="#DejaVuSans-32"/>
       <use xlink:href="#DejaVuSans-2e" x="63.623047"/>
       <use xlink:href="#DejaVuSans-30" x="95.410156"/>
      </g>
     </g>
    </g>
    <g id="ytick_6">
     <g id="line2d_24">
      <defs>
       <path id="m471b0969d2" d="M 0 0 
L -2 0 
" style="stroke: #000000; stroke-width: 0.6"/>
      </defs>
      <g>
       <use xlink:href="#m471b0969d2" x="54.18" y="306.777892" style="stroke: #000000; stroke-width: 0.6"/>
      </g>
     </g>
    </g>
    <g id="ytick_7">
     <g id="line2d_25">
      <g>
       <use xlink:href="#m471b0969d2" x="54.18" y="293.153967" style="stroke: #000000; stroke-width: 0.6"/>
      </g>
     </g>
    </g>
    <g id="ytick_8">
     <g id="line2d_26">
      <g>
       <use xlink:href="#m471b0969d2" x="54.18" y="279.530042" style="stroke: #000000; stroke-width: 0.6"/>
      </g>
     </g>
    </g>
    <g id="ytick_9">
     <g id="line2d_27">
      <g>
       <use xlink:href="#m471b0969d2" x="54.18" y="265.906117" style="stroke: #000000; stroke-width: 0.6"/>
      </g>
     </g>
    </g>
    <g id="ytick_10">
     <g id="line2d_28">
      <g>
       <use xlink:href="#m471b0969d2" x="54.18" y="238.658268" style="stroke: #000000; stroke-width: 0.6"/>
      </g>
     </g>
    </g>
    <g id="ytick_11">
     <g id="line2d_29">
      <g>
       <use xlink:href="#m471b0969d2" x="54.18" y="225.034343" style="stroke: #000000; stroke-width: 0.6"/>
      </g>
     </g>
    </g>
    <g id="ytick_12">
     <g id="line2d_30">
      <g>
       <use xlink:href="#m471b0969d2" x="54.18" y="211.410418" style="stroke: #000000; stroke-width: 0.6"/>
      </g>
     </g>
    </g>
    <g id="ytick_13">
     <g id="line2d_31">
      <g>
       <use xlink:href="#m471b0969d2" x="54.18" y="197.786493" style="stroke: #000000; stroke-width: 0.6"/>
      </g>
     </g>
    </g>
    <g id="ytick_14">
     <g id="line2d_32">
      <g>
       <use xlink:href="#m471b0969d2" x="54.18" y="170.538643" style="stroke: #000000; stroke-width: 0.6"/>
      </g>
     </g>
    </g>
    <g id="ytick_15">
     <g id="line2d_33">
      <g>
       <use xlink:href="#m471b0969d2" x="54.18" y="156.914718" style="stroke: #000000; stroke-width: 0.6"/>
      </g>
     </g>
    </g>
    <g id="ytick_16">
     <g id="line2d_34">
      <g>
       <use xlink:href="#m471b0969d2" x="54.18" y="143.290794" style="stroke: #000000; stroke-width: 0.6"/>
      </g>
     </g>
    </g>
    <g id="ytick_17">
     <g id="line2d_35">
      <g>
       <use xlink:href="#m471b0969d2" x="54.18" y="129.666869" style="stroke: #000000; stroke-width: 0.6"/>
      </g>
     </g>
    </g>
    <g id="ytick_18">
     <g id="line2d_36">
      <g>
       <use xlink:href="#m471b0969d2" x="54.18" y="102.419019" style="stroke: #000000; stroke-width: 0.6"/>
      </g>
     </g>
    </g>
    <g id="ytick_19">
     <g id="line2d_37">
      <g>
       <use xlink:href="#m471b0969d2" x="54.18" y="88.795094" style="stroke: #000000; stroke-width: 0.6"/>
      </g>
     </g>
    </g>
    <g id="ytick_20">
     <g id="line2d_38">
      <g>
       <use xlink:href="#m471b0969d2" x="54.18" y="75.171169" style="stroke: #000000; stroke-width: 0.6"/>
      </g>
     </g>
    </g>
    <g id="ytick_21">
     <g id="line2d_39">
      <g>
       <use xlink:href="#m471b0969d2" x="54.18" y="61.547245" style="stroke: #000000; stroke-width: 0.6"/>
      </g>
     </g>
    </g>
    <g id="ytick_22">
     <g id="line2d_40">
      <g>
       <use xlink:href="#m471b0969d2" x="54.18" y="34.299395" style="stroke: #000000; stroke-width: 0.6"/>
      </g>
     </g>
    </g>
    <g id="text_9">
     <!-- Slots in 1e7 -->
     <g transform="translate(7.2 19.3575)scale(0.16 -0.16)">
      <defs>
       <path id="DejaVuSans-53" d="M 3425 4513 
L 3425 3897 
Q 3066 4069 2747 4153 
Q 2428 4238 2131 4238 
Q 1616 4238 1336 4038 
Q 1056 3838 1056 3469 
Q 1056 3159 1242 3001 
Q 1428 2844 1947 2747 
L 2328 2669 
Q 3034 2534 3370 2195 
Q 3706 1856 3706 1288 
Q 3706 609 3251 259 
Q 2797 -91 1919 -91 
Q 1588 -91 1214 -16 
Q 841 59 441 206 
L 441 856 
Q 825 641 1194 531 
Q 1563 422 1919 422 
Q 2459 422 2753 634 
Q 3047 847 3047 1241 
Q 3047 1584 2836 1778 
Q 2625 1972 2144 2069 
L 1759 2144 
Q 1053 2284 737 2584 
Q 422 2884 422 3419 
Q 422 4038 858 4394 
Q 1294 4750 2059 4750 
Q 2388 4750 2728 4690 
Q 3069 4631 3425 4513 
z
" transform="scale(0.015625)"/>
       <path id="DejaVuSans-6c" d="M 603 4863 
L 1178 4863 
L 1178 0 
L 603 0 
L 603 4863 
z
" transform="scale(0.015625)"/>
       <path id="DejaVuSans-6f" d="M 1959 3097 
Q 1497 3097 1228 2736 
Q 959 2375 959 1747 
Q 959 1119 1226 758 
Q 1494 397 1959 397 
Q 2419 397 2687 759 
Q 2956 1122 2956 1747 
Q 2956 2369 2687 2733 
Q 2419 3097 1959 3097 
z
M 1959 3584 
Q 2709 3584 3137 3096 
Q 3566 2609 3566 1747 
Q 3566 888 3137 398 
Q 2709 -91 1959 -91 
Q 1206 -91 779 398 
Q 353 888 353 1747 
Q 353 2609 779 3096 
Q 1206 3584 1959 3584 
z
" transform="scale(0.015625)"/>
       <path id="DejaVuSans-74" d="M 1172 4494 
L 1172 3500 
L 2356 3500 
L 2356 3053 
L 1172 3053 
L 1172 1153 
Q 1172 725 1289 603 
Q 1406 481 1766 481 
L 2356 481 
L 2356 0 
L 1766 0 
Q 1100 0 847 248 
Q 594 497 594 1153 
L 594 3053 
L 172 3053 
L 172 3500 
L 594 3500 
L 594 4494 
L 1172 4494 
z
" transform="scale(0.015625)"/>
       <path id="DejaVuSans-73" d="M 2834 3397 
L 2834 2853 
Q 2591 2978 2328 3040 
Q 2066 3103 1784 3103 
Q 1356 3103 1142 2972 
Q 928 2841 928 2578 
Q 928 2378 1081 2264 
Q 1234 2150 1697 2047 
L 1894 2003 
Q 2506 1872 2764 1633 
Q 3022 1394 3022 966 
Q 3022 478 2636 193 
Q 2250 -91 1575 -91 
Q 1294 -91 989 -36 
Q 684 19 347 128 
L 347 722 
Q 666 556 975 473 
Q 1284 391 1588 391 
Q 1994 391 2212 530 
Q 2431 669 2431 922 
Q 2431 1156 2273 1281 
Q 2116 1406 1581 1522 
L 1381 1569 
Q 847 1681 609 1914 
Q 372 2147 372 2553 
Q 372 3047 722 3315 
Q 1072 3584 1716 3584 
Q 2034 3584 2315 3537 
Q 2597 3491 2834 3397 
z
" transform="scale(0.015625)"/>
       <path id="DejaVuSans-37" d="M 525 4666 
L 3525 4666 
L 3525 4397 
L 1831 0 
L 1172 0 
L 2766 4134 
L 525 4134 
L 525 4666 
z
" transform="scale(0.015625)"/>
      </defs>
      <use xlink:href="#DejaVuSans-53"/>
      <use xlink:href="#DejaVuSans-6c" x="63.476562"/>
      <use xlink:href="#DejaVuSans-6f" x="91.259766"/>
      <use xlink:href="#DejaVuSans-74" x="152.441406"/>
      <use xlink:href="#DejaVuSans-73" x="191.650391"/>
      <use xlink:href="#DejaVuSans-20" x="243.75"/>
      <use xlink:href="#DejaVuSans-69" x="275.537109"/>
      <use xlink:href="#DejaVuSans-6e" x="303.320312"/>
      <use xlink:href="#DejaVuSans-20" x="366.699219"/>
      <use xlink:href="#DejaVuSans-31" x="398.486328"/>
      <use xlink:href="#DejaVuSans-65" x="462.109375"/>
      <use xlink:href="#DejaVuSans-37" x="523.632812"/>
     </g>
    </g>
   </g>
   <g id="line2d_41">
    <path d="M 54.18 259.192247 
L 394.09605 259.192247 
" clip-path="url(#p6cfca7e472)" style="fill: none; stroke-dasharray: 3.7,1.6; stroke-dashoffset: 0; stroke: #0000ff"/>
   </g>
   <g id="line2d_42">
    <path d="M 54.18 320.401817 
L 54.40968 320.306585 
L 60.260383 317.772699 
L 63.983351 316.08355 
L 67.621174 314.893691 
L 69.787439 314.117086 
L 74.373391 312.434191 
L 74.894204 312.303183 
L 76.888803 311.474508 
L 79.053331 310.641242 
L 80.831362 310.147592 
L 84.126723 308.838483 
L 85.249894 308.478416 
L 86.632952 308.130775 
L 87.846394 307.948732 
L 90.371519 307.167781 
L 94.217548 306.123725 
L 95.217853 305.946941 
L 100.711854 304.159496 
L 102.020908 303.987276 
L 107.445466 302.192923 
L 108.496065 302.00757 
L 113.658373 300.303149 
L 114.833144 300.089771 
L 117.831567 299.050265 
L 119.45726 298.627256 
L 120.58143 298.442216 
L 124.638081 297.119401 
L 126.022261 296.905819 
L 128.710116 295.989582 
L 131.696943 295.085335 
L 133.083162 294.890908 
L 136.726721 293.591785 
L 137.763545 293.228803 
L 138.89658 292.85251 
L 140.583455 292.107459 
L 143.521327 290.876169 
L 145.126149 290.319155 
L 146.644678 289.693762 
L 149.421805 288.692527 
L 150.156014 288.4728 
L 151.765741 288.027284 
L 153.407071 287.503594 
L 157.122808 286.259443 
L 158.073003 285.906311 
L 161.538616 284.606943 
L 164.562955 283.668309 
L 169.120579 282.08792 
L 170.603841 281.697268 
L 171.85869 281.260512 
L 173.549876 280.55373 
L 174.903176 280.114726 
L 176.035861 279.803256 
L 180.149906 278.357867 
L 181.663265 278.106492 
L 185.218145 276.919017 
L 186.704639 276.711007 
L 190.741283 275.36762 
L 192.257205 275.174337 
L 196.603176 273.941236 
L 197.554261 273.719493 
L 200.892481 272.705232 
L 202.104045 272.479743 
L 205.566879 271.355674 
L 206.865342 271.15423 
L 210.25153 270.069807 
L 212.116443 269.754767 
L 215.356681 268.810329 
L 216.82859 268.581229 
L 219.914964 267.699898 
L 221.524043 267.415921 
L 225.511662 266.404739 
L 226.871345 266.163895 
L 230.9119 265.072973 
L 232.078869 264.869337 
L 240.223338 262.999398 
L 241.350108 262.79692 
L 244.375348 262.115628 
L 246.072043 261.88755 
L 250.292957 260.939502 
L 251.874831 260.652623 
L 255.030912 259.999138 
L 256.328776 259.784874 
L 258.670948 259.197329 
L 259.16987 259.107506 
L 259.951713 258.333122 
L 260.437901 258.120589 
L 260.827609 257.759828 
L 262.168822 254.702346 
L 262.826552 253.662841 
L 263.388696 252.526333 
L 264.868111 249.065039 
L 266.17096 248.230437 
L 267.123346 246.455512 
L 269.084724 242.315474 
L 269.94979 240.513546 
L 270.727904 238.950433 
L 271.466786 238.343718 
L 271.911778 237.785737 
L 272.387671 236.805727 
L 273.296433 234.932138 
L 275.075138 230.860219 
L 276.157075 228.68971 
L 276.417015 228.328826 
L 277.242854 227.681049 
L 277.459866 227.387031 
L 278.671668 224.820488 
L 278.887972 224.511334 
L 279.363892 223.712713 
L 281.278587 219.421354 
L 282.703839 218.523401 
L 283.482233 217.06372 
L 284.260018 215.303141 
L 284.912908 213.808378 
L 285.996518 211.849694 
L 286.558382 210.515912 
L 286.730597 210.404972 
L 287.562372 209.015632 
L 288.052877 208.870768 
L 289.045235 208.376533 
L 289.576666 207.49779 
L 290.522318 206.268612 
L 290.897872 205.728029 
L 291.805387 203.474713 
L 292.635414 201.602759 
L 292.981259 200.982448 
L 294.150175 198.761734 
L 294.670594 198.350442 
L 295.104266 197.992732 
L 295.283637 197.858114 
L 295.716024 196.7088 
L 296.062263 195.94759 
L 297.421418 193.317682 
L 298.895523 189.968812 
L 299.687256 188.696283 
L 301.033714 187.853126 
L 303.332563 182.890611 
L 303.729603 182.022263 
L 305.29236 178.272523 
L 305.552731 177.900495 
L 306.852176 175.815911 
L 307.536944 175.454714 
L 308.0567 174.843354 
L 309.050962 172.485502 
L 310.227195 170.466205 
L 311.835238 166.59513 
L 312.746897 165.500053 
L 313.831316 164.976349 
L 316.187312 159.509395 
L 316.792482 158.209918 
L 318.436304 154.445968 
L 319.286559 153.936092 
L 319.903465 153.252185 
L 321.599265 149.011289 
L 322.811957 146.778518 
L 324.385689 142.9551 
L 324.646141 142.646109 
L 325.785986 142.000894 
L 325.959335 141.769178 
L 326.827541 140.183708 
L 328.516213 136.715438 
L 328.778344 136.305031 
L 329.523997 134.956031 
L 331.224437 131.015092 
L 331.758551 130.681919 
L 332.629919 130.139333 
L 333.257821 128.833589 
L 335.091628 124.821697 
L 335.351142 124.41881 
L 336.04396 123.2203 
L 337.706732 119.693761 
L 338.097303 119.366024 
L 338.531368 119.209757 
L 339.156281 118.843764 
L 339.330262 118.645168 
L 340.074906 117.345309 
L 341.813073 113.615351 
L 342.602389 112.592017 
L 343.683862 110.566712 
L 343.900717 110.271454 
L 345.117267 109.334101 
L 345.768257 107.89427 
L 345.941525 107.702936 
L 347.63787 104.71356 
L 348.849111 101.922468 
L 349.89937 100.307488 
L 350.37031 100.134573 
L 351.238128 99.32741 
L 352.621795 96.136864 
L 352.931835 95.743078 
L 353.798746 94.419391 
L 353.945117 94.303574 
L 354.074733 94.018521 
L 355.808459 90.161737 
L 356.02942 89.880076 
L 356.783621 88.876811 
L 358.195685 87.962509 
L 358.671093 86.892758 
L 359.752297 84.396447 
L 361.523491 81.429837 
L 362.907903 78.568023 
L 363.412027 77.896976 
L 363.6262 77.761023 
L 364.668371 77.173396 
L 365.426116 75.917161 
L 367.249293 72.401412 
L 369.690287 69.2034 
L 370.296838 68.361904 
L 371.592771 67.421445 
L 372.383198 66.207771 
L 373.68929 64.490189 
L 376.084076 60.257399 
L 376.217032 60.123068 
L 376.696427 59.6839 
L 377.174263 59.468697 
L 377.794617 59.023249 
L 380.303743 54.728184 
L 380.640648 54.374766 
L 382.127082 52.259733 
L 382.948713 51.05467 
L 384.016028 50.34049 
L 384.802392 49.030591 
L 386.397351 46.953514 
L 387.348717 45.002732 
L 387.781115 44.114493 
L 388.484865 42.971486 
L 389.81097 41.604175 
L 390.368501 41.468304 
L 390.878226 41.287269 
L 392.651401 38.218467 
L 393.966067 36.526225 
L 394.09605 36.365722 
L 394.09605 36.365722 
" clip-path="url(#p6cfca7e472)" style="fill: none; stroke: #ff0000; stroke-linecap: square"/>
   </g>
   <g id="line2d_43">
    <path d="M 54.18 259.192247 
L 394.084719 259.192247 
" clip-path="url(#p6cfca7e472)" style="fill: none; stroke-dasharray: 3.7,1.6; stroke-dashoffset: 0; stroke: #0000ff"/>
   </g>
   <g id="line2d_44">
    <path d="M 54.18 320.401817 
L 54.363423 320.303534 
L 55.660046 319.811451 
L 56.22164 319.630171 
L 66.612856 316.299762 
L 69.43193 315.635759 
L 70.427298 315.399111 
L 81.292967 312.564858 
L 83.766789 311.976427 
L 85.460792 311.586047 
L 89.988524 310.498681 
L 91.289723 310.180004 
L 92.852566 309.789787 
L 95.852489 309.104517 
L 98.881457 308.573702 
L 102.472855 307.578474 
L 104.257642 307.216419 
L 107.640365 306.276327 
L 108.205688 306.119352 
L 109.384252 305.933508 
L 110.128999 305.731615 
L 111.68683 305.34644 
L 114.777708 304.64899 
L 117.640666 304.000042 
L 120.406781 303.313573 
L 121.934908 303.064596 
L 124.622185 302.502186 
L 127.533688 302.071589 
L 129.957044 301.619247 
L 131.701314 301.293049 
L 135.942127 300.284225 
L 136.940684 300.034744 
L 140.267832 299.188535 
L 142.182758 298.850103 
L 146.20786 297.95418 
L 147.203735 297.738894 
L 147.818148 297.560857 
L 149.507392 297.126009 
L 156.675232 295.413454 
L 157.799941 295.148537 
L 161.041129 294.388676 
L 164.15965 293.798964 
L 166.321826 293.325329 
L 167.462431 293.175697 
L 171.600747 292.251314 
L 172.941965 291.955675 
L 176.400942 291.05403 
L 178.217935 290.698036 
L 181.28756 289.900982 
L 182.807151 289.60236 
L 186.203839 288.816831 
L 187.866104 288.551137 
L 190.855354 287.85659 
L 192.771732 287.511687 
L 195.938961 286.775014 
L 197.504723 286.497331 
L 205.386252 284.671575 
L 208.040119 284.226154 
L 210.464009 283.617219 
L 212.386101 283.339387 
L 216.029886 282.449009 
L 219.754408 281.846777 
L 220.446104 281.659516 
L 222.706115 281.262774 
L 226.450957 280.429003 
L 227.759273 280.174454 
L 230.088807 279.777344 
L 231.47425 279.532903 
L 234.13368 278.864214 
L 237.432964 278.229066 
L 239.464718 277.771071 
L 241.108773 277.433729 
L 242.14673 277.149179 
L 243.585174 276.759017 
L 244.451293 276.625925 
L 246.008622 276.322275 
L 249.772128 275.412006 
L 251.135712 275.123479 
L 253.826281 274.47498 
L 255.012249 274.267801 
L 258.399418 273.447818 
L 260.00805 273.143705 
L 261.780728 272.63229 
L 263.769986 272.193749 
L 265.501122 271.806135 
L 268.365704 271.121437 
L 270.534036 270.692624 
L 272.651491 270.15561 
L 275.3499 269.640939 
L 277.089605 269.212153 
L 279.430654 268.803095 
L 282.074123 268.206163 
L 283.891959 267.866477 
L 287.437844 267.13039 
L 288.216249 266.974383 
L 292.807316 266.12222 
L 293.54336 265.94812 
L 306.527741 263.269138 
L 307.370286 263.110665 
L 310.786749 262.459155 
L 312.170556 262.20605 
L 315.821432 261.521148 
L 316.95867 261.280141 
L 321.356645 260.460021 
L 322.44038 260.295145 
L 326.46989 259.556401 
L 327.691637 259.355911 
L 329.377163 258.956281 
L 330.663798 257.484624 
L 330.999014 257.140211 
L 331.608312 256.695527 
L 331.893843 256.565827 
L 332.500184 255.897165 
L 333.06514 255.022509 
L 334.46883 254.483274 
L 335.910696 253.921968 
L 336.668425 253.636955 
L 337.590357 252.895814 
L 338.715039 250.708357 
L 339.27754 249.841602 
L 340.148774 249.115175 
L 340.890013 248.838609 
L 343.636417 247.495018 
L 343.853126 247.203738 
L 344.718576 245.824724 
L 345.67115 244.151979 
L 345.844818 243.919827 
L 346.32227 243.256887 
L 350.12741 241.833732 
L 350.61798 241.41575 
L 352.09004 238.843866 
L 352.825031 237.430302 
L 353.393159 237.20687 
L 356.583061 235.866575 
L 357.060605 235.29997 
L 357.710339 234.205288 
L 358.670402 232.768645 
L 360.031753 231.402165 
L 361.164254 231.009115 
L 363.132716 230.083369 
L 363.611399 229.729638 
L 364.303905 228.665228 
L 364.79305 227.841852 
L 366.05384 225.627447 
L 367.115802 225.281603 
L 368.381475 224.851932 
L 369.272813 224.470803 
L 370.183895 223.763803 
L 372.758369 219.67965 
L 374.46755 218.983031 
L 376.32505 217.799821 
L 377.017717 216.843203 
L 377.277236 216.474621 
L 377.840097 215.883643 
L 378.837068 214.828334 
L 379.443619 213.869141 
L 382.621909 212.724731 
L 383.709145 211.949775 
L 384.48836 210.662696 
L 385.483464 208.881749 
L 386.091536 207.936017 
L 387.007663 207.632503 
L 388.642059 207.024727 
L 389.213991 206.784278 
L 390.220048 206.174171 
L 391.692114 203.551961 
L 393.251736 201.954637 
L 394.084719 201.661927 
L 394.084719 201.661927 
" clip-path="url(#p6cfca7e472)" style="fill: none; stroke: #0000ff; stroke-linecap: square"/>
   </g>
   <g id="patch_3">
    <path d="M 54.18 326.082538 
L 54.18 30.685 
" style="fill: none; stroke: #000000; stroke-width: 0.8; stroke-linejoin: miter; stroke-linecap: square"/>
   </g>
   <g id="patch_4">
    <path d="M 47.381679 320.401817 
L 400.894371 320.401817 
" style="fill: none; stroke: #000000; stroke-width: 0.8; stroke-linejoin: miter; stroke-linecap: square"/>
   </g>
  </g>
 </g>
 <defs>
  <clipPath id="p6cfca7e472">
   <rect x="47.381679" y="30.685" width="353.512692" height="295.397538"/>
  </clipPath>
 </defs>
</svg>
